M48
;DRILL file {KiCad 4.0.5+dfsg1-4} date Mon Jun 15 22:33:47 2020
;FORMAT={-:-/ absolute / inch / decimal}
FMAT,2
INCH,TZ
T1C0.025
T2C0.045
%
G90
G05
M72
T1
X4.88Y-2.92
X4.88Y-2.98
X4.88Y-3.77
X4.88Y-3.83
X4.88Y-4.62
X4.88Y-4.68
X4.91Y-2.92
X4.91Y-2.98
X4.91Y-3.77
X4.91Y-3.83
X4.91Y-4.62
X4.91Y-4.68
X4.94Y-2.92
X4.94Y-2.98
X4.94Y-3.77
X4.94Y-3.83
X4.94Y-4.62
X4.94Y-4.68
X5.24Y-3.35
X5.24Y-3.38
X5.24Y-3.41
X5.24Y-4.19
X5.24Y-4.22
X5.24Y-4.25
X5.3Y-3.35
X5.3Y-3.38
X5.3Y-3.41
X5.3Y-4.19
X5.3Y-4.22
X5.3Y-4.25
X5.59Y-2.92
X5.59Y-2.98
X5.59Y-3.77
X5.59Y-3.83
X5.59Y-4.62
X5.59Y-4.68
X5.62Y-2.92
X5.62Y-2.98
X5.62Y-3.77
X5.62Y-3.83
X5.62Y-4.62
X5.62Y-4.68
X5.65Y-2.92
X5.65Y-2.98
X5.65Y-3.77
X5.65Y-3.83
X5.65Y-4.62
X5.65Y-4.68
X5.95Y-3.35
X5.95Y-3.38
X5.95Y-3.41
X5.95Y-4.19
X5.95Y-4.22
X5.95Y-4.25
X6.01Y-3.35
X6.01Y-3.38
X6.01Y-3.41
X6.01Y-4.19
X6.01Y-4.22
X6.01Y-4.25
X6.3Y-2.92
X6.3Y-2.98
X6.3Y-3.77
X6.3Y-3.83
X6.3Y-4.62
X6.3Y-4.68
X6.33Y-2.92
X6.33Y-2.98
X6.33Y-3.77
X6.33Y-3.83
X6.33Y-4.62
X6.33Y-4.68
X6.36Y-2.92
X6.36Y-2.98
X6.36Y-3.77
X6.36Y-3.83
X6.36Y-4.62
X6.36Y-4.68
X6.66Y-3.35
X6.66Y-3.38
X6.66Y-3.41
X6.66Y-4.19
X6.66Y-4.22
X6.66Y-4.25
X6.72Y-3.35
X6.72Y-3.38
X6.72Y-3.41
X6.72Y-4.19
X6.72Y-4.22
X6.72Y-4.25
X7.01Y-2.92
X7.01Y-2.98
X7.01Y-3.77
X7.01Y-3.83
X7.01Y-4.62
X7.01Y-4.68
X7.04Y-2.92
X7.04Y-2.98
X7.04Y-3.77
X7.04Y-3.83
X7.04Y-4.62
X7.04Y-4.68
X7.07Y-2.92
X7.07Y-2.98
X7.07Y-3.77
X7.07Y-3.83
X7.07Y-4.62
X7.07Y-4.68
T2
X4.65Y-4.75
X4.66Y-2.85
X7.29Y-4.75
X7.3Y-2.85
T0
M30
