G04 #@! TF.FileFunction,Copper,L2,Bot,Signal*
%FSLAX46Y46*%
G04 Gerber Fmt 4.6, Leading zero omitted, Abs format (unit mm)*
G04 Created by KiCad (PCBNEW 4.0.5+dfsg1-4) date Mon Jun 15 22:33:41 2020*
%MOMM*%
%LPD*%
G01*
G04 APERTURE LIST*
%ADD10C,0.100000*%
%ADD11O,1.727200X2.300000*%
%ADD12C,0.600000*%
%ADD13C,0.203200*%
G04 APERTURE END LIST*
D10*
D11*
X138938000Y-115062000D03*
X141478000Y-115062000D03*
X144018000Y-115062000D03*
X146558000Y-115062000D03*
X120904000Y-93472000D03*
X123444000Y-93472000D03*
X125984000Y-93472000D03*
X128524000Y-93472000D03*
X138938000Y-93472000D03*
X141478000Y-93472000D03*
X144018000Y-93472000D03*
X146558000Y-93472000D03*
X120904000Y-115062000D03*
X123444000Y-115062000D03*
X125984000Y-115062000D03*
X128524000Y-115062000D03*
X175006000Y-93472000D03*
X177546000Y-93472000D03*
X180086000Y-93472000D03*
X182626000Y-93472000D03*
X156972000Y-93472000D03*
X159512000Y-93472000D03*
X162052000Y-93472000D03*
X164592000Y-93472000D03*
X156972000Y-115062000D03*
X159512000Y-115062000D03*
X162052000Y-115062000D03*
X164592000Y-115062000D03*
X175006000Y-115062000D03*
X177546000Y-115062000D03*
X180086000Y-115062000D03*
X182626000Y-115062000D03*
D12*
X127254000Y-86741000D03*
X127254000Y-108331000D03*
X145288000Y-108331000D03*
X145288000Y-86741000D03*
X181356000Y-86741000D03*
X163322000Y-86741000D03*
X163322000Y-108331000D03*
X181356000Y-108331000D03*
X127254000Y-89154000D03*
X126238000Y-83566000D03*
X126238000Y-105156000D03*
X127254000Y-110744000D03*
X145288000Y-110744000D03*
X144272000Y-105156000D03*
X144272000Y-83566000D03*
X145288000Y-89154000D03*
X180340000Y-83566000D03*
X181356000Y-89154000D03*
X163322000Y-89154000D03*
X162306000Y-83566000D03*
X162306000Y-105156000D03*
X163322000Y-110744000D03*
X181356000Y-110744000D03*
X180340000Y-105156000D03*
X131064000Y-83566000D03*
X123444000Y-89154000D03*
X123444000Y-110744000D03*
X131064000Y-105156000D03*
X141478000Y-110744000D03*
X149098000Y-105156000D03*
X141478000Y-89154000D03*
X149098000Y-83566000D03*
X177546000Y-89154000D03*
X185166000Y-83566000D03*
X159512000Y-89154000D03*
X167132000Y-83566000D03*
X167132000Y-105156000D03*
X159512000Y-110744000D03*
X177546000Y-110744000D03*
X185166000Y-105156000D03*
D13*
X145288000Y-90043000D02*
X139573000Y-90043000D01*
X145923000Y-89408000D02*
X145288000Y-90043000D01*
X139573000Y-90043000D02*
X138938000Y-90678000D01*
X138938000Y-90678000D02*
X138938000Y-93472000D01*
X145923000Y-110998000D02*
X145288000Y-111633000D01*
X139573000Y-111633000D02*
X138938000Y-112268000D01*
X138938000Y-112268000D02*
X138938000Y-115062000D01*
X145288000Y-111633000D02*
X139573000Y-111633000D01*
X145923000Y-110236000D02*
X145923000Y-110998000D01*
X145587999Y-109900999D02*
X145923000Y-110236000D01*
X145587999Y-108630999D02*
X145587999Y-109900999D01*
X145288000Y-108331000D02*
X145587999Y-108630999D01*
X145923000Y-88646000D02*
X145923000Y-89408000D01*
X145288000Y-86741000D02*
X145587999Y-87040999D01*
X145587999Y-88310999D02*
X145923000Y-88646000D01*
X145587999Y-87040999D02*
X145587999Y-88310999D01*
X127889000Y-89408000D02*
X127254000Y-90043000D01*
X127254000Y-90043000D02*
X121539000Y-90043000D01*
X121539000Y-90043000D02*
X120904000Y-90678000D01*
X120904000Y-90678000D02*
X120904000Y-93472000D01*
X127553999Y-88310999D02*
X127889000Y-88646000D01*
X127254000Y-86741000D02*
X127553999Y-87040999D01*
X127553999Y-87040999D02*
X127553999Y-88310999D01*
X127889000Y-88646000D02*
X127889000Y-89408000D01*
X127889000Y-110236000D02*
X127889000Y-110998000D01*
X127553999Y-109900999D02*
X127889000Y-110236000D01*
X127553999Y-108630999D02*
X127553999Y-109900999D01*
X127254000Y-108331000D02*
X127553999Y-108630999D01*
X120904000Y-112268000D02*
X120904000Y-115062000D01*
X127889000Y-110998000D02*
X127254000Y-111633000D01*
X121539000Y-111633000D02*
X120904000Y-112268000D01*
X127254000Y-111633000D02*
X121539000Y-111633000D01*
X181356000Y-90043000D02*
X175641000Y-90043000D01*
X181991000Y-89408000D02*
X181356000Y-90043000D01*
X175641000Y-90043000D02*
X175006000Y-90678000D01*
X175006000Y-90678000D02*
X175006000Y-93472000D01*
X181655999Y-88310999D02*
X181991000Y-88646000D01*
X181655999Y-87040999D02*
X181655999Y-88310999D01*
X181991000Y-88646000D02*
X181991000Y-89408000D01*
X163322000Y-90043000D02*
X157607000Y-90043000D01*
X157607000Y-90043000D02*
X156972000Y-90678000D01*
X156972000Y-90678000D02*
X156972000Y-93472000D01*
X163957000Y-89408000D02*
X163322000Y-90043000D01*
X163621999Y-88310999D02*
X163957000Y-88646000D01*
X163957000Y-88646000D02*
X163957000Y-89408000D01*
X181356000Y-86741000D02*
X181655999Y-87040999D01*
X163621999Y-87040999D02*
X163621999Y-88310999D01*
X163322000Y-86741000D02*
X163621999Y-87040999D01*
X163957000Y-110236000D02*
X163957000Y-110998000D01*
X163957000Y-110998000D02*
X163322000Y-111633000D01*
X163621999Y-109900999D02*
X163957000Y-110236000D01*
X163621999Y-108630999D02*
X163621999Y-109900999D01*
X163322000Y-108331000D02*
X163621999Y-108630999D01*
X163322000Y-111633000D02*
X157607000Y-111633000D01*
X157607000Y-111633000D02*
X156972000Y-112268000D01*
X156972000Y-112268000D02*
X156972000Y-115062000D01*
X175641000Y-111633000D02*
X175006000Y-112268000D01*
X175006000Y-112268000D02*
X175006000Y-115062000D01*
X181356000Y-111633000D02*
X175641000Y-111633000D01*
X181991000Y-110998000D02*
X181356000Y-111633000D01*
X181991000Y-110236000D02*
X181991000Y-110998000D01*
X181655999Y-109900999D02*
X181991000Y-110236000D01*
X181356000Y-108331000D02*
X181655999Y-108630999D01*
X181655999Y-108630999D02*
X181655999Y-109900999D01*
X144272000Y-109728000D02*
X144988001Y-110444001D01*
X144988001Y-110444001D02*
X145288000Y-110744000D01*
X144272000Y-105156000D02*
X144272000Y-109728000D01*
X144272000Y-83566000D02*
X144272000Y-88138000D01*
X144272000Y-88138000D02*
X144988001Y-88854001D01*
X144988001Y-88854001D02*
X145288000Y-89154000D01*
X126954001Y-88854001D02*
X127254000Y-89154000D01*
X126238000Y-88138000D02*
X126954001Y-88854001D01*
X126954001Y-110444001D02*
X127254000Y-110744000D01*
X126238000Y-109728000D02*
X126954001Y-110444001D01*
X126238000Y-83566000D02*
X126238000Y-88138000D01*
X126238000Y-105156000D02*
X126238000Y-109728000D01*
X180340000Y-83566000D02*
X180340000Y-88138000D01*
X181056001Y-88854001D02*
X181356000Y-89154000D01*
X180340000Y-88138000D02*
X181056001Y-88854001D01*
X162306000Y-83566000D02*
X162306000Y-88138000D01*
X163022001Y-88854001D02*
X163322000Y-89154000D01*
X162306000Y-88138000D02*
X163022001Y-88854001D01*
X162306000Y-105156000D02*
X162306000Y-109728000D01*
X162306000Y-109728000D02*
X163022001Y-110444001D01*
X163022001Y-110444001D02*
X163322000Y-110744000D01*
X181056001Y-110444001D02*
X181356000Y-110744000D01*
X180340000Y-109728000D02*
X181056001Y-110444001D01*
X180340000Y-105156000D02*
X180340000Y-109728000D01*
X143256000Y-105156000D02*
X141986000Y-105156000D01*
X141986000Y-105156000D02*
X141478000Y-105664000D01*
X149098000Y-105156000D02*
X145161000Y-105156000D01*
X141478000Y-105664000D02*
X141478000Y-110744000D01*
X141986000Y-83566000D02*
X141478000Y-84074000D01*
X141478000Y-84074000D02*
X141478000Y-89154000D01*
X143256000Y-83566000D02*
X141986000Y-83566000D01*
X143383000Y-83439000D02*
X143256000Y-83566000D01*
X144526000Y-82931000D02*
X143891000Y-82931000D01*
X143891000Y-82931000D02*
X143383000Y-83439000D01*
X145161000Y-83566000D02*
X144526000Y-82931000D01*
X143891000Y-104521000D02*
X143383000Y-105029000D01*
X144526000Y-104521000D02*
X143891000Y-104521000D01*
X143383000Y-105029000D02*
X143256000Y-105156000D01*
X145161000Y-105156000D02*
X144526000Y-104521000D01*
X149098000Y-83566000D02*
X145161000Y-83566000D01*
X125349000Y-105029000D02*
X125222000Y-105156000D01*
X125857000Y-104521000D02*
X125349000Y-105029000D01*
X127127000Y-105156000D02*
X126492000Y-104521000D01*
X126492000Y-104521000D02*
X125857000Y-104521000D01*
X125222000Y-105156000D02*
X123952000Y-105156000D01*
X125222000Y-83566000D02*
X123952000Y-83566000D01*
X123952000Y-83566000D02*
X123444000Y-84074000D01*
X125349000Y-83439000D02*
X125222000Y-83566000D01*
X123444000Y-84074000D02*
X123444000Y-89154000D01*
X131064000Y-83566000D02*
X127127000Y-83566000D01*
X126492000Y-82931000D02*
X125857000Y-82931000D01*
X127127000Y-83566000D02*
X126492000Y-82931000D01*
X125857000Y-82931000D02*
X125349000Y-83439000D01*
X131064000Y-105156000D02*
X127127000Y-105156000D01*
X123444000Y-105664000D02*
X123444000Y-110744000D01*
X123952000Y-105156000D02*
X123444000Y-105664000D01*
X181229000Y-83566000D02*
X180594000Y-82931000D01*
X180594000Y-82931000D02*
X179959000Y-82931000D01*
X179959000Y-82931000D02*
X179451000Y-83439000D01*
X179451000Y-83439000D02*
X179324000Y-83566000D01*
X161925000Y-82931000D02*
X161417000Y-83439000D01*
X161417000Y-83439000D02*
X161290000Y-83566000D01*
X167132000Y-83566000D02*
X163195000Y-83566000D01*
X162560000Y-82931000D02*
X161925000Y-82931000D01*
X163195000Y-83566000D02*
X162560000Y-82931000D01*
X179324000Y-83566000D02*
X178054000Y-83566000D01*
X177546000Y-84074000D02*
X177546000Y-89154000D01*
X178054000Y-83566000D02*
X177546000Y-84074000D01*
X185166000Y-83566000D02*
X181229000Y-83566000D01*
X161290000Y-83566000D02*
X160020000Y-83566000D01*
X160020000Y-83566000D02*
X159512000Y-84074000D01*
X159512000Y-84074000D02*
X159512000Y-89154000D01*
X161925000Y-104521000D02*
X161417000Y-105029000D01*
X162560000Y-104521000D02*
X161925000Y-104521000D01*
X163195000Y-105156000D02*
X162560000Y-104521000D01*
X161417000Y-105029000D02*
X161290000Y-105156000D01*
X167132000Y-105156000D02*
X163195000Y-105156000D01*
X161290000Y-105156000D02*
X160020000Y-105156000D01*
X160020000Y-105156000D02*
X159512000Y-105664000D01*
X159512000Y-105664000D02*
X159512000Y-110744000D01*
X178054000Y-105156000D02*
X177546000Y-105664000D01*
X177546000Y-105664000D02*
X177546000Y-110744000D01*
X179324000Y-105156000D02*
X178054000Y-105156000D01*
X179451000Y-105029000D02*
X179324000Y-105156000D01*
X179959000Y-104521000D02*
X179451000Y-105029000D01*
X180594000Y-104521000D02*
X179959000Y-104521000D01*
X181229000Y-105156000D02*
X180594000Y-104521000D01*
X185166000Y-105156000D02*
X181229000Y-105156000D01*
G36*
X186310200Y-116460200D02*
X183127033Y-116460200D01*
X183455935Y-116262733D01*
X183742660Y-115875531D01*
X183859383Y-115408078D01*
X183764634Y-115214400D01*
X182778400Y-115214400D01*
X182778400Y-115234400D01*
X182473600Y-115234400D01*
X182473600Y-115214400D01*
X181487366Y-115214400D01*
X181392617Y-115408078D01*
X181509340Y-115875531D01*
X181796065Y-116262733D01*
X182124967Y-116460200D01*
X180513832Y-116460200D01*
X180533127Y-116456362D01*
X180912184Y-116203085D01*
X181165461Y-115824028D01*
X181254400Y-115376901D01*
X181254400Y-114747099D01*
X181248199Y-114715922D01*
X181392617Y-114715922D01*
X181487366Y-114909600D01*
X182473600Y-114909600D01*
X182473600Y-113655621D01*
X182778400Y-113655621D01*
X182778400Y-114909600D01*
X183764634Y-114909600D01*
X183859383Y-114715922D01*
X183742660Y-114248469D01*
X183455935Y-113861267D01*
X183042860Y-113613264D01*
X182965753Y-113604696D01*
X182778400Y-113655621D01*
X182473600Y-113655621D01*
X182286247Y-113604696D01*
X182209140Y-113613264D01*
X181796065Y-113861267D01*
X181509340Y-114248469D01*
X181392617Y-114715922D01*
X181248199Y-114715922D01*
X181165461Y-114299972D01*
X180912184Y-113920915D01*
X180533127Y-113667638D01*
X180086000Y-113578699D01*
X179638873Y-113667638D01*
X179259816Y-113920915D01*
X179006539Y-114299972D01*
X178917600Y-114747099D01*
X178917600Y-115376901D01*
X179006539Y-115824028D01*
X179259816Y-116203085D01*
X179638873Y-116456362D01*
X179658168Y-116460200D01*
X177973832Y-116460200D01*
X177993127Y-116456362D01*
X178372184Y-116203085D01*
X178625461Y-115824028D01*
X178714400Y-115376901D01*
X178714400Y-114747099D01*
X178625461Y-114299972D01*
X178372184Y-113920915D01*
X177993127Y-113667638D01*
X177546000Y-113578699D01*
X177098873Y-113667638D01*
X176719816Y-113920915D01*
X176466539Y-114299972D01*
X176377600Y-114747099D01*
X176377600Y-115376901D01*
X176466539Y-115824028D01*
X176719816Y-116203085D01*
X177098873Y-116456362D01*
X177118168Y-116460200D01*
X175433832Y-116460200D01*
X175453127Y-116456362D01*
X175832184Y-116203085D01*
X176085461Y-115824028D01*
X176174400Y-115376901D01*
X176174400Y-114747099D01*
X176085461Y-114299972D01*
X175832184Y-113920915D01*
X175453127Y-113667638D01*
X175412400Y-113659537D01*
X175412400Y-112436336D01*
X175809336Y-112039400D01*
X181356000Y-112039400D01*
X181511523Y-112008465D01*
X181643368Y-111920368D01*
X182278368Y-111285368D01*
X182366465Y-111153523D01*
X182397400Y-110998000D01*
X182397400Y-110236000D01*
X182366465Y-110080477D01*
X182278368Y-109948632D01*
X182062399Y-109732663D01*
X182062399Y-108630999D01*
X182031464Y-108475476D01*
X181960767Y-108369671D01*
X181960905Y-108211226D01*
X181869024Y-107988856D01*
X181699039Y-107818574D01*
X181476830Y-107726305D01*
X181236226Y-107726095D01*
X181013856Y-107817976D01*
X180843574Y-107987961D01*
X180751305Y-108210170D01*
X180751095Y-108450774D01*
X180842976Y-108673144D01*
X181012961Y-108843426D01*
X181235170Y-108935695D01*
X181249599Y-108935708D01*
X181249599Y-109900999D01*
X181280534Y-110056522D01*
X181335766Y-110139182D01*
X181325909Y-110139173D01*
X180746400Y-109559664D01*
X180746400Y-105604880D01*
X180852426Y-105499039D01*
X180894933Y-105396669D01*
X180941632Y-105443368D01*
X181073477Y-105531465D01*
X181229000Y-105562400D01*
X184717120Y-105562400D01*
X184822961Y-105668426D01*
X185045170Y-105760695D01*
X185285774Y-105760905D01*
X185508144Y-105669024D01*
X185678426Y-105499039D01*
X185770695Y-105276830D01*
X185770905Y-105036226D01*
X185679024Y-104813856D01*
X185509039Y-104643574D01*
X185286830Y-104551305D01*
X185046226Y-104551095D01*
X184823856Y-104642976D01*
X184717046Y-104749600D01*
X181397336Y-104749600D01*
X180881368Y-104233632D01*
X180749523Y-104145535D01*
X180594000Y-104114600D01*
X179959000Y-104114600D01*
X179803477Y-104145535D01*
X179671631Y-104233632D01*
X179163632Y-104741632D01*
X179155664Y-104749600D01*
X178054000Y-104749600D01*
X177898477Y-104780535D01*
X177766631Y-104868632D01*
X177258632Y-105376632D01*
X177170535Y-105508477D01*
X177139600Y-105664000D01*
X177139600Y-110295120D01*
X177033574Y-110400961D01*
X176941305Y-110623170D01*
X176941095Y-110863774D01*
X177032976Y-111086144D01*
X177173187Y-111226600D01*
X175641000Y-111226600D01*
X175485477Y-111257535D01*
X175353632Y-111345632D01*
X174718632Y-111980632D01*
X174630535Y-112112477D01*
X174599600Y-112268000D01*
X174599600Y-113659537D01*
X174558873Y-113667638D01*
X174179816Y-113920915D01*
X173926539Y-114299972D01*
X173837600Y-114747099D01*
X173837600Y-115376901D01*
X173926539Y-115824028D01*
X174179816Y-116203085D01*
X174558873Y-116456362D01*
X174578168Y-116460200D01*
X171575800Y-116460200D01*
X171575800Y-98169800D01*
X186310200Y-98169800D01*
X186310200Y-116460200D01*
X186310200Y-116460200D01*
G37*
X186310200Y-116460200D02*
X183127033Y-116460200D01*
X183455935Y-116262733D01*
X183742660Y-115875531D01*
X183859383Y-115408078D01*
X183764634Y-115214400D01*
X182778400Y-115214400D01*
X182778400Y-115234400D01*
X182473600Y-115234400D01*
X182473600Y-115214400D01*
X181487366Y-115214400D01*
X181392617Y-115408078D01*
X181509340Y-115875531D01*
X181796065Y-116262733D01*
X182124967Y-116460200D01*
X180513832Y-116460200D01*
X180533127Y-116456362D01*
X180912184Y-116203085D01*
X181165461Y-115824028D01*
X181254400Y-115376901D01*
X181254400Y-114747099D01*
X181248199Y-114715922D01*
X181392617Y-114715922D01*
X181487366Y-114909600D01*
X182473600Y-114909600D01*
X182473600Y-113655621D01*
X182778400Y-113655621D01*
X182778400Y-114909600D01*
X183764634Y-114909600D01*
X183859383Y-114715922D01*
X183742660Y-114248469D01*
X183455935Y-113861267D01*
X183042860Y-113613264D01*
X182965753Y-113604696D01*
X182778400Y-113655621D01*
X182473600Y-113655621D01*
X182286247Y-113604696D01*
X182209140Y-113613264D01*
X181796065Y-113861267D01*
X181509340Y-114248469D01*
X181392617Y-114715922D01*
X181248199Y-114715922D01*
X181165461Y-114299972D01*
X180912184Y-113920915D01*
X180533127Y-113667638D01*
X180086000Y-113578699D01*
X179638873Y-113667638D01*
X179259816Y-113920915D01*
X179006539Y-114299972D01*
X178917600Y-114747099D01*
X178917600Y-115376901D01*
X179006539Y-115824028D01*
X179259816Y-116203085D01*
X179638873Y-116456362D01*
X179658168Y-116460200D01*
X177973832Y-116460200D01*
X177993127Y-116456362D01*
X178372184Y-116203085D01*
X178625461Y-115824028D01*
X178714400Y-115376901D01*
X178714400Y-114747099D01*
X178625461Y-114299972D01*
X178372184Y-113920915D01*
X177993127Y-113667638D01*
X177546000Y-113578699D01*
X177098873Y-113667638D01*
X176719816Y-113920915D01*
X176466539Y-114299972D01*
X176377600Y-114747099D01*
X176377600Y-115376901D01*
X176466539Y-115824028D01*
X176719816Y-116203085D01*
X177098873Y-116456362D01*
X177118168Y-116460200D01*
X175433832Y-116460200D01*
X175453127Y-116456362D01*
X175832184Y-116203085D01*
X176085461Y-115824028D01*
X176174400Y-115376901D01*
X176174400Y-114747099D01*
X176085461Y-114299972D01*
X175832184Y-113920915D01*
X175453127Y-113667638D01*
X175412400Y-113659537D01*
X175412400Y-112436336D01*
X175809336Y-112039400D01*
X181356000Y-112039400D01*
X181511523Y-112008465D01*
X181643368Y-111920368D01*
X182278368Y-111285368D01*
X182366465Y-111153523D01*
X182397400Y-110998000D01*
X182397400Y-110236000D01*
X182366465Y-110080477D01*
X182278368Y-109948632D01*
X182062399Y-109732663D01*
X182062399Y-108630999D01*
X182031464Y-108475476D01*
X181960767Y-108369671D01*
X181960905Y-108211226D01*
X181869024Y-107988856D01*
X181699039Y-107818574D01*
X181476830Y-107726305D01*
X181236226Y-107726095D01*
X181013856Y-107817976D01*
X180843574Y-107987961D01*
X180751305Y-108210170D01*
X180751095Y-108450774D01*
X180842976Y-108673144D01*
X181012961Y-108843426D01*
X181235170Y-108935695D01*
X181249599Y-108935708D01*
X181249599Y-109900999D01*
X181280534Y-110056522D01*
X181335766Y-110139182D01*
X181325909Y-110139173D01*
X180746400Y-109559664D01*
X180746400Y-105604880D01*
X180852426Y-105499039D01*
X180894933Y-105396669D01*
X180941632Y-105443368D01*
X181073477Y-105531465D01*
X181229000Y-105562400D01*
X184717120Y-105562400D01*
X184822961Y-105668426D01*
X185045170Y-105760695D01*
X185285774Y-105760905D01*
X185508144Y-105669024D01*
X185678426Y-105499039D01*
X185770695Y-105276830D01*
X185770905Y-105036226D01*
X185679024Y-104813856D01*
X185509039Y-104643574D01*
X185286830Y-104551305D01*
X185046226Y-104551095D01*
X184823856Y-104642976D01*
X184717046Y-104749600D01*
X181397336Y-104749600D01*
X180881368Y-104233632D01*
X180749523Y-104145535D01*
X180594000Y-104114600D01*
X179959000Y-104114600D01*
X179803477Y-104145535D01*
X179671631Y-104233632D01*
X179163632Y-104741632D01*
X179155664Y-104749600D01*
X178054000Y-104749600D01*
X177898477Y-104780535D01*
X177766631Y-104868632D01*
X177258632Y-105376632D01*
X177170535Y-105508477D01*
X177139600Y-105664000D01*
X177139600Y-110295120D01*
X177033574Y-110400961D01*
X176941305Y-110623170D01*
X176941095Y-110863774D01*
X177032976Y-111086144D01*
X177173187Y-111226600D01*
X175641000Y-111226600D01*
X175485477Y-111257535D01*
X175353632Y-111345632D01*
X174718632Y-111980632D01*
X174630535Y-112112477D01*
X174599600Y-112268000D01*
X174599600Y-113659537D01*
X174558873Y-113667638D01*
X174179816Y-113920915D01*
X173926539Y-114299972D01*
X173837600Y-114747099D01*
X173837600Y-115376901D01*
X173926539Y-115824028D01*
X174179816Y-116203085D01*
X174558873Y-116456362D01*
X174578168Y-116460200D01*
X171575800Y-116460200D01*
X171575800Y-98169800D01*
X186310200Y-98169800D01*
X186310200Y-116460200D01*
G36*
X168276200Y-116460200D02*
X165093033Y-116460200D01*
X165421935Y-116262733D01*
X165708660Y-115875531D01*
X165825383Y-115408078D01*
X165730634Y-115214400D01*
X164744400Y-115214400D01*
X164744400Y-115234400D01*
X164439600Y-115234400D01*
X164439600Y-115214400D01*
X163453366Y-115214400D01*
X163358617Y-115408078D01*
X163475340Y-115875531D01*
X163762065Y-116262733D01*
X164090967Y-116460200D01*
X162479832Y-116460200D01*
X162499127Y-116456362D01*
X162878184Y-116203085D01*
X163131461Y-115824028D01*
X163220400Y-115376901D01*
X163220400Y-114747099D01*
X163214199Y-114715922D01*
X163358617Y-114715922D01*
X163453366Y-114909600D01*
X164439600Y-114909600D01*
X164439600Y-113655621D01*
X164744400Y-113655621D01*
X164744400Y-114909600D01*
X165730634Y-114909600D01*
X165825383Y-114715922D01*
X165708660Y-114248469D01*
X165421935Y-113861267D01*
X165008860Y-113613264D01*
X164931753Y-113604696D01*
X164744400Y-113655621D01*
X164439600Y-113655621D01*
X164252247Y-113604696D01*
X164175140Y-113613264D01*
X163762065Y-113861267D01*
X163475340Y-114248469D01*
X163358617Y-114715922D01*
X163214199Y-114715922D01*
X163131461Y-114299972D01*
X162878184Y-113920915D01*
X162499127Y-113667638D01*
X162052000Y-113578699D01*
X161604873Y-113667638D01*
X161225816Y-113920915D01*
X160972539Y-114299972D01*
X160883600Y-114747099D01*
X160883600Y-115376901D01*
X160972539Y-115824028D01*
X161225816Y-116203085D01*
X161604873Y-116456362D01*
X161624168Y-116460200D01*
X159939832Y-116460200D01*
X159959127Y-116456362D01*
X160338184Y-116203085D01*
X160591461Y-115824028D01*
X160680400Y-115376901D01*
X160680400Y-114747099D01*
X160591461Y-114299972D01*
X160338184Y-113920915D01*
X159959127Y-113667638D01*
X159512000Y-113578699D01*
X159064873Y-113667638D01*
X158685816Y-113920915D01*
X158432539Y-114299972D01*
X158343600Y-114747099D01*
X158343600Y-115376901D01*
X158432539Y-115824028D01*
X158685816Y-116203085D01*
X159064873Y-116456362D01*
X159084168Y-116460200D01*
X157399832Y-116460200D01*
X157419127Y-116456362D01*
X157798184Y-116203085D01*
X158051461Y-115824028D01*
X158140400Y-115376901D01*
X158140400Y-114747099D01*
X158051461Y-114299972D01*
X157798184Y-113920915D01*
X157419127Y-113667638D01*
X157378400Y-113659537D01*
X157378400Y-112436336D01*
X157775336Y-112039400D01*
X163322000Y-112039400D01*
X163477523Y-112008465D01*
X163609368Y-111920368D01*
X164244368Y-111285368D01*
X164332465Y-111153523D01*
X164363400Y-110998000D01*
X164363400Y-110236000D01*
X164332465Y-110080477D01*
X164244368Y-109948632D01*
X164028399Y-109732663D01*
X164028399Y-108630999D01*
X163997464Y-108475476D01*
X163926767Y-108369671D01*
X163926905Y-108211226D01*
X163835024Y-107988856D01*
X163665039Y-107818574D01*
X163442830Y-107726305D01*
X163202226Y-107726095D01*
X162979856Y-107817976D01*
X162809574Y-107987961D01*
X162717305Y-108210170D01*
X162717095Y-108450774D01*
X162808976Y-108673144D01*
X162978961Y-108843426D01*
X163201170Y-108935695D01*
X163215599Y-108935708D01*
X163215599Y-109900999D01*
X163246534Y-110056522D01*
X163301766Y-110139182D01*
X163291909Y-110139173D01*
X162712400Y-109559664D01*
X162712400Y-105604880D01*
X162818426Y-105499039D01*
X162860933Y-105396669D01*
X162907632Y-105443368D01*
X163039477Y-105531465D01*
X163195000Y-105562400D01*
X166683120Y-105562400D01*
X166788961Y-105668426D01*
X167011170Y-105760695D01*
X167251774Y-105760905D01*
X167474144Y-105669024D01*
X167644426Y-105499039D01*
X167736695Y-105276830D01*
X167736905Y-105036226D01*
X167645024Y-104813856D01*
X167475039Y-104643574D01*
X167252830Y-104551305D01*
X167012226Y-104551095D01*
X166789856Y-104642976D01*
X166683046Y-104749600D01*
X163363336Y-104749600D01*
X162847368Y-104233632D01*
X162715523Y-104145535D01*
X162560000Y-104114600D01*
X161925000Y-104114600D01*
X161769477Y-104145535D01*
X161637631Y-104233632D01*
X161129632Y-104741632D01*
X161121664Y-104749600D01*
X160020000Y-104749600D01*
X159864477Y-104780535D01*
X159732631Y-104868632D01*
X159224632Y-105376632D01*
X159136535Y-105508477D01*
X159105600Y-105664000D01*
X159105600Y-110295120D01*
X158999574Y-110400961D01*
X158907305Y-110623170D01*
X158907095Y-110863774D01*
X158998976Y-111086144D01*
X159139187Y-111226600D01*
X157607000Y-111226600D01*
X157451477Y-111257535D01*
X157319632Y-111345632D01*
X156684632Y-111980632D01*
X156596535Y-112112477D01*
X156565600Y-112268000D01*
X156565600Y-113659537D01*
X156524873Y-113667638D01*
X156145816Y-113920915D01*
X155892539Y-114299972D01*
X155803600Y-114747099D01*
X155803600Y-115376901D01*
X155892539Y-115824028D01*
X156145816Y-116203085D01*
X156524873Y-116456362D01*
X156544168Y-116460200D01*
X153541800Y-116460200D01*
X153541800Y-98169800D01*
X168276200Y-98169800D01*
X168276200Y-116460200D01*
X168276200Y-116460200D01*
G37*
X168276200Y-116460200D02*
X165093033Y-116460200D01*
X165421935Y-116262733D01*
X165708660Y-115875531D01*
X165825383Y-115408078D01*
X165730634Y-115214400D01*
X164744400Y-115214400D01*
X164744400Y-115234400D01*
X164439600Y-115234400D01*
X164439600Y-115214400D01*
X163453366Y-115214400D01*
X163358617Y-115408078D01*
X163475340Y-115875531D01*
X163762065Y-116262733D01*
X164090967Y-116460200D01*
X162479832Y-116460200D01*
X162499127Y-116456362D01*
X162878184Y-116203085D01*
X163131461Y-115824028D01*
X163220400Y-115376901D01*
X163220400Y-114747099D01*
X163214199Y-114715922D01*
X163358617Y-114715922D01*
X163453366Y-114909600D01*
X164439600Y-114909600D01*
X164439600Y-113655621D01*
X164744400Y-113655621D01*
X164744400Y-114909600D01*
X165730634Y-114909600D01*
X165825383Y-114715922D01*
X165708660Y-114248469D01*
X165421935Y-113861267D01*
X165008860Y-113613264D01*
X164931753Y-113604696D01*
X164744400Y-113655621D01*
X164439600Y-113655621D01*
X164252247Y-113604696D01*
X164175140Y-113613264D01*
X163762065Y-113861267D01*
X163475340Y-114248469D01*
X163358617Y-114715922D01*
X163214199Y-114715922D01*
X163131461Y-114299972D01*
X162878184Y-113920915D01*
X162499127Y-113667638D01*
X162052000Y-113578699D01*
X161604873Y-113667638D01*
X161225816Y-113920915D01*
X160972539Y-114299972D01*
X160883600Y-114747099D01*
X160883600Y-115376901D01*
X160972539Y-115824028D01*
X161225816Y-116203085D01*
X161604873Y-116456362D01*
X161624168Y-116460200D01*
X159939832Y-116460200D01*
X159959127Y-116456362D01*
X160338184Y-116203085D01*
X160591461Y-115824028D01*
X160680400Y-115376901D01*
X160680400Y-114747099D01*
X160591461Y-114299972D01*
X160338184Y-113920915D01*
X159959127Y-113667638D01*
X159512000Y-113578699D01*
X159064873Y-113667638D01*
X158685816Y-113920915D01*
X158432539Y-114299972D01*
X158343600Y-114747099D01*
X158343600Y-115376901D01*
X158432539Y-115824028D01*
X158685816Y-116203085D01*
X159064873Y-116456362D01*
X159084168Y-116460200D01*
X157399832Y-116460200D01*
X157419127Y-116456362D01*
X157798184Y-116203085D01*
X158051461Y-115824028D01*
X158140400Y-115376901D01*
X158140400Y-114747099D01*
X158051461Y-114299972D01*
X157798184Y-113920915D01*
X157419127Y-113667638D01*
X157378400Y-113659537D01*
X157378400Y-112436336D01*
X157775336Y-112039400D01*
X163322000Y-112039400D01*
X163477523Y-112008465D01*
X163609368Y-111920368D01*
X164244368Y-111285368D01*
X164332465Y-111153523D01*
X164363400Y-110998000D01*
X164363400Y-110236000D01*
X164332465Y-110080477D01*
X164244368Y-109948632D01*
X164028399Y-109732663D01*
X164028399Y-108630999D01*
X163997464Y-108475476D01*
X163926767Y-108369671D01*
X163926905Y-108211226D01*
X163835024Y-107988856D01*
X163665039Y-107818574D01*
X163442830Y-107726305D01*
X163202226Y-107726095D01*
X162979856Y-107817976D01*
X162809574Y-107987961D01*
X162717305Y-108210170D01*
X162717095Y-108450774D01*
X162808976Y-108673144D01*
X162978961Y-108843426D01*
X163201170Y-108935695D01*
X163215599Y-108935708D01*
X163215599Y-109900999D01*
X163246534Y-110056522D01*
X163301766Y-110139182D01*
X163291909Y-110139173D01*
X162712400Y-109559664D01*
X162712400Y-105604880D01*
X162818426Y-105499039D01*
X162860933Y-105396669D01*
X162907632Y-105443368D01*
X163039477Y-105531465D01*
X163195000Y-105562400D01*
X166683120Y-105562400D01*
X166788961Y-105668426D01*
X167011170Y-105760695D01*
X167251774Y-105760905D01*
X167474144Y-105669024D01*
X167644426Y-105499039D01*
X167736695Y-105276830D01*
X167736905Y-105036226D01*
X167645024Y-104813856D01*
X167475039Y-104643574D01*
X167252830Y-104551305D01*
X167012226Y-104551095D01*
X166789856Y-104642976D01*
X166683046Y-104749600D01*
X163363336Y-104749600D01*
X162847368Y-104233632D01*
X162715523Y-104145535D01*
X162560000Y-104114600D01*
X161925000Y-104114600D01*
X161769477Y-104145535D01*
X161637631Y-104233632D01*
X161129632Y-104741632D01*
X161121664Y-104749600D01*
X160020000Y-104749600D01*
X159864477Y-104780535D01*
X159732631Y-104868632D01*
X159224632Y-105376632D01*
X159136535Y-105508477D01*
X159105600Y-105664000D01*
X159105600Y-110295120D01*
X158999574Y-110400961D01*
X158907305Y-110623170D01*
X158907095Y-110863774D01*
X158998976Y-111086144D01*
X159139187Y-111226600D01*
X157607000Y-111226600D01*
X157451477Y-111257535D01*
X157319632Y-111345632D01*
X156684632Y-111980632D01*
X156596535Y-112112477D01*
X156565600Y-112268000D01*
X156565600Y-113659537D01*
X156524873Y-113667638D01*
X156145816Y-113920915D01*
X155892539Y-114299972D01*
X155803600Y-114747099D01*
X155803600Y-115376901D01*
X155892539Y-115824028D01*
X156145816Y-116203085D01*
X156524873Y-116456362D01*
X156544168Y-116460200D01*
X153541800Y-116460200D01*
X153541800Y-98169800D01*
X168276200Y-98169800D01*
X168276200Y-116460200D01*
G36*
X186310200Y-94870200D02*
X183127033Y-94870200D01*
X183455935Y-94672733D01*
X183742660Y-94285531D01*
X183859383Y-93818078D01*
X183764634Y-93624400D01*
X182778400Y-93624400D01*
X182778400Y-93644400D01*
X182473600Y-93644400D01*
X182473600Y-93624400D01*
X181487366Y-93624400D01*
X181392617Y-93818078D01*
X181509340Y-94285531D01*
X181796065Y-94672733D01*
X182124967Y-94870200D01*
X180513832Y-94870200D01*
X180533127Y-94866362D01*
X180912184Y-94613085D01*
X181165461Y-94234028D01*
X181254400Y-93786901D01*
X181254400Y-93157099D01*
X181248199Y-93125922D01*
X181392617Y-93125922D01*
X181487366Y-93319600D01*
X182473600Y-93319600D01*
X182473600Y-92065621D01*
X182778400Y-92065621D01*
X182778400Y-93319600D01*
X183764634Y-93319600D01*
X183859383Y-93125922D01*
X183742660Y-92658469D01*
X183455935Y-92271267D01*
X183042860Y-92023264D01*
X182965753Y-92014696D01*
X182778400Y-92065621D01*
X182473600Y-92065621D01*
X182286247Y-92014696D01*
X182209140Y-92023264D01*
X181796065Y-92271267D01*
X181509340Y-92658469D01*
X181392617Y-93125922D01*
X181248199Y-93125922D01*
X181165461Y-92709972D01*
X180912184Y-92330915D01*
X180533127Y-92077638D01*
X180086000Y-91988699D01*
X179638873Y-92077638D01*
X179259816Y-92330915D01*
X179006539Y-92709972D01*
X178917600Y-93157099D01*
X178917600Y-93786901D01*
X179006539Y-94234028D01*
X179259816Y-94613085D01*
X179638873Y-94866362D01*
X179658168Y-94870200D01*
X177973832Y-94870200D01*
X177993127Y-94866362D01*
X178372184Y-94613085D01*
X178625461Y-94234028D01*
X178714400Y-93786901D01*
X178714400Y-93157099D01*
X178625461Y-92709972D01*
X178372184Y-92330915D01*
X177993127Y-92077638D01*
X177546000Y-91988699D01*
X177098873Y-92077638D01*
X176719816Y-92330915D01*
X176466539Y-92709972D01*
X176377600Y-93157099D01*
X176377600Y-93786901D01*
X176466539Y-94234028D01*
X176719816Y-94613085D01*
X177098873Y-94866362D01*
X177118168Y-94870200D01*
X175433832Y-94870200D01*
X175453127Y-94866362D01*
X175832184Y-94613085D01*
X176085461Y-94234028D01*
X176174400Y-93786901D01*
X176174400Y-93157099D01*
X176085461Y-92709972D01*
X175832184Y-92330915D01*
X175453127Y-92077638D01*
X175412400Y-92069537D01*
X175412400Y-90846336D01*
X175809336Y-90449400D01*
X181356000Y-90449400D01*
X181511523Y-90418465D01*
X181643368Y-90330368D01*
X182278368Y-89695368D01*
X182366465Y-89563523D01*
X182397400Y-89408000D01*
X182397400Y-88646000D01*
X182366465Y-88490477D01*
X182278368Y-88358632D01*
X182062399Y-88142663D01*
X182062399Y-87040999D01*
X182031464Y-86885476D01*
X181960767Y-86779671D01*
X181960905Y-86621226D01*
X181869024Y-86398856D01*
X181699039Y-86228574D01*
X181476830Y-86136305D01*
X181236226Y-86136095D01*
X181013856Y-86227976D01*
X180843574Y-86397961D01*
X180751305Y-86620170D01*
X180751095Y-86860774D01*
X180842976Y-87083144D01*
X181012961Y-87253426D01*
X181235170Y-87345695D01*
X181249599Y-87345708D01*
X181249599Y-88310999D01*
X181280534Y-88466522D01*
X181335766Y-88549182D01*
X181325909Y-88549173D01*
X180746400Y-87969664D01*
X180746400Y-84014880D01*
X180852426Y-83909039D01*
X180894933Y-83806669D01*
X180941632Y-83853368D01*
X181073477Y-83941465D01*
X181229000Y-83972400D01*
X184717120Y-83972400D01*
X184822961Y-84078426D01*
X185045170Y-84170695D01*
X185285774Y-84170905D01*
X185508144Y-84079024D01*
X185678426Y-83909039D01*
X185770695Y-83686830D01*
X185770905Y-83446226D01*
X185679024Y-83223856D01*
X185509039Y-83053574D01*
X185286830Y-82961305D01*
X185046226Y-82961095D01*
X184823856Y-83052976D01*
X184717046Y-83159600D01*
X181397336Y-83159600D01*
X180881368Y-82643632D01*
X180749523Y-82555535D01*
X180594000Y-82524600D01*
X179959000Y-82524600D01*
X179803477Y-82555535D01*
X179671631Y-82643632D01*
X179163632Y-83151632D01*
X179155664Y-83159600D01*
X178054000Y-83159600D01*
X177898477Y-83190535D01*
X177766631Y-83278632D01*
X177258632Y-83786632D01*
X177170535Y-83918477D01*
X177139600Y-84074000D01*
X177139600Y-88705120D01*
X177033574Y-88810961D01*
X176941305Y-89033170D01*
X176941095Y-89273774D01*
X177032976Y-89496144D01*
X177173187Y-89636600D01*
X175641000Y-89636600D01*
X175485477Y-89667535D01*
X175353632Y-89755632D01*
X174718632Y-90390632D01*
X174630535Y-90522477D01*
X174599600Y-90678000D01*
X174599600Y-92069537D01*
X174558873Y-92077638D01*
X174179816Y-92330915D01*
X173926539Y-92709972D01*
X173837600Y-93157099D01*
X173837600Y-93786901D01*
X173926539Y-94234028D01*
X174179816Y-94613085D01*
X174558873Y-94866362D01*
X174578168Y-94870200D01*
X171575800Y-94870200D01*
X171575800Y-76579800D01*
X186310200Y-76579800D01*
X186310200Y-94870200D01*
X186310200Y-94870200D01*
G37*
X186310200Y-94870200D02*
X183127033Y-94870200D01*
X183455935Y-94672733D01*
X183742660Y-94285531D01*
X183859383Y-93818078D01*
X183764634Y-93624400D01*
X182778400Y-93624400D01*
X182778400Y-93644400D01*
X182473600Y-93644400D01*
X182473600Y-93624400D01*
X181487366Y-93624400D01*
X181392617Y-93818078D01*
X181509340Y-94285531D01*
X181796065Y-94672733D01*
X182124967Y-94870200D01*
X180513832Y-94870200D01*
X180533127Y-94866362D01*
X180912184Y-94613085D01*
X181165461Y-94234028D01*
X181254400Y-93786901D01*
X181254400Y-93157099D01*
X181248199Y-93125922D01*
X181392617Y-93125922D01*
X181487366Y-93319600D01*
X182473600Y-93319600D01*
X182473600Y-92065621D01*
X182778400Y-92065621D01*
X182778400Y-93319600D01*
X183764634Y-93319600D01*
X183859383Y-93125922D01*
X183742660Y-92658469D01*
X183455935Y-92271267D01*
X183042860Y-92023264D01*
X182965753Y-92014696D01*
X182778400Y-92065621D01*
X182473600Y-92065621D01*
X182286247Y-92014696D01*
X182209140Y-92023264D01*
X181796065Y-92271267D01*
X181509340Y-92658469D01*
X181392617Y-93125922D01*
X181248199Y-93125922D01*
X181165461Y-92709972D01*
X180912184Y-92330915D01*
X180533127Y-92077638D01*
X180086000Y-91988699D01*
X179638873Y-92077638D01*
X179259816Y-92330915D01*
X179006539Y-92709972D01*
X178917600Y-93157099D01*
X178917600Y-93786901D01*
X179006539Y-94234028D01*
X179259816Y-94613085D01*
X179638873Y-94866362D01*
X179658168Y-94870200D01*
X177973832Y-94870200D01*
X177993127Y-94866362D01*
X178372184Y-94613085D01*
X178625461Y-94234028D01*
X178714400Y-93786901D01*
X178714400Y-93157099D01*
X178625461Y-92709972D01*
X178372184Y-92330915D01*
X177993127Y-92077638D01*
X177546000Y-91988699D01*
X177098873Y-92077638D01*
X176719816Y-92330915D01*
X176466539Y-92709972D01*
X176377600Y-93157099D01*
X176377600Y-93786901D01*
X176466539Y-94234028D01*
X176719816Y-94613085D01*
X177098873Y-94866362D01*
X177118168Y-94870200D01*
X175433832Y-94870200D01*
X175453127Y-94866362D01*
X175832184Y-94613085D01*
X176085461Y-94234028D01*
X176174400Y-93786901D01*
X176174400Y-93157099D01*
X176085461Y-92709972D01*
X175832184Y-92330915D01*
X175453127Y-92077638D01*
X175412400Y-92069537D01*
X175412400Y-90846336D01*
X175809336Y-90449400D01*
X181356000Y-90449400D01*
X181511523Y-90418465D01*
X181643368Y-90330368D01*
X182278368Y-89695368D01*
X182366465Y-89563523D01*
X182397400Y-89408000D01*
X182397400Y-88646000D01*
X182366465Y-88490477D01*
X182278368Y-88358632D01*
X182062399Y-88142663D01*
X182062399Y-87040999D01*
X182031464Y-86885476D01*
X181960767Y-86779671D01*
X181960905Y-86621226D01*
X181869024Y-86398856D01*
X181699039Y-86228574D01*
X181476830Y-86136305D01*
X181236226Y-86136095D01*
X181013856Y-86227976D01*
X180843574Y-86397961D01*
X180751305Y-86620170D01*
X180751095Y-86860774D01*
X180842976Y-87083144D01*
X181012961Y-87253426D01*
X181235170Y-87345695D01*
X181249599Y-87345708D01*
X181249599Y-88310999D01*
X181280534Y-88466522D01*
X181335766Y-88549182D01*
X181325909Y-88549173D01*
X180746400Y-87969664D01*
X180746400Y-84014880D01*
X180852426Y-83909039D01*
X180894933Y-83806669D01*
X180941632Y-83853368D01*
X181073477Y-83941465D01*
X181229000Y-83972400D01*
X184717120Y-83972400D01*
X184822961Y-84078426D01*
X185045170Y-84170695D01*
X185285774Y-84170905D01*
X185508144Y-84079024D01*
X185678426Y-83909039D01*
X185770695Y-83686830D01*
X185770905Y-83446226D01*
X185679024Y-83223856D01*
X185509039Y-83053574D01*
X185286830Y-82961305D01*
X185046226Y-82961095D01*
X184823856Y-83052976D01*
X184717046Y-83159600D01*
X181397336Y-83159600D01*
X180881368Y-82643632D01*
X180749523Y-82555535D01*
X180594000Y-82524600D01*
X179959000Y-82524600D01*
X179803477Y-82555535D01*
X179671631Y-82643632D01*
X179163632Y-83151632D01*
X179155664Y-83159600D01*
X178054000Y-83159600D01*
X177898477Y-83190535D01*
X177766631Y-83278632D01*
X177258632Y-83786632D01*
X177170535Y-83918477D01*
X177139600Y-84074000D01*
X177139600Y-88705120D01*
X177033574Y-88810961D01*
X176941305Y-89033170D01*
X176941095Y-89273774D01*
X177032976Y-89496144D01*
X177173187Y-89636600D01*
X175641000Y-89636600D01*
X175485477Y-89667535D01*
X175353632Y-89755632D01*
X174718632Y-90390632D01*
X174630535Y-90522477D01*
X174599600Y-90678000D01*
X174599600Y-92069537D01*
X174558873Y-92077638D01*
X174179816Y-92330915D01*
X173926539Y-92709972D01*
X173837600Y-93157099D01*
X173837600Y-93786901D01*
X173926539Y-94234028D01*
X174179816Y-94613085D01*
X174558873Y-94866362D01*
X174578168Y-94870200D01*
X171575800Y-94870200D01*
X171575800Y-76579800D01*
X186310200Y-76579800D01*
X186310200Y-94870200D01*
G36*
X168276200Y-94870200D02*
X165093033Y-94870200D01*
X165421935Y-94672733D01*
X165708660Y-94285531D01*
X165825383Y-93818078D01*
X165730634Y-93624400D01*
X164744400Y-93624400D01*
X164744400Y-93644400D01*
X164439600Y-93644400D01*
X164439600Y-93624400D01*
X163453366Y-93624400D01*
X163358617Y-93818078D01*
X163475340Y-94285531D01*
X163762065Y-94672733D01*
X164090967Y-94870200D01*
X162479832Y-94870200D01*
X162499127Y-94866362D01*
X162878184Y-94613085D01*
X163131461Y-94234028D01*
X163220400Y-93786901D01*
X163220400Y-93157099D01*
X163214199Y-93125922D01*
X163358617Y-93125922D01*
X163453366Y-93319600D01*
X164439600Y-93319600D01*
X164439600Y-92065621D01*
X164744400Y-92065621D01*
X164744400Y-93319600D01*
X165730634Y-93319600D01*
X165825383Y-93125922D01*
X165708660Y-92658469D01*
X165421935Y-92271267D01*
X165008860Y-92023264D01*
X164931753Y-92014696D01*
X164744400Y-92065621D01*
X164439600Y-92065621D01*
X164252247Y-92014696D01*
X164175140Y-92023264D01*
X163762065Y-92271267D01*
X163475340Y-92658469D01*
X163358617Y-93125922D01*
X163214199Y-93125922D01*
X163131461Y-92709972D01*
X162878184Y-92330915D01*
X162499127Y-92077638D01*
X162052000Y-91988699D01*
X161604873Y-92077638D01*
X161225816Y-92330915D01*
X160972539Y-92709972D01*
X160883600Y-93157099D01*
X160883600Y-93786901D01*
X160972539Y-94234028D01*
X161225816Y-94613085D01*
X161604873Y-94866362D01*
X161624168Y-94870200D01*
X159939832Y-94870200D01*
X159959127Y-94866362D01*
X160338184Y-94613085D01*
X160591461Y-94234028D01*
X160680400Y-93786901D01*
X160680400Y-93157099D01*
X160591461Y-92709972D01*
X160338184Y-92330915D01*
X159959127Y-92077638D01*
X159512000Y-91988699D01*
X159064873Y-92077638D01*
X158685816Y-92330915D01*
X158432539Y-92709972D01*
X158343600Y-93157099D01*
X158343600Y-93786901D01*
X158432539Y-94234028D01*
X158685816Y-94613085D01*
X159064873Y-94866362D01*
X159084168Y-94870200D01*
X157399832Y-94870200D01*
X157419127Y-94866362D01*
X157798184Y-94613085D01*
X158051461Y-94234028D01*
X158140400Y-93786901D01*
X158140400Y-93157099D01*
X158051461Y-92709972D01*
X157798184Y-92330915D01*
X157419127Y-92077638D01*
X157378400Y-92069537D01*
X157378400Y-90846336D01*
X157775336Y-90449400D01*
X163322000Y-90449400D01*
X163477523Y-90418465D01*
X163609368Y-90330368D01*
X164244368Y-89695368D01*
X164332465Y-89563523D01*
X164363400Y-89408000D01*
X164363400Y-88646000D01*
X164332465Y-88490477D01*
X164244368Y-88358632D01*
X164028399Y-88142663D01*
X164028399Y-87040999D01*
X163997464Y-86885476D01*
X163926767Y-86779671D01*
X163926905Y-86621226D01*
X163835024Y-86398856D01*
X163665039Y-86228574D01*
X163442830Y-86136305D01*
X163202226Y-86136095D01*
X162979856Y-86227976D01*
X162809574Y-86397961D01*
X162717305Y-86620170D01*
X162717095Y-86860774D01*
X162808976Y-87083144D01*
X162978961Y-87253426D01*
X163201170Y-87345695D01*
X163215599Y-87345708D01*
X163215599Y-88310999D01*
X163246534Y-88466522D01*
X163301766Y-88549182D01*
X163291909Y-88549173D01*
X162712400Y-87969664D01*
X162712400Y-84014880D01*
X162818426Y-83909039D01*
X162860933Y-83806669D01*
X162907632Y-83853368D01*
X163039477Y-83941465D01*
X163195000Y-83972400D01*
X166683120Y-83972400D01*
X166788961Y-84078426D01*
X167011170Y-84170695D01*
X167251774Y-84170905D01*
X167474144Y-84079024D01*
X167644426Y-83909039D01*
X167736695Y-83686830D01*
X167736905Y-83446226D01*
X167645024Y-83223856D01*
X167475039Y-83053574D01*
X167252830Y-82961305D01*
X167012226Y-82961095D01*
X166789856Y-83052976D01*
X166683046Y-83159600D01*
X163363336Y-83159600D01*
X162847368Y-82643632D01*
X162715523Y-82555535D01*
X162560000Y-82524600D01*
X161925000Y-82524600D01*
X161769477Y-82555535D01*
X161637631Y-82643632D01*
X161129632Y-83151632D01*
X161121664Y-83159600D01*
X160020000Y-83159600D01*
X159864477Y-83190535D01*
X159732631Y-83278632D01*
X159224632Y-83786632D01*
X159136535Y-83918477D01*
X159105600Y-84074000D01*
X159105600Y-88705120D01*
X158999574Y-88810961D01*
X158907305Y-89033170D01*
X158907095Y-89273774D01*
X158998976Y-89496144D01*
X159139187Y-89636600D01*
X157607000Y-89636600D01*
X157451477Y-89667535D01*
X157319632Y-89755632D01*
X156684632Y-90390632D01*
X156596535Y-90522477D01*
X156565600Y-90678000D01*
X156565600Y-92069537D01*
X156524873Y-92077638D01*
X156145816Y-92330915D01*
X155892539Y-92709972D01*
X155803600Y-93157099D01*
X155803600Y-93786901D01*
X155892539Y-94234028D01*
X156145816Y-94613085D01*
X156524873Y-94866362D01*
X156544168Y-94870200D01*
X153541800Y-94870200D01*
X153541800Y-76579800D01*
X168276200Y-76579800D01*
X168276200Y-94870200D01*
X168276200Y-94870200D01*
G37*
X168276200Y-94870200D02*
X165093033Y-94870200D01*
X165421935Y-94672733D01*
X165708660Y-94285531D01*
X165825383Y-93818078D01*
X165730634Y-93624400D01*
X164744400Y-93624400D01*
X164744400Y-93644400D01*
X164439600Y-93644400D01*
X164439600Y-93624400D01*
X163453366Y-93624400D01*
X163358617Y-93818078D01*
X163475340Y-94285531D01*
X163762065Y-94672733D01*
X164090967Y-94870200D01*
X162479832Y-94870200D01*
X162499127Y-94866362D01*
X162878184Y-94613085D01*
X163131461Y-94234028D01*
X163220400Y-93786901D01*
X163220400Y-93157099D01*
X163214199Y-93125922D01*
X163358617Y-93125922D01*
X163453366Y-93319600D01*
X164439600Y-93319600D01*
X164439600Y-92065621D01*
X164744400Y-92065621D01*
X164744400Y-93319600D01*
X165730634Y-93319600D01*
X165825383Y-93125922D01*
X165708660Y-92658469D01*
X165421935Y-92271267D01*
X165008860Y-92023264D01*
X164931753Y-92014696D01*
X164744400Y-92065621D01*
X164439600Y-92065621D01*
X164252247Y-92014696D01*
X164175140Y-92023264D01*
X163762065Y-92271267D01*
X163475340Y-92658469D01*
X163358617Y-93125922D01*
X163214199Y-93125922D01*
X163131461Y-92709972D01*
X162878184Y-92330915D01*
X162499127Y-92077638D01*
X162052000Y-91988699D01*
X161604873Y-92077638D01*
X161225816Y-92330915D01*
X160972539Y-92709972D01*
X160883600Y-93157099D01*
X160883600Y-93786901D01*
X160972539Y-94234028D01*
X161225816Y-94613085D01*
X161604873Y-94866362D01*
X161624168Y-94870200D01*
X159939832Y-94870200D01*
X159959127Y-94866362D01*
X160338184Y-94613085D01*
X160591461Y-94234028D01*
X160680400Y-93786901D01*
X160680400Y-93157099D01*
X160591461Y-92709972D01*
X160338184Y-92330915D01*
X159959127Y-92077638D01*
X159512000Y-91988699D01*
X159064873Y-92077638D01*
X158685816Y-92330915D01*
X158432539Y-92709972D01*
X158343600Y-93157099D01*
X158343600Y-93786901D01*
X158432539Y-94234028D01*
X158685816Y-94613085D01*
X159064873Y-94866362D01*
X159084168Y-94870200D01*
X157399832Y-94870200D01*
X157419127Y-94866362D01*
X157798184Y-94613085D01*
X158051461Y-94234028D01*
X158140400Y-93786901D01*
X158140400Y-93157099D01*
X158051461Y-92709972D01*
X157798184Y-92330915D01*
X157419127Y-92077638D01*
X157378400Y-92069537D01*
X157378400Y-90846336D01*
X157775336Y-90449400D01*
X163322000Y-90449400D01*
X163477523Y-90418465D01*
X163609368Y-90330368D01*
X164244368Y-89695368D01*
X164332465Y-89563523D01*
X164363400Y-89408000D01*
X164363400Y-88646000D01*
X164332465Y-88490477D01*
X164244368Y-88358632D01*
X164028399Y-88142663D01*
X164028399Y-87040999D01*
X163997464Y-86885476D01*
X163926767Y-86779671D01*
X163926905Y-86621226D01*
X163835024Y-86398856D01*
X163665039Y-86228574D01*
X163442830Y-86136305D01*
X163202226Y-86136095D01*
X162979856Y-86227976D01*
X162809574Y-86397961D01*
X162717305Y-86620170D01*
X162717095Y-86860774D01*
X162808976Y-87083144D01*
X162978961Y-87253426D01*
X163201170Y-87345695D01*
X163215599Y-87345708D01*
X163215599Y-88310999D01*
X163246534Y-88466522D01*
X163301766Y-88549182D01*
X163291909Y-88549173D01*
X162712400Y-87969664D01*
X162712400Y-84014880D01*
X162818426Y-83909039D01*
X162860933Y-83806669D01*
X162907632Y-83853368D01*
X163039477Y-83941465D01*
X163195000Y-83972400D01*
X166683120Y-83972400D01*
X166788961Y-84078426D01*
X167011170Y-84170695D01*
X167251774Y-84170905D01*
X167474144Y-84079024D01*
X167644426Y-83909039D01*
X167736695Y-83686830D01*
X167736905Y-83446226D01*
X167645024Y-83223856D01*
X167475039Y-83053574D01*
X167252830Y-82961305D01*
X167012226Y-82961095D01*
X166789856Y-83052976D01*
X166683046Y-83159600D01*
X163363336Y-83159600D01*
X162847368Y-82643632D01*
X162715523Y-82555535D01*
X162560000Y-82524600D01*
X161925000Y-82524600D01*
X161769477Y-82555535D01*
X161637631Y-82643632D01*
X161129632Y-83151632D01*
X161121664Y-83159600D01*
X160020000Y-83159600D01*
X159864477Y-83190535D01*
X159732631Y-83278632D01*
X159224632Y-83786632D01*
X159136535Y-83918477D01*
X159105600Y-84074000D01*
X159105600Y-88705120D01*
X158999574Y-88810961D01*
X158907305Y-89033170D01*
X158907095Y-89273774D01*
X158998976Y-89496144D01*
X159139187Y-89636600D01*
X157607000Y-89636600D01*
X157451477Y-89667535D01*
X157319632Y-89755632D01*
X156684632Y-90390632D01*
X156596535Y-90522477D01*
X156565600Y-90678000D01*
X156565600Y-92069537D01*
X156524873Y-92077638D01*
X156145816Y-92330915D01*
X155892539Y-92709972D01*
X155803600Y-93157099D01*
X155803600Y-93786901D01*
X155892539Y-94234028D01*
X156145816Y-94613085D01*
X156524873Y-94866362D01*
X156544168Y-94870200D01*
X153541800Y-94870200D01*
X153541800Y-76579800D01*
X168276200Y-76579800D01*
X168276200Y-94870200D01*
G36*
X132208200Y-116460200D02*
X129025033Y-116460200D01*
X129353935Y-116262733D01*
X129640660Y-115875531D01*
X129757383Y-115408078D01*
X129662634Y-115214400D01*
X128676400Y-115214400D01*
X128676400Y-115234400D01*
X128371600Y-115234400D01*
X128371600Y-115214400D01*
X127385366Y-115214400D01*
X127290617Y-115408078D01*
X127407340Y-115875531D01*
X127694065Y-116262733D01*
X128022967Y-116460200D01*
X126411832Y-116460200D01*
X126431127Y-116456362D01*
X126810184Y-116203085D01*
X127063461Y-115824028D01*
X127152400Y-115376901D01*
X127152400Y-114747099D01*
X127146199Y-114715922D01*
X127290617Y-114715922D01*
X127385366Y-114909600D01*
X128371600Y-114909600D01*
X128371600Y-113655621D01*
X128676400Y-113655621D01*
X128676400Y-114909600D01*
X129662634Y-114909600D01*
X129757383Y-114715922D01*
X129640660Y-114248469D01*
X129353935Y-113861267D01*
X128940860Y-113613264D01*
X128863753Y-113604696D01*
X128676400Y-113655621D01*
X128371600Y-113655621D01*
X128184247Y-113604696D01*
X128107140Y-113613264D01*
X127694065Y-113861267D01*
X127407340Y-114248469D01*
X127290617Y-114715922D01*
X127146199Y-114715922D01*
X127063461Y-114299972D01*
X126810184Y-113920915D01*
X126431127Y-113667638D01*
X125984000Y-113578699D01*
X125536873Y-113667638D01*
X125157816Y-113920915D01*
X124904539Y-114299972D01*
X124815600Y-114747099D01*
X124815600Y-115376901D01*
X124904539Y-115824028D01*
X125157816Y-116203085D01*
X125536873Y-116456362D01*
X125556168Y-116460200D01*
X123871832Y-116460200D01*
X123891127Y-116456362D01*
X124270184Y-116203085D01*
X124523461Y-115824028D01*
X124612400Y-115376901D01*
X124612400Y-114747099D01*
X124523461Y-114299972D01*
X124270184Y-113920915D01*
X123891127Y-113667638D01*
X123444000Y-113578699D01*
X122996873Y-113667638D01*
X122617816Y-113920915D01*
X122364539Y-114299972D01*
X122275600Y-114747099D01*
X122275600Y-115376901D01*
X122364539Y-115824028D01*
X122617816Y-116203085D01*
X122996873Y-116456362D01*
X123016168Y-116460200D01*
X121331832Y-116460200D01*
X121351127Y-116456362D01*
X121730184Y-116203085D01*
X121983461Y-115824028D01*
X122072400Y-115376901D01*
X122072400Y-114747099D01*
X121983461Y-114299972D01*
X121730184Y-113920915D01*
X121351127Y-113667638D01*
X121310400Y-113659537D01*
X121310400Y-112436336D01*
X121707336Y-112039400D01*
X127254000Y-112039400D01*
X127409523Y-112008465D01*
X127541368Y-111920368D01*
X128176368Y-111285368D01*
X128264465Y-111153523D01*
X128295400Y-110998000D01*
X128295400Y-110236000D01*
X128264465Y-110080477D01*
X128176368Y-109948632D01*
X127960399Y-109732663D01*
X127960399Y-108630999D01*
X127929464Y-108475476D01*
X127858767Y-108369671D01*
X127858905Y-108211226D01*
X127767024Y-107988856D01*
X127597039Y-107818574D01*
X127374830Y-107726305D01*
X127134226Y-107726095D01*
X126911856Y-107817976D01*
X126741574Y-107987961D01*
X126649305Y-108210170D01*
X126649095Y-108450774D01*
X126740976Y-108673144D01*
X126910961Y-108843426D01*
X127133170Y-108935695D01*
X127147599Y-108935708D01*
X127147599Y-109900999D01*
X127178534Y-110056522D01*
X127233766Y-110139182D01*
X127223909Y-110139173D01*
X126644400Y-109559664D01*
X126644400Y-105604880D01*
X126750426Y-105499039D01*
X126792933Y-105396669D01*
X126839632Y-105443368D01*
X126971477Y-105531465D01*
X127127000Y-105562400D01*
X130615120Y-105562400D01*
X130720961Y-105668426D01*
X130943170Y-105760695D01*
X131183774Y-105760905D01*
X131406144Y-105669024D01*
X131576426Y-105499039D01*
X131668695Y-105276830D01*
X131668905Y-105036226D01*
X131577024Y-104813856D01*
X131407039Y-104643574D01*
X131184830Y-104551305D01*
X130944226Y-104551095D01*
X130721856Y-104642976D01*
X130615046Y-104749600D01*
X127295336Y-104749600D01*
X126779368Y-104233632D01*
X126647523Y-104145535D01*
X126492000Y-104114600D01*
X125857000Y-104114600D01*
X125701477Y-104145535D01*
X125569631Y-104233632D01*
X125061632Y-104741632D01*
X125053664Y-104749600D01*
X123952000Y-104749600D01*
X123796477Y-104780535D01*
X123664631Y-104868632D01*
X123156632Y-105376632D01*
X123068535Y-105508477D01*
X123037600Y-105664000D01*
X123037600Y-110295120D01*
X122931574Y-110400961D01*
X122839305Y-110623170D01*
X122839095Y-110863774D01*
X122930976Y-111086144D01*
X123071187Y-111226600D01*
X121539000Y-111226600D01*
X121383477Y-111257535D01*
X121251632Y-111345632D01*
X120616632Y-111980632D01*
X120528535Y-112112477D01*
X120497600Y-112268000D01*
X120497600Y-113659537D01*
X120456873Y-113667638D01*
X120077816Y-113920915D01*
X119824539Y-114299972D01*
X119735600Y-114747099D01*
X119735600Y-115376901D01*
X119824539Y-115824028D01*
X120077816Y-116203085D01*
X120456873Y-116456362D01*
X120476168Y-116460200D01*
X117473800Y-116460200D01*
X117473800Y-98169800D01*
X132208200Y-98169800D01*
X132208200Y-116460200D01*
X132208200Y-116460200D01*
G37*
X132208200Y-116460200D02*
X129025033Y-116460200D01*
X129353935Y-116262733D01*
X129640660Y-115875531D01*
X129757383Y-115408078D01*
X129662634Y-115214400D01*
X128676400Y-115214400D01*
X128676400Y-115234400D01*
X128371600Y-115234400D01*
X128371600Y-115214400D01*
X127385366Y-115214400D01*
X127290617Y-115408078D01*
X127407340Y-115875531D01*
X127694065Y-116262733D01*
X128022967Y-116460200D01*
X126411832Y-116460200D01*
X126431127Y-116456362D01*
X126810184Y-116203085D01*
X127063461Y-115824028D01*
X127152400Y-115376901D01*
X127152400Y-114747099D01*
X127146199Y-114715922D01*
X127290617Y-114715922D01*
X127385366Y-114909600D01*
X128371600Y-114909600D01*
X128371600Y-113655621D01*
X128676400Y-113655621D01*
X128676400Y-114909600D01*
X129662634Y-114909600D01*
X129757383Y-114715922D01*
X129640660Y-114248469D01*
X129353935Y-113861267D01*
X128940860Y-113613264D01*
X128863753Y-113604696D01*
X128676400Y-113655621D01*
X128371600Y-113655621D01*
X128184247Y-113604696D01*
X128107140Y-113613264D01*
X127694065Y-113861267D01*
X127407340Y-114248469D01*
X127290617Y-114715922D01*
X127146199Y-114715922D01*
X127063461Y-114299972D01*
X126810184Y-113920915D01*
X126431127Y-113667638D01*
X125984000Y-113578699D01*
X125536873Y-113667638D01*
X125157816Y-113920915D01*
X124904539Y-114299972D01*
X124815600Y-114747099D01*
X124815600Y-115376901D01*
X124904539Y-115824028D01*
X125157816Y-116203085D01*
X125536873Y-116456362D01*
X125556168Y-116460200D01*
X123871832Y-116460200D01*
X123891127Y-116456362D01*
X124270184Y-116203085D01*
X124523461Y-115824028D01*
X124612400Y-115376901D01*
X124612400Y-114747099D01*
X124523461Y-114299972D01*
X124270184Y-113920915D01*
X123891127Y-113667638D01*
X123444000Y-113578699D01*
X122996873Y-113667638D01*
X122617816Y-113920915D01*
X122364539Y-114299972D01*
X122275600Y-114747099D01*
X122275600Y-115376901D01*
X122364539Y-115824028D01*
X122617816Y-116203085D01*
X122996873Y-116456362D01*
X123016168Y-116460200D01*
X121331832Y-116460200D01*
X121351127Y-116456362D01*
X121730184Y-116203085D01*
X121983461Y-115824028D01*
X122072400Y-115376901D01*
X122072400Y-114747099D01*
X121983461Y-114299972D01*
X121730184Y-113920915D01*
X121351127Y-113667638D01*
X121310400Y-113659537D01*
X121310400Y-112436336D01*
X121707336Y-112039400D01*
X127254000Y-112039400D01*
X127409523Y-112008465D01*
X127541368Y-111920368D01*
X128176368Y-111285368D01*
X128264465Y-111153523D01*
X128295400Y-110998000D01*
X128295400Y-110236000D01*
X128264465Y-110080477D01*
X128176368Y-109948632D01*
X127960399Y-109732663D01*
X127960399Y-108630999D01*
X127929464Y-108475476D01*
X127858767Y-108369671D01*
X127858905Y-108211226D01*
X127767024Y-107988856D01*
X127597039Y-107818574D01*
X127374830Y-107726305D01*
X127134226Y-107726095D01*
X126911856Y-107817976D01*
X126741574Y-107987961D01*
X126649305Y-108210170D01*
X126649095Y-108450774D01*
X126740976Y-108673144D01*
X126910961Y-108843426D01*
X127133170Y-108935695D01*
X127147599Y-108935708D01*
X127147599Y-109900999D01*
X127178534Y-110056522D01*
X127233766Y-110139182D01*
X127223909Y-110139173D01*
X126644400Y-109559664D01*
X126644400Y-105604880D01*
X126750426Y-105499039D01*
X126792933Y-105396669D01*
X126839632Y-105443368D01*
X126971477Y-105531465D01*
X127127000Y-105562400D01*
X130615120Y-105562400D01*
X130720961Y-105668426D01*
X130943170Y-105760695D01*
X131183774Y-105760905D01*
X131406144Y-105669024D01*
X131576426Y-105499039D01*
X131668695Y-105276830D01*
X131668905Y-105036226D01*
X131577024Y-104813856D01*
X131407039Y-104643574D01*
X131184830Y-104551305D01*
X130944226Y-104551095D01*
X130721856Y-104642976D01*
X130615046Y-104749600D01*
X127295336Y-104749600D01*
X126779368Y-104233632D01*
X126647523Y-104145535D01*
X126492000Y-104114600D01*
X125857000Y-104114600D01*
X125701477Y-104145535D01*
X125569631Y-104233632D01*
X125061632Y-104741632D01*
X125053664Y-104749600D01*
X123952000Y-104749600D01*
X123796477Y-104780535D01*
X123664631Y-104868632D01*
X123156632Y-105376632D01*
X123068535Y-105508477D01*
X123037600Y-105664000D01*
X123037600Y-110295120D01*
X122931574Y-110400961D01*
X122839305Y-110623170D01*
X122839095Y-110863774D01*
X122930976Y-111086144D01*
X123071187Y-111226600D01*
X121539000Y-111226600D01*
X121383477Y-111257535D01*
X121251632Y-111345632D01*
X120616632Y-111980632D01*
X120528535Y-112112477D01*
X120497600Y-112268000D01*
X120497600Y-113659537D01*
X120456873Y-113667638D01*
X120077816Y-113920915D01*
X119824539Y-114299972D01*
X119735600Y-114747099D01*
X119735600Y-115376901D01*
X119824539Y-115824028D01*
X120077816Y-116203085D01*
X120456873Y-116456362D01*
X120476168Y-116460200D01*
X117473800Y-116460200D01*
X117473800Y-98169800D01*
X132208200Y-98169800D01*
X132208200Y-116460200D01*
G36*
X132208200Y-94870200D02*
X129025033Y-94870200D01*
X129353935Y-94672733D01*
X129640660Y-94285531D01*
X129757383Y-93818078D01*
X129662634Y-93624400D01*
X128676400Y-93624400D01*
X128676400Y-93644400D01*
X128371600Y-93644400D01*
X128371600Y-93624400D01*
X127385366Y-93624400D01*
X127290617Y-93818078D01*
X127407340Y-94285531D01*
X127694065Y-94672733D01*
X128022967Y-94870200D01*
X126411832Y-94870200D01*
X126431127Y-94866362D01*
X126810184Y-94613085D01*
X127063461Y-94234028D01*
X127152400Y-93786901D01*
X127152400Y-93157099D01*
X127146199Y-93125922D01*
X127290617Y-93125922D01*
X127385366Y-93319600D01*
X128371600Y-93319600D01*
X128371600Y-92065621D01*
X128676400Y-92065621D01*
X128676400Y-93319600D01*
X129662634Y-93319600D01*
X129757383Y-93125922D01*
X129640660Y-92658469D01*
X129353935Y-92271267D01*
X128940860Y-92023264D01*
X128863753Y-92014696D01*
X128676400Y-92065621D01*
X128371600Y-92065621D01*
X128184247Y-92014696D01*
X128107140Y-92023264D01*
X127694065Y-92271267D01*
X127407340Y-92658469D01*
X127290617Y-93125922D01*
X127146199Y-93125922D01*
X127063461Y-92709972D01*
X126810184Y-92330915D01*
X126431127Y-92077638D01*
X125984000Y-91988699D01*
X125536873Y-92077638D01*
X125157816Y-92330915D01*
X124904539Y-92709972D01*
X124815600Y-93157099D01*
X124815600Y-93786901D01*
X124904539Y-94234028D01*
X125157816Y-94613085D01*
X125536873Y-94866362D01*
X125556168Y-94870200D01*
X123871832Y-94870200D01*
X123891127Y-94866362D01*
X124270184Y-94613085D01*
X124523461Y-94234028D01*
X124612400Y-93786901D01*
X124612400Y-93157099D01*
X124523461Y-92709972D01*
X124270184Y-92330915D01*
X123891127Y-92077638D01*
X123444000Y-91988699D01*
X122996873Y-92077638D01*
X122617816Y-92330915D01*
X122364539Y-92709972D01*
X122275600Y-93157099D01*
X122275600Y-93786901D01*
X122364539Y-94234028D01*
X122617816Y-94613085D01*
X122996873Y-94866362D01*
X123016168Y-94870200D01*
X121331832Y-94870200D01*
X121351127Y-94866362D01*
X121730184Y-94613085D01*
X121983461Y-94234028D01*
X122072400Y-93786901D01*
X122072400Y-93157099D01*
X121983461Y-92709972D01*
X121730184Y-92330915D01*
X121351127Y-92077638D01*
X121310400Y-92069537D01*
X121310400Y-90846336D01*
X121707336Y-90449400D01*
X127254000Y-90449400D01*
X127409523Y-90418465D01*
X127541368Y-90330368D01*
X128176368Y-89695368D01*
X128264465Y-89563523D01*
X128295400Y-89408000D01*
X128295400Y-88646000D01*
X128264465Y-88490477D01*
X128176368Y-88358632D01*
X127960399Y-88142663D01*
X127960399Y-87040999D01*
X127929464Y-86885476D01*
X127858767Y-86779671D01*
X127858905Y-86621226D01*
X127767024Y-86398856D01*
X127597039Y-86228574D01*
X127374830Y-86136305D01*
X127134226Y-86136095D01*
X126911856Y-86227976D01*
X126741574Y-86397961D01*
X126649305Y-86620170D01*
X126649095Y-86860774D01*
X126740976Y-87083144D01*
X126910961Y-87253426D01*
X127133170Y-87345695D01*
X127147599Y-87345708D01*
X127147599Y-88310999D01*
X127178534Y-88466522D01*
X127233766Y-88549182D01*
X127223909Y-88549173D01*
X126644400Y-87969664D01*
X126644400Y-84014880D01*
X126750426Y-83909039D01*
X126792933Y-83806669D01*
X126839632Y-83853368D01*
X126971477Y-83941465D01*
X127127000Y-83972400D01*
X130615120Y-83972400D01*
X130720961Y-84078426D01*
X130943170Y-84170695D01*
X131183774Y-84170905D01*
X131406144Y-84079024D01*
X131576426Y-83909039D01*
X131668695Y-83686830D01*
X131668905Y-83446226D01*
X131577024Y-83223856D01*
X131407039Y-83053574D01*
X131184830Y-82961305D01*
X130944226Y-82961095D01*
X130721856Y-83052976D01*
X130615046Y-83159600D01*
X127295336Y-83159600D01*
X126779368Y-82643632D01*
X126647523Y-82555535D01*
X126492000Y-82524600D01*
X125857000Y-82524600D01*
X125701477Y-82555535D01*
X125569631Y-82643632D01*
X125061632Y-83151632D01*
X125053664Y-83159600D01*
X123952000Y-83159600D01*
X123796477Y-83190535D01*
X123664631Y-83278632D01*
X123156632Y-83786632D01*
X123068535Y-83918477D01*
X123037600Y-84074000D01*
X123037600Y-88705120D01*
X122931574Y-88810961D01*
X122839305Y-89033170D01*
X122839095Y-89273774D01*
X122930976Y-89496144D01*
X123071187Y-89636600D01*
X121539000Y-89636600D01*
X121383477Y-89667535D01*
X121251632Y-89755632D01*
X120616632Y-90390632D01*
X120528535Y-90522477D01*
X120497600Y-90678000D01*
X120497600Y-92069537D01*
X120456873Y-92077638D01*
X120077816Y-92330915D01*
X119824539Y-92709972D01*
X119735600Y-93157099D01*
X119735600Y-93786901D01*
X119824539Y-94234028D01*
X120077816Y-94613085D01*
X120456873Y-94866362D01*
X120476168Y-94870200D01*
X117473800Y-94870200D01*
X117473800Y-76579800D01*
X132208200Y-76579800D01*
X132208200Y-94870200D01*
X132208200Y-94870200D01*
G37*
X132208200Y-94870200D02*
X129025033Y-94870200D01*
X129353935Y-94672733D01*
X129640660Y-94285531D01*
X129757383Y-93818078D01*
X129662634Y-93624400D01*
X128676400Y-93624400D01*
X128676400Y-93644400D01*
X128371600Y-93644400D01*
X128371600Y-93624400D01*
X127385366Y-93624400D01*
X127290617Y-93818078D01*
X127407340Y-94285531D01*
X127694065Y-94672733D01*
X128022967Y-94870200D01*
X126411832Y-94870200D01*
X126431127Y-94866362D01*
X126810184Y-94613085D01*
X127063461Y-94234028D01*
X127152400Y-93786901D01*
X127152400Y-93157099D01*
X127146199Y-93125922D01*
X127290617Y-93125922D01*
X127385366Y-93319600D01*
X128371600Y-93319600D01*
X128371600Y-92065621D01*
X128676400Y-92065621D01*
X128676400Y-93319600D01*
X129662634Y-93319600D01*
X129757383Y-93125922D01*
X129640660Y-92658469D01*
X129353935Y-92271267D01*
X128940860Y-92023264D01*
X128863753Y-92014696D01*
X128676400Y-92065621D01*
X128371600Y-92065621D01*
X128184247Y-92014696D01*
X128107140Y-92023264D01*
X127694065Y-92271267D01*
X127407340Y-92658469D01*
X127290617Y-93125922D01*
X127146199Y-93125922D01*
X127063461Y-92709972D01*
X126810184Y-92330915D01*
X126431127Y-92077638D01*
X125984000Y-91988699D01*
X125536873Y-92077638D01*
X125157816Y-92330915D01*
X124904539Y-92709972D01*
X124815600Y-93157099D01*
X124815600Y-93786901D01*
X124904539Y-94234028D01*
X125157816Y-94613085D01*
X125536873Y-94866362D01*
X125556168Y-94870200D01*
X123871832Y-94870200D01*
X123891127Y-94866362D01*
X124270184Y-94613085D01*
X124523461Y-94234028D01*
X124612400Y-93786901D01*
X124612400Y-93157099D01*
X124523461Y-92709972D01*
X124270184Y-92330915D01*
X123891127Y-92077638D01*
X123444000Y-91988699D01*
X122996873Y-92077638D01*
X122617816Y-92330915D01*
X122364539Y-92709972D01*
X122275600Y-93157099D01*
X122275600Y-93786901D01*
X122364539Y-94234028D01*
X122617816Y-94613085D01*
X122996873Y-94866362D01*
X123016168Y-94870200D01*
X121331832Y-94870200D01*
X121351127Y-94866362D01*
X121730184Y-94613085D01*
X121983461Y-94234028D01*
X122072400Y-93786901D01*
X122072400Y-93157099D01*
X121983461Y-92709972D01*
X121730184Y-92330915D01*
X121351127Y-92077638D01*
X121310400Y-92069537D01*
X121310400Y-90846336D01*
X121707336Y-90449400D01*
X127254000Y-90449400D01*
X127409523Y-90418465D01*
X127541368Y-90330368D01*
X128176368Y-89695368D01*
X128264465Y-89563523D01*
X128295400Y-89408000D01*
X128295400Y-88646000D01*
X128264465Y-88490477D01*
X128176368Y-88358632D01*
X127960399Y-88142663D01*
X127960399Y-87040999D01*
X127929464Y-86885476D01*
X127858767Y-86779671D01*
X127858905Y-86621226D01*
X127767024Y-86398856D01*
X127597039Y-86228574D01*
X127374830Y-86136305D01*
X127134226Y-86136095D01*
X126911856Y-86227976D01*
X126741574Y-86397961D01*
X126649305Y-86620170D01*
X126649095Y-86860774D01*
X126740976Y-87083144D01*
X126910961Y-87253426D01*
X127133170Y-87345695D01*
X127147599Y-87345708D01*
X127147599Y-88310999D01*
X127178534Y-88466522D01*
X127233766Y-88549182D01*
X127223909Y-88549173D01*
X126644400Y-87969664D01*
X126644400Y-84014880D01*
X126750426Y-83909039D01*
X126792933Y-83806669D01*
X126839632Y-83853368D01*
X126971477Y-83941465D01*
X127127000Y-83972400D01*
X130615120Y-83972400D01*
X130720961Y-84078426D01*
X130943170Y-84170695D01*
X131183774Y-84170905D01*
X131406144Y-84079024D01*
X131576426Y-83909039D01*
X131668695Y-83686830D01*
X131668905Y-83446226D01*
X131577024Y-83223856D01*
X131407039Y-83053574D01*
X131184830Y-82961305D01*
X130944226Y-82961095D01*
X130721856Y-83052976D01*
X130615046Y-83159600D01*
X127295336Y-83159600D01*
X126779368Y-82643632D01*
X126647523Y-82555535D01*
X126492000Y-82524600D01*
X125857000Y-82524600D01*
X125701477Y-82555535D01*
X125569631Y-82643632D01*
X125061632Y-83151632D01*
X125053664Y-83159600D01*
X123952000Y-83159600D01*
X123796477Y-83190535D01*
X123664631Y-83278632D01*
X123156632Y-83786632D01*
X123068535Y-83918477D01*
X123037600Y-84074000D01*
X123037600Y-88705120D01*
X122931574Y-88810961D01*
X122839305Y-89033170D01*
X122839095Y-89273774D01*
X122930976Y-89496144D01*
X123071187Y-89636600D01*
X121539000Y-89636600D01*
X121383477Y-89667535D01*
X121251632Y-89755632D01*
X120616632Y-90390632D01*
X120528535Y-90522477D01*
X120497600Y-90678000D01*
X120497600Y-92069537D01*
X120456873Y-92077638D01*
X120077816Y-92330915D01*
X119824539Y-92709972D01*
X119735600Y-93157099D01*
X119735600Y-93786901D01*
X119824539Y-94234028D01*
X120077816Y-94613085D01*
X120456873Y-94866362D01*
X120476168Y-94870200D01*
X117473800Y-94870200D01*
X117473800Y-76579800D01*
X132208200Y-76579800D01*
X132208200Y-94870200D01*
G36*
X150242200Y-116460200D02*
X147059033Y-116460200D01*
X147387935Y-116262733D01*
X147674660Y-115875531D01*
X147791383Y-115408078D01*
X147696634Y-115214400D01*
X146710400Y-115214400D01*
X146710400Y-115234400D01*
X146405600Y-115234400D01*
X146405600Y-115214400D01*
X145419366Y-115214400D01*
X145324617Y-115408078D01*
X145441340Y-115875531D01*
X145728065Y-116262733D01*
X146056967Y-116460200D01*
X144445832Y-116460200D01*
X144465127Y-116456362D01*
X144844184Y-116203085D01*
X145097461Y-115824028D01*
X145186400Y-115376901D01*
X145186400Y-114747099D01*
X145180199Y-114715922D01*
X145324617Y-114715922D01*
X145419366Y-114909600D01*
X146405600Y-114909600D01*
X146405600Y-113655621D01*
X146710400Y-113655621D01*
X146710400Y-114909600D01*
X147696634Y-114909600D01*
X147791383Y-114715922D01*
X147674660Y-114248469D01*
X147387935Y-113861267D01*
X146974860Y-113613264D01*
X146897753Y-113604696D01*
X146710400Y-113655621D01*
X146405600Y-113655621D01*
X146218247Y-113604696D01*
X146141140Y-113613264D01*
X145728065Y-113861267D01*
X145441340Y-114248469D01*
X145324617Y-114715922D01*
X145180199Y-114715922D01*
X145097461Y-114299972D01*
X144844184Y-113920915D01*
X144465127Y-113667638D01*
X144018000Y-113578699D01*
X143570873Y-113667638D01*
X143191816Y-113920915D01*
X142938539Y-114299972D01*
X142849600Y-114747099D01*
X142849600Y-115376901D01*
X142938539Y-115824028D01*
X143191816Y-116203085D01*
X143570873Y-116456362D01*
X143590168Y-116460200D01*
X141905832Y-116460200D01*
X141925127Y-116456362D01*
X142304184Y-116203085D01*
X142557461Y-115824028D01*
X142646400Y-115376901D01*
X142646400Y-114747099D01*
X142557461Y-114299972D01*
X142304184Y-113920915D01*
X141925127Y-113667638D01*
X141478000Y-113578699D01*
X141030873Y-113667638D01*
X140651816Y-113920915D01*
X140398539Y-114299972D01*
X140309600Y-114747099D01*
X140309600Y-115376901D01*
X140398539Y-115824028D01*
X140651816Y-116203085D01*
X141030873Y-116456362D01*
X141050168Y-116460200D01*
X139365832Y-116460200D01*
X139385127Y-116456362D01*
X139764184Y-116203085D01*
X140017461Y-115824028D01*
X140106400Y-115376901D01*
X140106400Y-114747099D01*
X140017461Y-114299972D01*
X139764184Y-113920915D01*
X139385127Y-113667638D01*
X139344400Y-113659537D01*
X139344400Y-112436336D01*
X139741336Y-112039400D01*
X145288000Y-112039400D01*
X145443523Y-112008465D01*
X145575368Y-111920368D01*
X146210368Y-111285368D01*
X146298465Y-111153523D01*
X146329400Y-110998000D01*
X146329400Y-110236000D01*
X146298465Y-110080477D01*
X146210368Y-109948632D01*
X145994399Y-109732663D01*
X145994399Y-108630999D01*
X145963464Y-108475476D01*
X145892767Y-108369671D01*
X145892905Y-108211226D01*
X145801024Y-107988856D01*
X145631039Y-107818574D01*
X145408830Y-107726305D01*
X145168226Y-107726095D01*
X144945856Y-107817976D01*
X144775574Y-107987961D01*
X144683305Y-108210170D01*
X144683095Y-108450774D01*
X144774976Y-108673144D01*
X144944961Y-108843426D01*
X145167170Y-108935695D01*
X145181599Y-108935708D01*
X145181599Y-109900999D01*
X145212534Y-110056522D01*
X145267766Y-110139182D01*
X145257909Y-110139173D01*
X144678400Y-109559664D01*
X144678400Y-105604880D01*
X144784426Y-105499039D01*
X144826933Y-105396669D01*
X144873632Y-105443368D01*
X145005477Y-105531465D01*
X145161000Y-105562400D01*
X148649120Y-105562400D01*
X148754961Y-105668426D01*
X148977170Y-105760695D01*
X149217774Y-105760905D01*
X149440144Y-105669024D01*
X149610426Y-105499039D01*
X149702695Y-105276830D01*
X149702905Y-105036226D01*
X149611024Y-104813856D01*
X149441039Y-104643574D01*
X149218830Y-104551305D01*
X148978226Y-104551095D01*
X148755856Y-104642976D01*
X148649046Y-104749600D01*
X145329336Y-104749600D01*
X144813368Y-104233632D01*
X144681523Y-104145535D01*
X144526000Y-104114600D01*
X143891000Y-104114600D01*
X143735477Y-104145535D01*
X143603631Y-104233632D01*
X143095632Y-104741632D01*
X143087664Y-104749600D01*
X141986000Y-104749600D01*
X141830477Y-104780535D01*
X141698631Y-104868632D01*
X141190632Y-105376632D01*
X141102535Y-105508477D01*
X141071600Y-105664000D01*
X141071600Y-110295120D01*
X140965574Y-110400961D01*
X140873305Y-110623170D01*
X140873095Y-110863774D01*
X140964976Y-111086144D01*
X141105187Y-111226600D01*
X139573000Y-111226600D01*
X139417477Y-111257535D01*
X139285632Y-111345632D01*
X138650632Y-111980632D01*
X138562535Y-112112477D01*
X138531600Y-112268000D01*
X138531600Y-113659537D01*
X138490873Y-113667638D01*
X138111816Y-113920915D01*
X137858539Y-114299972D01*
X137769600Y-114747099D01*
X137769600Y-115376901D01*
X137858539Y-115824028D01*
X138111816Y-116203085D01*
X138490873Y-116456362D01*
X138510168Y-116460200D01*
X135507800Y-116460200D01*
X135507800Y-98169800D01*
X150242200Y-98169800D01*
X150242200Y-116460200D01*
X150242200Y-116460200D01*
G37*
X150242200Y-116460200D02*
X147059033Y-116460200D01*
X147387935Y-116262733D01*
X147674660Y-115875531D01*
X147791383Y-115408078D01*
X147696634Y-115214400D01*
X146710400Y-115214400D01*
X146710400Y-115234400D01*
X146405600Y-115234400D01*
X146405600Y-115214400D01*
X145419366Y-115214400D01*
X145324617Y-115408078D01*
X145441340Y-115875531D01*
X145728065Y-116262733D01*
X146056967Y-116460200D01*
X144445832Y-116460200D01*
X144465127Y-116456362D01*
X144844184Y-116203085D01*
X145097461Y-115824028D01*
X145186400Y-115376901D01*
X145186400Y-114747099D01*
X145180199Y-114715922D01*
X145324617Y-114715922D01*
X145419366Y-114909600D01*
X146405600Y-114909600D01*
X146405600Y-113655621D01*
X146710400Y-113655621D01*
X146710400Y-114909600D01*
X147696634Y-114909600D01*
X147791383Y-114715922D01*
X147674660Y-114248469D01*
X147387935Y-113861267D01*
X146974860Y-113613264D01*
X146897753Y-113604696D01*
X146710400Y-113655621D01*
X146405600Y-113655621D01*
X146218247Y-113604696D01*
X146141140Y-113613264D01*
X145728065Y-113861267D01*
X145441340Y-114248469D01*
X145324617Y-114715922D01*
X145180199Y-114715922D01*
X145097461Y-114299972D01*
X144844184Y-113920915D01*
X144465127Y-113667638D01*
X144018000Y-113578699D01*
X143570873Y-113667638D01*
X143191816Y-113920915D01*
X142938539Y-114299972D01*
X142849600Y-114747099D01*
X142849600Y-115376901D01*
X142938539Y-115824028D01*
X143191816Y-116203085D01*
X143570873Y-116456362D01*
X143590168Y-116460200D01*
X141905832Y-116460200D01*
X141925127Y-116456362D01*
X142304184Y-116203085D01*
X142557461Y-115824028D01*
X142646400Y-115376901D01*
X142646400Y-114747099D01*
X142557461Y-114299972D01*
X142304184Y-113920915D01*
X141925127Y-113667638D01*
X141478000Y-113578699D01*
X141030873Y-113667638D01*
X140651816Y-113920915D01*
X140398539Y-114299972D01*
X140309600Y-114747099D01*
X140309600Y-115376901D01*
X140398539Y-115824028D01*
X140651816Y-116203085D01*
X141030873Y-116456362D01*
X141050168Y-116460200D01*
X139365832Y-116460200D01*
X139385127Y-116456362D01*
X139764184Y-116203085D01*
X140017461Y-115824028D01*
X140106400Y-115376901D01*
X140106400Y-114747099D01*
X140017461Y-114299972D01*
X139764184Y-113920915D01*
X139385127Y-113667638D01*
X139344400Y-113659537D01*
X139344400Y-112436336D01*
X139741336Y-112039400D01*
X145288000Y-112039400D01*
X145443523Y-112008465D01*
X145575368Y-111920368D01*
X146210368Y-111285368D01*
X146298465Y-111153523D01*
X146329400Y-110998000D01*
X146329400Y-110236000D01*
X146298465Y-110080477D01*
X146210368Y-109948632D01*
X145994399Y-109732663D01*
X145994399Y-108630999D01*
X145963464Y-108475476D01*
X145892767Y-108369671D01*
X145892905Y-108211226D01*
X145801024Y-107988856D01*
X145631039Y-107818574D01*
X145408830Y-107726305D01*
X145168226Y-107726095D01*
X144945856Y-107817976D01*
X144775574Y-107987961D01*
X144683305Y-108210170D01*
X144683095Y-108450774D01*
X144774976Y-108673144D01*
X144944961Y-108843426D01*
X145167170Y-108935695D01*
X145181599Y-108935708D01*
X145181599Y-109900999D01*
X145212534Y-110056522D01*
X145267766Y-110139182D01*
X145257909Y-110139173D01*
X144678400Y-109559664D01*
X144678400Y-105604880D01*
X144784426Y-105499039D01*
X144826933Y-105396669D01*
X144873632Y-105443368D01*
X145005477Y-105531465D01*
X145161000Y-105562400D01*
X148649120Y-105562400D01*
X148754961Y-105668426D01*
X148977170Y-105760695D01*
X149217774Y-105760905D01*
X149440144Y-105669024D01*
X149610426Y-105499039D01*
X149702695Y-105276830D01*
X149702905Y-105036226D01*
X149611024Y-104813856D01*
X149441039Y-104643574D01*
X149218830Y-104551305D01*
X148978226Y-104551095D01*
X148755856Y-104642976D01*
X148649046Y-104749600D01*
X145329336Y-104749600D01*
X144813368Y-104233632D01*
X144681523Y-104145535D01*
X144526000Y-104114600D01*
X143891000Y-104114600D01*
X143735477Y-104145535D01*
X143603631Y-104233632D01*
X143095632Y-104741632D01*
X143087664Y-104749600D01*
X141986000Y-104749600D01*
X141830477Y-104780535D01*
X141698631Y-104868632D01*
X141190632Y-105376632D01*
X141102535Y-105508477D01*
X141071600Y-105664000D01*
X141071600Y-110295120D01*
X140965574Y-110400961D01*
X140873305Y-110623170D01*
X140873095Y-110863774D01*
X140964976Y-111086144D01*
X141105187Y-111226600D01*
X139573000Y-111226600D01*
X139417477Y-111257535D01*
X139285632Y-111345632D01*
X138650632Y-111980632D01*
X138562535Y-112112477D01*
X138531600Y-112268000D01*
X138531600Y-113659537D01*
X138490873Y-113667638D01*
X138111816Y-113920915D01*
X137858539Y-114299972D01*
X137769600Y-114747099D01*
X137769600Y-115376901D01*
X137858539Y-115824028D01*
X138111816Y-116203085D01*
X138490873Y-116456362D01*
X138510168Y-116460200D01*
X135507800Y-116460200D01*
X135507800Y-98169800D01*
X150242200Y-98169800D01*
X150242200Y-116460200D01*
G36*
X150242200Y-94870200D02*
X147059033Y-94870200D01*
X147387935Y-94672733D01*
X147674660Y-94285531D01*
X147791383Y-93818078D01*
X147696634Y-93624400D01*
X146710400Y-93624400D01*
X146710400Y-93644400D01*
X146405600Y-93644400D01*
X146405600Y-93624400D01*
X145419366Y-93624400D01*
X145324617Y-93818078D01*
X145441340Y-94285531D01*
X145728065Y-94672733D01*
X146056967Y-94870200D01*
X144445832Y-94870200D01*
X144465127Y-94866362D01*
X144844184Y-94613085D01*
X145097461Y-94234028D01*
X145186400Y-93786901D01*
X145186400Y-93157099D01*
X145180199Y-93125922D01*
X145324617Y-93125922D01*
X145419366Y-93319600D01*
X146405600Y-93319600D01*
X146405600Y-92065621D01*
X146710400Y-92065621D01*
X146710400Y-93319600D01*
X147696634Y-93319600D01*
X147791383Y-93125922D01*
X147674660Y-92658469D01*
X147387935Y-92271267D01*
X146974860Y-92023264D01*
X146897753Y-92014696D01*
X146710400Y-92065621D01*
X146405600Y-92065621D01*
X146218247Y-92014696D01*
X146141140Y-92023264D01*
X145728065Y-92271267D01*
X145441340Y-92658469D01*
X145324617Y-93125922D01*
X145180199Y-93125922D01*
X145097461Y-92709972D01*
X144844184Y-92330915D01*
X144465127Y-92077638D01*
X144018000Y-91988699D01*
X143570873Y-92077638D01*
X143191816Y-92330915D01*
X142938539Y-92709972D01*
X142849600Y-93157099D01*
X142849600Y-93786901D01*
X142938539Y-94234028D01*
X143191816Y-94613085D01*
X143570873Y-94866362D01*
X143590168Y-94870200D01*
X141905832Y-94870200D01*
X141925127Y-94866362D01*
X142304184Y-94613085D01*
X142557461Y-94234028D01*
X142646400Y-93786901D01*
X142646400Y-93157099D01*
X142557461Y-92709972D01*
X142304184Y-92330915D01*
X141925127Y-92077638D01*
X141478000Y-91988699D01*
X141030873Y-92077638D01*
X140651816Y-92330915D01*
X140398539Y-92709972D01*
X140309600Y-93157099D01*
X140309600Y-93786901D01*
X140398539Y-94234028D01*
X140651816Y-94613085D01*
X141030873Y-94866362D01*
X141050168Y-94870200D01*
X139365832Y-94870200D01*
X139385127Y-94866362D01*
X139764184Y-94613085D01*
X140017461Y-94234028D01*
X140106400Y-93786901D01*
X140106400Y-93157099D01*
X140017461Y-92709972D01*
X139764184Y-92330915D01*
X139385127Y-92077638D01*
X139344400Y-92069537D01*
X139344400Y-90846336D01*
X139741336Y-90449400D01*
X145288000Y-90449400D01*
X145443523Y-90418465D01*
X145575368Y-90330368D01*
X146210368Y-89695368D01*
X146298465Y-89563523D01*
X146329400Y-89408000D01*
X146329400Y-88646000D01*
X146298465Y-88490477D01*
X146210368Y-88358632D01*
X145994399Y-88142663D01*
X145994399Y-87040999D01*
X145963464Y-86885476D01*
X145892767Y-86779671D01*
X145892905Y-86621226D01*
X145801024Y-86398856D01*
X145631039Y-86228574D01*
X145408830Y-86136305D01*
X145168226Y-86136095D01*
X144945856Y-86227976D01*
X144775574Y-86397961D01*
X144683305Y-86620170D01*
X144683095Y-86860774D01*
X144774976Y-87083144D01*
X144944961Y-87253426D01*
X145167170Y-87345695D01*
X145181599Y-87345708D01*
X145181599Y-88310999D01*
X145212534Y-88466522D01*
X145267766Y-88549182D01*
X145257909Y-88549173D01*
X144678400Y-87969664D01*
X144678400Y-84014880D01*
X144784426Y-83909039D01*
X144826933Y-83806669D01*
X144873632Y-83853368D01*
X145005477Y-83941465D01*
X145161000Y-83972400D01*
X148649120Y-83972400D01*
X148754961Y-84078426D01*
X148977170Y-84170695D01*
X149217774Y-84170905D01*
X149440144Y-84079024D01*
X149610426Y-83909039D01*
X149702695Y-83686830D01*
X149702905Y-83446226D01*
X149611024Y-83223856D01*
X149441039Y-83053574D01*
X149218830Y-82961305D01*
X148978226Y-82961095D01*
X148755856Y-83052976D01*
X148649046Y-83159600D01*
X145329336Y-83159600D01*
X144813368Y-82643632D01*
X144681523Y-82555535D01*
X144526000Y-82524600D01*
X143891000Y-82524600D01*
X143735477Y-82555535D01*
X143603631Y-82643632D01*
X143095632Y-83151632D01*
X143087664Y-83159600D01*
X141986000Y-83159600D01*
X141830477Y-83190535D01*
X141698631Y-83278632D01*
X141190632Y-83786632D01*
X141102535Y-83918477D01*
X141071600Y-84074000D01*
X141071600Y-88705120D01*
X140965574Y-88810961D01*
X140873305Y-89033170D01*
X140873095Y-89273774D01*
X140964976Y-89496144D01*
X141105187Y-89636600D01*
X139573000Y-89636600D01*
X139417477Y-89667535D01*
X139285632Y-89755632D01*
X138650632Y-90390632D01*
X138562535Y-90522477D01*
X138531600Y-90678000D01*
X138531600Y-92069537D01*
X138490873Y-92077638D01*
X138111816Y-92330915D01*
X137858539Y-92709972D01*
X137769600Y-93157099D01*
X137769600Y-93786901D01*
X137858539Y-94234028D01*
X138111816Y-94613085D01*
X138490873Y-94866362D01*
X138510168Y-94870200D01*
X135507800Y-94870200D01*
X135507800Y-76579800D01*
X150242200Y-76579800D01*
X150242200Y-94870200D01*
X150242200Y-94870200D01*
G37*
X150242200Y-94870200D02*
X147059033Y-94870200D01*
X147387935Y-94672733D01*
X147674660Y-94285531D01*
X147791383Y-93818078D01*
X147696634Y-93624400D01*
X146710400Y-93624400D01*
X146710400Y-93644400D01*
X146405600Y-93644400D01*
X146405600Y-93624400D01*
X145419366Y-93624400D01*
X145324617Y-93818078D01*
X145441340Y-94285531D01*
X145728065Y-94672733D01*
X146056967Y-94870200D01*
X144445832Y-94870200D01*
X144465127Y-94866362D01*
X144844184Y-94613085D01*
X145097461Y-94234028D01*
X145186400Y-93786901D01*
X145186400Y-93157099D01*
X145180199Y-93125922D01*
X145324617Y-93125922D01*
X145419366Y-93319600D01*
X146405600Y-93319600D01*
X146405600Y-92065621D01*
X146710400Y-92065621D01*
X146710400Y-93319600D01*
X147696634Y-93319600D01*
X147791383Y-93125922D01*
X147674660Y-92658469D01*
X147387935Y-92271267D01*
X146974860Y-92023264D01*
X146897753Y-92014696D01*
X146710400Y-92065621D01*
X146405600Y-92065621D01*
X146218247Y-92014696D01*
X146141140Y-92023264D01*
X145728065Y-92271267D01*
X145441340Y-92658469D01*
X145324617Y-93125922D01*
X145180199Y-93125922D01*
X145097461Y-92709972D01*
X144844184Y-92330915D01*
X144465127Y-92077638D01*
X144018000Y-91988699D01*
X143570873Y-92077638D01*
X143191816Y-92330915D01*
X142938539Y-92709972D01*
X142849600Y-93157099D01*
X142849600Y-93786901D01*
X142938539Y-94234028D01*
X143191816Y-94613085D01*
X143570873Y-94866362D01*
X143590168Y-94870200D01*
X141905832Y-94870200D01*
X141925127Y-94866362D01*
X142304184Y-94613085D01*
X142557461Y-94234028D01*
X142646400Y-93786901D01*
X142646400Y-93157099D01*
X142557461Y-92709972D01*
X142304184Y-92330915D01*
X141925127Y-92077638D01*
X141478000Y-91988699D01*
X141030873Y-92077638D01*
X140651816Y-92330915D01*
X140398539Y-92709972D01*
X140309600Y-93157099D01*
X140309600Y-93786901D01*
X140398539Y-94234028D01*
X140651816Y-94613085D01*
X141030873Y-94866362D01*
X141050168Y-94870200D01*
X139365832Y-94870200D01*
X139385127Y-94866362D01*
X139764184Y-94613085D01*
X140017461Y-94234028D01*
X140106400Y-93786901D01*
X140106400Y-93157099D01*
X140017461Y-92709972D01*
X139764184Y-92330915D01*
X139385127Y-92077638D01*
X139344400Y-92069537D01*
X139344400Y-90846336D01*
X139741336Y-90449400D01*
X145288000Y-90449400D01*
X145443523Y-90418465D01*
X145575368Y-90330368D01*
X146210368Y-89695368D01*
X146298465Y-89563523D01*
X146329400Y-89408000D01*
X146329400Y-88646000D01*
X146298465Y-88490477D01*
X146210368Y-88358632D01*
X145994399Y-88142663D01*
X145994399Y-87040999D01*
X145963464Y-86885476D01*
X145892767Y-86779671D01*
X145892905Y-86621226D01*
X145801024Y-86398856D01*
X145631039Y-86228574D01*
X145408830Y-86136305D01*
X145168226Y-86136095D01*
X144945856Y-86227976D01*
X144775574Y-86397961D01*
X144683305Y-86620170D01*
X144683095Y-86860774D01*
X144774976Y-87083144D01*
X144944961Y-87253426D01*
X145167170Y-87345695D01*
X145181599Y-87345708D01*
X145181599Y-88310999D01*
X145212534Y-88466522D01*
X145267766Y-88549182D01*
X145257909Y-88549173D01*
X144678400Y-87969664D01*
X144678400Y-84014880D01*
X144784426Y-83909039D01*
X144826933Y-83806669D01*
X144873632Y-83853368D01*
X145005477Y-83941465D01*
X145161000Y-83972400D01*
X148649120Y-83972400D01*
X148754961Y-84078426D01*
X148977170Y-84170695D01*
X149217774Y-84170905D01*
X149440144Y-84079024D01*
X149610426Y-83909039D01*
X149702695Y-83686830D01*
X149702905Y-83446226D01*
X149611024Y-83223856D01*
X149441039Y-83053574D01*
X149218830Y-82961305D01*
X148978226Y-82961095D01*
X148755856Y-83052976D01*
X148649046Y-83159600D01*
X145329336Y-83159600D01*
X144813368Y-82643632D01*
X144681523Y-82555535D01*
X144526000Y-82524600D01*
X143891000Y-82524600D01*
X143735477Y-82555535D01*
X143603631Y-82643632D01*
X143095632Y-83151632D01*
X143087664Y-83159600D01*
X141986000Y-83159600D01*
X141830477Y-83190535D01*
X141698631Y-83278632D01*
X141190632Y-83786632D01*
X141102535Y-83918477D01*
X141071600Y-84074000D01*
X141071600Y-88705120D01*
X140965574Y-88810961D01*
X140873305Y-89033170D01*
X140873095Y-89273774D01*
X140964976Y-89496144D01*
X141105187Y-89636600D01*
X139573000Y-89636600D01*
X139417477Y-89667535D01*
X139285632Y-89755632D01*
X138650632Y-90390632D01*
X138562535Y-90522477D01*
X138531600Y-90678000D01*
X138531600Y-92069537D01*
X138490873Y-92077638D01*
X138111816Y-92330915D01*
X137858539Y-92709972D01*
X137769600Y-93157099D01*
X137769600Y-93786901D01*
X137858539Y-94234028D01*
X138111816Y-94613085D01*
X138490873Y-94866362D01*
X138510168Y-94870200D01*
X135507800Y-94870200D01*
X135507800Y-76579800D01*
X150242200Y-76579800D01*
X150242200Y-94870200D01*
M02*
