G04 #@! TF.FileFunction,Soldermask,Top*
%FSLAX46Y46*%
G04 Gerber Fmt 4.6, Leading zero omitted, Abs format (unit mm)*
G04 Created by KiCad (PCBNEW 4.0.5+dfsg1-4) date Mon Jun 15 22:33:41 2020*
%MOMM*%
%LPD*%
G01*
G04 APERTURE LIST*
%ADD10C,0.100000*%
%ADD11C,1.468000*%
%ADD12O,1.828800X2.401600*%
%ADD13R,0.701600X1.601600*%
%ADD14R,1.001600X0.601600*%
%ADD15R,0.851600X0.901600*%
%ADD16C,2.540000*%
%ADD17R,0.899160X0.899160*%
G04 APERTURE END LIST*
D10*
D11*
X118110000Y-120650000D03*
X118364000Y-72390000D03*
X185420000Y-72390000D03*
D12*
X138938000Y-115062000D03*
X141478000Y-115062000D03*
X144018000Y-115062000D03*
X146558000Y-115062000D03*
D13*
X138938000Y-112174000D03*
X140208000Y-112174000D03*
X141478000Y-112174000D03*
X142748000Y-112174000D03*
X144018000Y-112174000D03*
X145288000Y-112174000D03*
X146558000Y-112174000D03*
X146558000Y-106774000D03*
X145288000Y-106774000D03*
X144018000Y-106774000D03*
X142748000Y-106774000D03*
X141478000Y-106774000D03*
X140208000Y-106774000D03*
X138938000Y-106774000D03*
D14*
X140208000Y-104382000D03*
X140208000Y-102882000D03*
D15*
X136906000Y-108192000D03*
X136906000Y-106692000D03*
D16*
X148844000Y-109474000D03*
D17*
X149098000Y-101600000D03*
X149098000Y-100101400D03*
D14*
X149098000Y-104382000D03*
X149098000Y-102882000D03*
D17*
X147320000Y-101587300D03*
X147320000Y-100088700D03*
X143764000Y-101600000D03*
X143764000Y-100101400D03*
X145542000Y-101587300D03*
X145542000Y-100088700D03*
X141986000Y-101587300D03*
X141986000Y-100088700D03*
D14*
X141986000Y-104382000D03*
X141986000Y-102882000D03*
X145542000Y-104382000D03*
X145542000Y-102882000D03*
X143764000Y-104382000D03*
X143764000Y-102882000D03*
X147320000Y-104370000D03*
X147320000Y-102870000D03*
X125730000Y-82792000D03*
X125730000Y-81292000D03*
D16*
X130810000Y-87884000D03*
D12*
X120904000Y-93472000D03*
X123444000Y-93472000D03*
X125984000Y-93472000D03*
X128524000Y-93472000D03*
D13*
X120904000Y-90584000D03*
X122174000Y-90584000D03*
X123444000Y-90584000D03*
X124714000Y-90584000D03*
X125984000Y-90584000D03*
X127254000Y-90584000D03*
X128524000Y-90584000D03*
X128524000Y-85184000D03*
X127254000Y-85184000D03*
X125984000Y-85184000D03*
X124714000Y-85184000D03*
X123444000Y-85184000D03*
X122174000Y-85184000D03*
X120904000Y-85184000D03*
D14*
X143764000Y-82792000D03*
X143764000Y-81292000D03*
D16*
X148844000Y-87884000D03*
D14*
X149098000Y-82792000D03*
X149098000Y-81292000D03*
D15*
X136906000Y-86602000D03*
X136906000Y-85102000D03*
D12*
X138938000Y-93472000D03*
X141478000Y-93472000D03*
X144018000Y-93472000D03*
X146558000Y-93472000D03*
D13*
X138938000Y-90584000D03*
X140208000Y-90584000D03*
X141478000Y-90584000D03*
X142748000Y-90584000D03*
X144018000Y-90584000D03*
X145288000Y-90584000D03*
X146558000Y-90584000D03*
X146558000Y-85184000D03*
X145288000Y-85184000D03*
X144018000Y-85184000D03*
X142748000Y-85184000D03*
X141478000Y-85184000D03*
X140208000Y-85184000D03*
X138938000Y-85184000D03*
D14*
X123952000Y-82792000D03*
X123952000Y-81292000D03*
D15*
X118872000Y-86602000D03*
X118872000Y-85102000D03*
D14*
X118618000Y-82792000D03*
X118618000Y-81292000D03*
X120396000Y-82792000D03*
X120396000Y-81292000D03*
X122174000Y-82792000D03*
X122174000Y-81292000D03*
X138430000Y-82792000D03*
X138430000Y-81292000D03*
X140208000Y-82792000D03*
X140208000Y-81292000D03*
X136652000Y-82792000D03*
X136652000Y-81292000D03*
D17*
X138430000Y-80010000D03*
X138430000Y-78511400D03*
X136652000Y-80010000D03*
X136652000Y-78511400D03*
X140208000Y-79997300D03*
X140208000Y-78498700D03*
X141986000Y-79997300D03*
X141986000Y-78498700D03*
D14*
X141986000Y-82792000D03*
X141986000Y-81292000D03*
D17*
X131064000Y-80010000D03*
X131064000Y-78511400D03*
D14*
X127508000Y-82792000D03*
X127508000Y-81292000D03*
D17*
X129286000Y-79997300D03*
X129286000Y-78498700D03*
D14*
X129286000Y-82780000D03*
X129286000Y-81280000D03*
D17*
X125730000Y-80010000D03*
X125730000Y-78511400D03*
D14*
X131064000Y-82792000D03*
X131064000Y-81292000D03*
D17*
X127508000Y-79997300D03*
X127508000Y-78498700D03*
X118618000Y-80010000D03*
X118618000Y-78511400D03*
X122174000Y-79997300D03*
X122174000Y-78498700D03*
X120396000Y-80010000D03*
X120396000Y-78511400D03*
X123952000Y-79997300D03*
X123952000Y-78498700D03*
X149098000Y-80010000D03*
X149098000Y-78511400D03*
X143764000Y-80010000D03*
X143764000Y-78511400D03*
D14*
X145542000Y-82792000D03*
X145542000Y-81292000D03*
D17*
X147320000Y-79997300D03*
X147320000Y-78498700D03*
D14*
X147320000Y-82780000D03*
X147320000Y-81280000D03*
D17*
X145542000Y-79997300D03*
X145542000Y-78498700D03*
X138430000Y-101600000D03*
X138430000Y-100101400D03*
X136652000Y-101600000D03*
X136652000Y-100101400D03*
D14*
X136652000Y-104382000D03*
X136652000Y-102882000D03*
X138430000Y-104382000D03*
X138430000Y-102882000D03*
D17*
X140208000Y-101587300D03*
X140208000Y-100088700D03*
D12*
X120904000Y-115062000D03*
X123444000Y-115062000D03*
X125984000Y-115062000D03*
X128524000Y-115062000D03*
D15*
X118872000Y-108192000D03*
X118872000Y-106692000D03*
D16*
X130810000Y-109474000D03*
D13*
X120904000Y-112174000D03*
X122174000Y-112174000D03*
X123444000Y-112174000D03*
X124714000Y-112174000D03*
X125984000Y-112174000D03*
X127254000Y-112174000D03*
X128524000Y-112174000D03*
X128524000Y-106774000D03*
X127254000Y-106774000D03*
X125984000Y-106774000D03*
X124714000Y-106774000D03*
X123444000Y-106774000D03*
X122174000Y-106774000D03*
X120904000Y-106774000D03*
D17*
X131064000Y-101600000D03*
X131064000Y-100101400D03*
D14*
X129286000Y-104370000D03*
X129286000Y-102870000D03*
D17*
X129286000Y-101587300D03*
X129286000Y-100088700D03*
X127508000Y-101587300D03*
X127508000Y-100088700D03*
X125730000Y-101600000D03*
X125730000Y-100101400D03*
D14*
X123952000Y-104382000D03*
X123952000Y-102882000D03*
X131064000Y-104382000D03*
X131064000Y-102882000D03*
X125730000Y-104382000D03*
X125730000Y-102882000D03*
X127508000Y-104382000D03*
X127508000Y-102882000D03*
D17*
X123952000Y-101587300D03*
X123952000Y-100088700D03*
X118618000Y-101600000D03*
X118618000Y-100101400D03*
D14*
X118618000Y-104382000D03*
X118618000Y-102882000D03*
D17*
X122174000Y-101587300D03*
X122174000Y-100088700D03*
X120396000Y-101600000D03*
X120396000Y-100101400D03*
D14*
X122174000Y-104382000D03*
X122174000Y-102882000D03*
X120396000Y-104382000D03*
X120396000Y-102882000D03*
D12*
X175006000Y-93472000D03*
X177546000Y-93472000D03*
X180086000Y-93472000D03*
X182626000Y-93472000D03*
D13*
X175006000Y-90584000D03*
X176276000Y-90584000D03*
X177546000Y-90584000D03*
X178816000Y-90584000D03*
X180086000Y-90584000D03*
X181356000Y-90584000D03*
X182626000Y-90584000D03*
X182626000Y-85184000D03*
X181356000Y-85184000D03*
X180086000Y-85184000D03*
X178816000Y-85184000D03*
X177546000Y-85184000D03*
X176276000Y-85184000D03*
X175006000Y-85184000D03*
D15*
X172974000Y-86602000D03*
X172974000Y-85102000D03*
D14*
X178054000Y-82792000D03*
X178054000Y-81292000D03*
D17*
X185166000Y-80010000D03*
X185166000Y-78511400D03*
X179832000Y-80010000D03*
X179832000Y-78511400D03*
X183388000Y-79997300D03*
X183388000Y-78498700D03*
X181610000Y-79997300D03*
X181610000Y-78498700D03*
X178054000Y-79997300D03*
X178054000Y-78498700D03*
X172720000Y-80010000D03*
X172720000Y-78511400D03*
D14*
X174498000Y-82792000D03*
X174498000Y-81292000D03*
D17*
X174498000Y-80010000D03*
X174498000Y-78511400D03*
D14*
X172720000Y-82792000D03*
X172720000Y-81292000D03*
X176276000Y-82792000D03*
X176276000Y-81292000D03*
D17*
X176276000Y-79997300D03*
X176276000Y-78498700D03*
D14*
X156464000Y-82792000D03*
X156464000Y-81292000D03*
D17*
X160020000Y-79997300D03*
X160020000Y-78498700D03*
X158242000Y-79997300D03*
X158242000Y-78498700D03*
X156464000Y-80010000D03*
X156464000Y-78511400D03*
X154686000Y-80010000D03*
X154686000Y-78511400D03*
D14*
X158242000Y-82792000D03*
X158242000Y-81292000D03*
X154686000Y-82792000D03*
X154686000Y-81292000D03*
D13*
X156972000Y-90584000D03*
X158242000Y-90584000D03*
X159512000Y-90584000D03*
X160782000Y-90584000D03*
X162052000Y-90584000D03*
X163322000Y-90584000D03*
X164592000Y-90584000D03*
X164592000Y-85184000D03*
X163322000Y-85184000D03*
X162052000Y-85184000D03*
X160782000Y-85184000D03*
X159512000Y-85184000D03*
X158242000Y-85184000D03*
X156972000Y-85184000D03*
D12*
X156972000Y-93472000D03*
X159512000Y-93472000D03*
X162052000Y-93472000D03*
X164592000Y-93472000D03*
D14*
X163576000Y-82792000D03*
X163576000Y-81292000D03*
X160020000Y-82792000D03*
X160020000Y-81292000D03*
X167132000Y-82792000D03*
X167132000Y-81292000D03*
D15*
X154940000Y-86602000D03*
X154940000Y-85102000D03*
D14*
X161798000Y-82792000D03*
X161798000Y-81292000D03*
D16*
X166878000Y-87884000D03*
D17*
X167132000Y-80010000D03*
X167132000Y-78511400D03*
D14*
X165354000Y-82780000D03*
X165354000Y-81280000D03*
D17*
X165354000Y-79997300D03*
X165354000Y-78498700D03*
X163576000Y-79997300D03*
X163576000Y-78498700D03*
X161798000Y-80010000D03*
X161798000Y-78511400D03*
D14*
X185166000Y-82792000D03*
X185166000Y-81292000D03*
X181610000Y-82792000D03*
X181610000Y-81292000D03*
X183388000Y-82780000D03*
X183388000Y-81280000D03*
X179832000Y-82792000D03*
X179832000Y-81292000D03*
D16*
X184912000Y-87884000D03*
D17*
X161798000Y-101600000D03*
X161798000Y-100101400D03*
D14*
X165354000Y-104370000D03*
X165354000Y-102870000D03*
X163576000Y-104382000D03*
X163576000Y-102882000D03*
D17*
X167132000Y-101600000D03*
X167132000Y-100101400D03*
X165354000Y-101587300D03*
X165354000Y-100088700D03*
X163576000Y-101587300D03*
X163576000Y-100088700D03*
D16*
X166878000Y-109474000D03*
D14*
X161798000Y-104382000D03*
X161798000Y-102882000D03*
D13*
X156972000Y-112174000D03*
X158242000Y-112174000D03*
X159512000Y-112174000D03*
X160782000Y-112174000D03*
X162052000Y-112174000D03*
X163322000Y-112174000D03*
X164592000Y-112174000D03*
X164592000Y-106774000D03*
X163322000Y-106774000D03*
X162052000Y-106774000D03*
X160782000Y-106774000D03*
X159512000Y-106774000D03*
X158242000Y-106774000D03*
X156972000Y-106774000D03*
D14*
X167132000Y-104382000D03*
X167132000Y-102882000D03*
D15*
X154940000Y-108192000D03*
X154940000Y-106692000D03*
D14*
X160020000Y-104382000D03*
X160020000Y-102882000D03*
D12*
X156972000Y-115062000D03*
X159512000Y-115062000D03*
X162052000Y-115062000D03*
X164592000Y-115062000D03*
D14*
X158242000Y-104382000D03*
X158242000Y-102882000D03*
X156464000Y-104382000D03*
X156464000Y-102882000D03*
D17*
X158242000Y-101587300D03*
X158242000Y-100088700D03*
X160020000Y-101587300D03*
X160020000Y-100088700D03*
X156464000Y-101600000D03*
X156464000Y-100101400D03*
X154686000Y-101600000D03*
X154686000Y-100101400D03*
D14*
X154686000Y-104382000D03*
X154686000Y-102882000D03*
D15*
X172974000Y-108192000D03*
X172974000Y-106692000D03*
D17*
X172720000Y-101600000D03*
X172720000Y-100101400D03*
X174498000Y-101600000D03*
X174498000Y-100101400D03*
X176276000Y-101587300D03*
X176276000Y-100088700D03*
X178054000Y-101587300D03*
X178054000Y-100088700D03*
X179832000Y-101600000D03*
X179832000Y-100101400D03*
X181610000Y-101587300D03*
X181610000Y-100088700D03*
X183388000Y-101587300D03*
X183388000Y-100088700D03*
X185166000Y-101600000D03*
X185166000Y-100101400D03*
D14*
X172720000Y-104382000D03*
X172720000Y-102882000D03*
X174498000Y-104382000D03*
X174498000Y-102882000D03*
X176276000Y-104382000D03*
X176276000Y-102882000D03*
X178054000Y-104382000D03*
X178054000Y-102882000D03*
X179832000Y-104382000D03*
X179832000Y-102882000D03*
X181610000Y-104382000D03*
X181610000Y-102882000D03*
X183388000Y-104370000D03*
X183388000Y-102870000D03*
X185166000Y-104382000D03*
X185166000Y-102882000D03*
D13*
X175006000Y-112174000D03*
X176276000Y-112174000D03*
X177546000Y-112174000D03*
X178816000Y-112174000D03*
X180086000Y-112174000D03*
X181356000Y-112174000D03*
X182626000Y-112174000D03*
X182626000Y-106774000D03*
X181356000Y-106774000D03*
X180086000Y-106774000D03*
X178816000Y-106774000D03*
X177546000Y-106774000D03*
X176276000Y-106774000D03*
X175006000Y-106774000D03*
D12*
X175006000Y-115062000D03*
X177546000Y-115062000D03*
X180086000Y-115062000D03*
X182626000Y-115062000D03*
D16*
X184912000Y-109474000D03*
D11*
X185166000Y-120650000D03*
M02*
