G04 #@! TF.FileFunction,Legend,Top*
%FSLAX46Y46*%
G04 Gerber Fmt 4.6, Leading zero omitted, Abs format (unit mm)*
G04 Created by KiCad (PCBNEW 4.0.5+dfsg1-4) date Mon Jun 15 22:33:41 2020*
%MOMM*%
%LPD*%
G01*
G04 APERTURE LIST*
%ADD10C,0.100000*%
%ADD11C,0.150000*%
G04 APERTURE END LIST*
D10*
D11*
X131016381Y-98258381D02*
X131111620Y-98258381D01*
X131206858Y-98306000D01*
X131254477Y-98353619D01*
X131302096Y-98448857D01*
X131349715Y-98639333D01*
X131349715Y-98877429D01*
X131302096Y-99067905D01*
X131254477Y-99163143D01*
X131206858Y-99210762D01*
X131111620Y-99258381D01*
X131016381Y-99258381D01*
X130921143Y-99210762D01*
X130873524Y-99163143D01*
X130825905Y-99067905D01*
X130778286Y-98877429D01*
X130778286Y-98639333D01*
X130825905Y-98448857D01*
X130873524Y-98353619D01*
X130921143Y-98306000D01*
X131016381Y-98258381D01*
X129571715Y-99258381D02*
X129000286Y-99258381D01*
X129286000Y-99258381D02*
X129286000Y-98258381D01*
X129190762Y-98401238D01*
X129095524Y-98496476D01*
X129000286Y-98544095D01*
X138620477Y-98258381D02*
X138430000Y-98258381D01*
X138334762Y-98306000D01*
X138287143Y-98353619D01*
X138191905Y-98496476D01*
X138144286Y-98686952D01*
X138144286Y-99067905D01*
X138191905Y-99163143D01*
X138239524Y-99210762D01*
X138334762Y-99258381D01*
X138525239Y-99258381D01*
X138620477Y-99210762D01*
X138668096Y-99163143D01*
X138715715Y-99067905D01*
X138715715Y-98829810D01*
X138668096Y-98734571D01*
X138620477Y-98686952D01*
X138525239Y-98639333D01*
X138334762Y-98639333D01*
X138239524Y-98686952D01*
X138191905Y-98734571D01*
X138144286Y-98829810D01*
X136318667Y-98258381D02*
X136985334Y-98258381D01*
X136556762Y-99258381D01*
X127222286Y-98353619D02*
X127269905Y-98306000D01*
X127365143Y-98258381D01*
X127603239Y-98258381D01*
X127698477Y-98306000D01*
X127746096Y-98353619D01*
X127793715Y-98448857D01*
X127793715Y-98544095D01*
X127746096Y-98686952D01*
X127174667Y-99258381D01*
X127793715Y-99258381D01*
X120586477Y-98258381D02*
X120396000Y-98258381D01*
X120300762Y-98306000D01*
X120253143Y-98353619D01*
X120157905Y-98496476D01*
X120110286Y-98686952D01*
X120110286Y-99067905D01*
X120157905Y-99163143D01*
X120205524Y-99210762D01*
X120300762Y-99258381D01*
X120491239Y-99258381D01*
X120586477Y-99210762D01*
X120634096Y-99163143D01*
X120681715Y-99067905D01*
X120681715Y-98829810D01*
X120634096Y-98734571D01*
X120586477Y-98686952D01*
X120491239Y-98639333D01*
X120300762Y-98639333D01*
X120205524Y-98686952D01*
X120157905Y-98734571D01*
X120110286Y-98829810D01*
X125396667Y-98258381D02*
X126015715Y-98258381D01*
X125682381Y-98639333D01*
X125825239Y-98639333D01*
X125920477Y-98686952D01*
X125968096Y-98734571D01*
X126015715Y-98829810D01*
X126015715Y-99067905D01*
X125968096Y-99163143D01*
X125920477Y-99210762D01*
X125825239Y-99258381D01*
X125539524Y-99258381D01*
X125444286Y-99210762D01*
X125396667Y-99163143D01*
X124142477Y-98591714D02*
X124142477Y-99258381D01*
X123904381Y-98210762D02*
X123666286Y-98925048D01*
X124285334Y-98925048D01*
X122412096Y-98258381D02*
X121935905Y-98258381D01*
X121888286Y-98734571D01*
X121935905Y-98686952D01*
X122031143Y-98639333D01*
X122269239Y-98639333D01*
X122364477Y-98686952D01*
X122412096Y-98734571D01*
X122459715Y-98829810D01*
X122459715Y-99067905D01*
X122412096Y-99163143D01*
X122364477Y-99210762D01*
X122269239Y-99258381D01*
X122031143Y-99258381D01*
X121935905Y-99210762D01*
X121888286Y-99163143D01*
X118284667Y-98258381D02*
X118951334Y-98258381D01*
X118522762Y-99258381D01*
X140446096Y-98258381D02*
X139969905Y-98258381D01*
X139922286Y-98734571D01*
X139969905Y-98686952D01*
X140065143Y-98639333D01*
X140303239Y-98639333D01*
X140398477Y-98686952D01*
X140446096Y-98734571D01*
X140493715Y-98829810D01*
X140493715Y-99067905D01*
X140446096Y-99163143D01*
X140398477Y-99210762D01*
X140303239Y-99258381D01*
X140065143Y-99258381D01*
X139969905Y-99210762D01*
X139922286Y-99163143D01*
X149050381Y-98258381D02*
X149145620Y-98258381D01*
X149240858Y-98306000D01*
X149288477Y-98353619D01*
X149336096Y-98448857D01*
X149383715Y-98639333D01*
X149383715Y-98877429D01*
X149336096Y-99067905D01*
X149288477Y-99163143D01*
X149240858Y-99210762D01*
X149145620Y-99258381D01*
X149050381Y-99258381D01*
X148955143Y-99210762D01*
X148907524Y-99163143D01*
X148859905Y-99067905D01*
X148812286Y-98877429D01*
X148812286Y-98639333D01*
X148859905Y-98448857D01*
X148907524Y-98353619D01*
X148955143Y-98306000D01*
X149050381Y-98258381D01*
X147605715Y-99258381D02*
X147034286Y-99258381D01*
X147320000Y-99258381D02*
X147320000Y-98258381D01*
X147224762Y-98401238D01*
X147129524Y-98496476D01*
X147034286Y-98544095D01*
X145256286Y-98353619D02*
X145303905Y-98306000D01*
X145399143Y-98258381D01*
X145637239Y-98258381D01*
X145732477Y-98306000D01*
X145780096Y-98353619D01*
X145827715Y-98448857D01*
X145827715Y-98544095D01*
X145780096Y-98686952D01*
X145208667Y-99258381D01*
X145827715Y-99258381D01*
X142176477Y-98591714D02*
X142176477Y-99258381D01*
X141938381Y-98210762D02*
X141700286Y-98925048D01*
X142319334Y-98925048D01*
X143430667Y-98258381D02*
X144049715Y-98258381D01*
X143716381Y-98639333D01*
X143859239Y-98639333D01*
X143954477Y-98686952D01*
X144002096Y-98734571D01*
X144049715Y-98829810D01*
X144049715Y-99067905D01*
X144002096Y-99163143D01*
X143954477Y-99210762D01*
X143859239Y-99258381D01*
X143573524Y-99258381D01*
X143478286Y-99210762D01*
X143430667Y-99163143D01*
X143430667Y-76668381D02*
X144049715Y-76668381D01*
X143716381Y-77049333D01*
X143859239Y-77049333D01*
X143954477Y-77096952D01*
X144002096Y-77144571D01*
X144049715Y-77239810D01*
X144049715Y-77477905D01*
X144002096Y-77573143D01*
X143954477Y-77620762D01*
X143859239Y-77668381D01*
X143573524Y-77668381D01*
X143478286Y-77620762D01*
X143430667Y-77573143D01*
X145256286Y-76763619D02*
X145303905Y-76716000D01*
X145399143Y-76668381D01*
X145637239Y-76668381D01*
X145732477Y-76716000D01*
X145780096Y-76763619D01*
X145827715Y-76858857D01*
X145827715Y-76954095D01*
X145780096Y-77096952D01*
X145208667Y-77668381D01*
X145827715Y-77668381D01*
X142176477Y-77001714D02*
X142176477Y-77668381D01*
X141938381Y-76620762D02*
X141700286Y-77335048D01*
X142319334Y-77335048D01*
X149050381Y-76668381D02*
X149145620Y-76668381D01*
X149240858Y-76716000D01*
X149288477Y-76763619D01*
X149336096Y-76858857D01*
X149383715Y-77049333D01*
X149383715Y-77287429D01*
X149336096Y-77477905D01*
X149288477Y-77573143D01*
X149240858Y-77620762D01*
X149145620Y-77668381D01*
X149050381Y-77668381D01*
X148955143Y-77620762D01*
X148907524Y-77573143D01*
X148859905Y-77477905D01*
X148812286Y-77287429D01*
X148812286Y-77049333D01*
X148859905Y-76858857D01*
X148907524Y-76763619D01*
X148955143Y-76716000D01*
X149050381Y-76668381D01*
X147605715Y-77668381D02*
X147034286Y-77668381D01*
X147320000Y-77668381D02*
X147320000Y-76668381D01*
X147224762Y-76811238D01*
X147129524Y-76906476D01*
X147034286Y-76954095D01*
X131016381Y-76668381D02*
X131111620Y-76668381D01*
X131206858Y-76716000D01*
X131254477Y-76763619D01*
X131302096Y-76858857D01*
X131349715Y-77049333D01*
X131349715Y-77287429D01*
X131302096Y-77477905D01*
X131254477Y-77573143D01*
X131206858Y-77620762D01*
X131111620Y-77668381D01*
X131016381Y-77668381D01*
X130921143Y-77620762D01*
X130873524Y-77573143D01*
X130825905Y-77477905D01*
X130778286Y-77287429D01*
X130778286Y-77049333D01*
X130825905Y-76858857D01*
X130873524Y-76763619D01*
X130921143Y-76716000D01*
X131016381Y-76668381D01*
X127222286Y-76763619D02*
X127269905Y-76716000D01*
X127365143Y-76668381D01*
X127603239Y-76668381D01*
X127698477Y-76716000D01*
X127746096Y-76763619D01*
X127793715Y-76858857D01*
X127793715Y-76954095D01*
X127746096Y-77096952D01*
X127174667Y-77668381D01*
X127793715Y-77668381D01*
X129571715Y-77668381D02*
X129000286Y-77668381D01*
X129286000Y-77668381D02*
X129286000Y-76668381D01*
X129190762Y-76811238D01*
X129095524Y-76906476D01*
X129000286Y-76954095D01*
X125396667Y-76668381D02*
X126015715Y-76668381D01*
X125682381Y-77049333D01*
X125825239Y-77049333D01*
X125920477Y-77096952D01*
X125968096Y-77144571D01*
X126015715Y-77239810D01*
X126015715Y-77477905D01*
X125968096Y-77573143D01*
X125920477Y-77620762D01*
X125825239Y-77668381D01*
X125539524Y-77668381D01*
X125444286Y-77620762D01*
X125396667Y-77573143D01*
X124142477Y-77001714D02*
X124142477Y-77668381D01*
X123904381Y-76620762D02*
X123666286Y-77335048D01*
X124285334Y-77335048D01*
X120586477Y-76668381D02*
X120396000Y-76668381D01*
X120300762Y-76716000D01*
X120253143Y-76763619D01*
X120157905Y-76906476D01*
X120110286Y-77096952D01*
X120110286Y-77477905D01*
X120157905Y-77573143D01*
X120205524Y-77620762D01*
X120300762Y-77668381D01*
X120491239Y-77668381D01*
X120586477Y-77620762D01*
X120634096Y-77573143D01*
X120681715Y-77477905D01*
X120681715Y-77239810D01*
X120634096Y-77144571D01*
X120586477Y-77096952D01*
X120491239Y-77049333D01*
X120300762Y-77049333D01*
X120205524Y-77096952D01*
X120157905Y-77144571D01*
X120110286Y-77239810D01*
X122412096Y-76668381D02*
X121935905Y-76668381D01*
X121888286Y-77144571D01*
X121935905Y-77096952D01*
X122031143Y-77049333D01*
X122269239Y-77049333D01*
X122364477Y-77096952D01*
X122412096Y-77144571D01*
X122459715Y-77239810D01*
X122459715Y-77477905D01*
X122412096Y-77573143D01*
X122364477Y-77620762D01*
X122269239Y-77668381D01*
X122031143Y-77668381D01*
X121935905Y-77620762D01*
X121888286Y-77573143D01*
X118284667Y-76668381D02*
X118951334Y-76668381D01*
X118522762Y-77668381D01*
X136318667Y-76668381D02*
X136985334Y-76668381D01*
X136556762Y-77668381D01*
X138620477Y-76668381D02*
X138430000Y-76668381D01*
X138334762Y-76716000D01*
X138287143Y-76763619D01*
X138191905Y-76906476D01*
X138144286Y-77096952D01*
X138144286Y-77477905D01*
X138191905Y-77573143D01*
X138239524Y-77620762D01*
X138334762Y-77668381D01*
X138525239Y-77668381D01*
X138620477Y-77620762D01*
X138668096Y-77573143D01*
X138715715Y-77477905D01*
X138715715Y-77239810D01*
X138668096Y-77144571D01*
X138620477Y-77096952D01*
X138525239Y-77049333D01*
X138334762Y-77049333D01*
X138239524Y-77096952D01*
X138191905Y-77144571D01*
X138144286Y-77239810D01*
X140446096Y-76668381D02*
X139969905Y-76668381D01*
X139922286Y-77144571D01*
X139969905Y-77096952D01*
X140065143Y-77049333D01*
X140303239Y-77049333D01*
X140398477Y-77096952D01*
X140446096Y-77144571D01*
X140493715Y-77239810D01*
X140493715Y-77477905D01*
X140446096Y-77573143D01*
X140398477Y-77620762D01*
X140303239Y-77668381D01*
X140065143Y-77668381D01*
X139969905Y-77620762D01*
X139922286Y-77573143D01*
X185118381Y-76668381D02*
X185213620Y-76668381D01*
X185308858Y-76716000D01*
X185356477Y-76763619D01*
X185404096Y-76858857D01*
X185451715Y-77049333D01*
X185451715Y-77287429D01*
X185404096Y-77477905D01*
X185356477Y-77573143D01*
X185308858Y-77620762D01*
X185213620Y-77668381D01*
X185118381Y-77668381D01*
X185023143Y-77620762D01*
X184975524Y-77573143D01*
X184927905Y-77477905D01*
X184880286Y-77287429D01*
X184880286Y-77049333D01*
X184927905Y-76858857D01*
X184975524Y-76763619D01*
X185023143Y-76716000D01*
X185118381Y-76668381D01*
X181324286Y-76763619D02*
X181371905Y-76716000D01*
X181467143Y-76668381D01*
X181705239Y-76668381D01*
X181800477Y-76716000D01*
X181848096Y-76763619D01*
X181895715Y-76858857D01*
X181895715Y-76954095D01*
X181848096Y-77096952D01*
X181276667Y-77668381D01*
X181895715Y-77668381D01*
X183673715Y-77668381D02*
X183102286Y-77668381D01*
X183388000Y-77668381D02*
X183388000Y-76668381D01*
X183292762Y-76811238D01*
X183197524Y-76906476D01*
X183102286Y-76954095D01*
X172386667Y-76668381D02*
X173053334Y-76668381D01*
X172624762Y-77668381D01*
X174688477Y-76668381D02*
X174498000Y-76668381D01*
X174402762Y-76716000D01*
X174355143Y-76763619D01*
X174259905Y-76906476D01*
X174212286Y-77096952D01*
X174212286Y-77477905D01*
X174259905Y-77573143D01*
X174307524Y-77620762D01*
X174402762Y-77668381D01*
X174593239Y-77668381D01*
X174688477Y-77620762D01*
X174736096Y-77573143D01*
X174783715Y-77477905D01*
X174783715Y-77239810D01*
X174736096Y-77144571D01*
X174688477Y-77096952D01*
X174593239Y-77049333D01*
X174402762Y-77049333D01*
X174307524Y-77096952D01*
X174259905Y-77144571D01*
X174212286Y-77239810D01*
X165639715Y-77668381D02*
X165068286Y-77668381D01*
X165354000Y-77668381D02*
X165354000Y-76668381D01*
X165258762Y-76811238D01*
X165163524Y-76906476D01*
X165068286Y-76954095D01*
X167084381Y-76668381D02*
X167179620Y-76668381D01*
X167274858Y-76716000D01*
X167322477Y-76763619D01*
X167370096Y-76858857D01*
X167417715Y-77049333D01*
X167417715Y-77287429D01*
X167370096Y-77477905D01*
X167322477Y-77573143D01*
X167274858Y-77620762D01*
X167179620Y-77668381D01*
X167084381Y-77668381D01*
X166989143Y-77620762D01*
X166941524Y-77573143D01*
X166893905Y-77477905D01*
X166846286Y-77287429D01*
X166846286Y-77049333D01*
X166893905Y-76858857D01*
X166941524Y-76763619D01*
X166989143Y-76716000D01*
X167084381Y-76668381D01*
X179498667Y-76668381D02*
X180117715Y-76668381D01*
X179784381Y-77049333D01*
X179927239Y-77049333D01*
X180022477Y-77096952D01*
X180070096Y-77144571D01*
X180117715Y-77239810D01*
X180117715Y-77477905D01*
X180070096Y-77573143D01*
X180022477Y-77620762D01*
X179927239Y-77668381D01*
X179641524Y-77668381D01*
X179546286Y-77620762D01*
X179498667Y-77573143D01*
X178244477Y-77001714D02*
X178244477Y-77668381D01*
X178006381Y-76620762D02*
X177768286Y-77335048D01*
X178387334Y-77335048D01*
X176514096Y-76668381D02*
X176037905Y-76668381D01*
X175990286Y-77144571D01*
X176037905Y-77096952D01*
X176133143Y-77049333D01*
X176371239Y-77049333D01*
X176466477Y-77096952D01*
X176514096Y-77144571D01*
X176561715Y-77239810D01*
X176561715Y-77477905D01*
X176514096Y-77573143D01*
X176466477Y-77620762D01*
X176371239Y-77668381D01*
X176133143Y-77668381D01*
X176037905Y-77620762D01*
X175990286Y-77573143D01*
X158480096Y-76668381D02*
X158003905Y-76668381D01*
X157956286Y-77144571D01*
X158003905Y-77096952D01*
X158099143Y-77049333D01*
X158337239Y-77049333D01*
X158432477Y-77096952D01*
X158480096Y-77144571D01*
X158527715Y-77239810D01*
X158527715Y-77477905D01*
X158480096Y-77573143D01*
X158432477Y-77620762D01*
X158337239Y-77668381D01*
X158099143Y-77668381D01*
X158003905Y-77620762D01*
X157956286Y-77573143D01*
X160210477Y-77001714D02*
X160210477Y-77668381D01*
X159972381Y-76620762D02*
X159734286Y-77335048D01*
X160353334Y-77335048D01*
X161464667Y-76668381D02*
X162083715Y-76668381D01*
X161750381Y-77049333D01*
X161893239Y-77049333D01*
X161988477Y-77096952D01*
X162036096Y-77144571D01*
X162083715Y-77239810D01*
X162083715Y-77477905D01*
X162036096Y-77573143D01*
X161988477Y-77620762D01*
X161893239Y-77668381D01*
X161607524Y-77668381D01*
X161512286Y-77620762D01*
X161464667Y-77573143D01*
X163290286Y-76763619D02*
X163337905Y-76716000D01*
X163433143Y-76668381D01*
X163671239Y-76668381D01*
X163766477Y-76716000D01*
X163814096Y-76763619D01*
X163861715Y-76858857D01*
X163861715Y-76954095D01*
X163814096Y-77096952D01*
X163242667Y-77668381D01*
X163861715Y-77668381D01*
X154352667Y-76668381D02*
X155019334Y-76668381D01*
X154590762Y-77668381D01*
X156654477Y-76668381D02*
X156464000Y-76668381D01*
X156368762Y-76716000D01*
X156321143Y-76763619D01*
X156225905Y-76906476D01*
X156178286Y-77096952D01*
X156178286Y-77477905D01*
X156225905Y-77573143D01*
X156273524Y-77620762D01*
X156368762Y-77668381D01*
X156559239Y-77668381D01*
X156654477Y-77620762D01*
X156702096Y-77573143D01*
X156749715Y-77477905D01*
X156749715Y-77239810D01*
X156702096Y-77144571D01*
X156654477Y-77096952D01*
X156559239Y-77049333D01*
X156368762Y-77049333D01*
X156273524Y-77096952D01*
X156225905Y-77144571D01*
X156178286Y-77239810D01*
X160210477Y-98591714D02*
X160210477Y-99258381D01*
X159972381Y-98210762D02*
X159734286Y-98925048D01*
X160353334Y-98925048D01*
X158480096Y-98258381D02*
X158003905Y-98258381D01*
X157956286Y-98734571D01*
X158003905Y-98686952D01*
X158099143Y-98639333D01*
X158337239Y-98639333D01*
X158432477Y-98686952D01*
X158480096Y-98734571D01*
X158527715Y-98829810D01*
X158527715Y-99067905D01*
X158480096Y-99163143D01*
X158432477Y-99210762D01*
X158337239Y-99258381D01*
X158099143Y-99258381D01*
X158003905Y-99210762D01*
X157956286Y-99163143D01*
X154352667Y-98258381D02*
X155019334Y-98258381D01*
X154590762Y-99258381D01*
X156654477Y-98258381D02*
X156464000Y-98258381D01*
X156368762Y-98306000D01*
X156321143Y-98353619D01*
X156225905Y-98496476D01*
X156178286Y-98686952D01*
X156178286Y-99067905D01*
X156225905Y-99163143D01*
X156273524Y-99210762D01*
X156368762Y-99258381D01*
X156559239Y-99258381D01*
X156654477Y-99210762D01*
X156702096Y-99163143D01*
X156749715Y-99067905D01*
X156749715Y-98829810D01*
X156702096Y-98734571D01*
X156654477Y-98686952D01*
X156559239Y-98639333D01*
X156368762Y-98639333D01*
X156273524Y-98686952D01*
X156225905Y-98734571D01*
X156178286Y-98829810D01*
X167084381Y-98258381D02*
X167179620Y-98258381D01*
X167274858Y-98306000D01*
X167322477Y-98353619D01*
X167370096Y-98448857D01*
X167417715Y-98639333D01*
X167417715Y-98877429D01*
X167370096Y-99067905D01*
X167322477Y-99163143D01*
X167274858Y-99210762D01*
X167179620Y-99258381D01*
X167084381Y-99258381D01*
X166989143Y-99210762D01*
X166941524Y-99163143D01*
X166893905Y-99067905D01*
X166846286Y-98877429D01*
X166846286Y-98639333D01*
X166893905Y-98448857D01*
X166941524Y-98353619D01*
X166989143Y-98306000D01*
X167084381Y-98258381D01*
X165639715Y-99258381D02*
X165068286Y-99258381D01*
X165354000Y-99258381D02*
X165354000Y-98258381D01*
X165258762Y-98401238D01*
X165163524Y-98496476D01*
X165068286Y-98544095D01*
X163290286Y-98353619D02*
X163337905Y-98306000D01*
X163433143Y-98258381D01*
X163671239Y-98258381D01*
X163766477Y-98306000D01*
X163814096Y-98353619D01*
X163861715Y-98448857D01*
X163861715Y-98544095D01*
X163814096Y-98686952D01*
X163242667Y-99258381D01*
X163861715Y-99258381D01*
X161464667Y-98258381D02*
X162083715Y-98258381D01*
X161750381Y-98639333D01*
X161893239Y-98639333D01*
X161988477Y-98686952D01*
X162036096Y-98734571D01*
X162083715Y-98829810D01*
X162083715Y-99067905D01*
X162036096Y-99163143D01*
X161988477Y-99210762D01*
X161893239Y-99258381D01*
X161607524Y-99258381D01*
X161512286Y-99210762D01*
X161464667Y-99163143D01*
X185118381Y-98258381D02*
X185213620Y-98258381D01*
X185308858Y-98306000D01*
X185356477Y-98353619D01*
X185404096Y-98448857D01*
X185451715Y-98639333D01*
X185451715Y-98877429D01*
X185404096Y-99067905D01*
X185356477Y-99163143D01*
X185308858Y-99210762D01*
X185213620Y-99258381D01*
X185118381Y-99258381D01*
X185023143Y-99210762D01*
X184975524Y-99163143D01*
X184927905Y-99067905D01*
X184880286Y-98877429D01*
X184880286Y-98639333D01*
X184927905Y-98448857D01*
X184975524Y-98353619D01*
X185023143Y-98306000D01*
X185118381Y-98258381D01*
X183673715Y-99258381D02*
X183102286Y-99258381D01*
X183388000Y-99258381D02*
X183388000Y-98258381D01*
X183292762Y-98401238D01*
X183197524Y-98496476D01*
X183102286Y-98544095D01*
X181324286Y-98353619D02*
X181371905Y-98306000D01*
X181467143Y-98258381D01*
X181705239Y-98258381D01*
X181800477Y-98306000D01*
X181848096Y-98353619D01*
X181895715Y-98448857D01*
X181895715Y-98544095D01*
X181848096Y-98686952D01*
X181276667Y-99258381D01*
X181895715Y-99258381D01*
X179498667Y-98258381D02*
X180117715Y-98258381D01*
X179784381Y-98639333D01*
X179927239Y-98639333D01*
X180022477Y-98686952D01*
X180070096Y-98734571D01*
X180117715Y-98829810D01*
X180117715Y-99067905D01*
X180070096Y-99163143D01*
X180022477Y-99210762D01*
X179927239Y-99258381D01*
X179641524Y-99258381D01*
X179546286Y-99210762D01*
X179498667Y-99163143D01*
X178244477Y-98591714D02*
X178244477Y-99258381D01*
X178006381Y-98210762D02*
X177768286Y-98925048D01*
X178387334Y-98925048D01*
X176514096Y-98258381D02*
X176037905Y-98258381D01*
X175990286Y-98734571D01*
X176037905Y-98686952D01*
X176133143Y-98639333D01*
X176371239Y-98639333D01*
X176466477Y-98686952D01*
X176514096Y-98734571D01*
X176561715Y-98829810D01*
X176561715Y-99067905D01*
X176514096Y-99163143D01*
X176466477Y-99210762D01*
X176371239Y-99258381D01*
X176133143Y-99258381D01*
X176037905Y-99210762D01*
X175990286Y-99163143D01*
X174688477Y-98258381D02*
X174498000Y-98258381D01*
X174402762Y-98306000D01*
X174355143Y-98353619D01*
X174259905Y-98496476D01*
X174212286Y-98686952D01*
X174212286Y-99067905D01*
X174259905Y-99163143D01*
X174307524Y-99210762D01*
X174402762Y-99258381D01*
X174593239Y-99258381D01*
X174688477Y-99210762D01*
X174736096Y-99163143D01*
X174783715Y-99067905D01*
X174783715Y-98829810D01*
X174736096Y-98734571D01*
X174688477Y-98686952D01*
X174593239Y-98639333D01*
X174402762Y-98639333D01*
X174307524Y-98686952D01*
X174259905Y-98734571D01*
X174212286Y-98829810D01*
X172386667Y-98258381D02*
X173053334Y-98258381D01*
X172624762Y-99258381D01*
X138298000Y-111549000D02*
X138323000Y-111549000D01*
X138298000Y-107399000D02*
X138413000Y-107399000D01*
X147198000Y-107399000D02*
X147083000Y-107399000D01*
X147198000Y-111549000D02*
X147083000Y-111549000D01*
X138298000Y-111549000D02*
X138298000Y-107399000D01*
X147198000Y-111549000D02*
X147198000Y-107399000D01*
X138323000Y-111549000D02*
X138323000Y-112924000D01*
X140883000Y-103132000D02*
X140883000Y-104132000D01*
X139533000Y-104132000D02*
X139533000Y-103132000D01*
X136306000Y-107792000D02*
X136306000Y-107092000D01*
X137506000Y-107092000D02*
X137506000Y-107792000D01*
X148548000Y-99750700D02*
X148548000Y-101650700D01*
X149648000Y-99750700D02*
X149648000Y-101650700D01*
X149098000Y-100650700D02*
X149098000Y-101100700D01*
X149348000Y-100600700D02*
X148848000Y-100600700D01*
X149098000Y-100600700D02*
X149348000Y-100850700D01*
X149348000Y-100850700D02*
X148848000Y-100850700D01*
X148848000Y-100850700D02*
X149098000Y-100600700D01*
X149773000Y-103132000D02*
X149773000Y-104132000D01*
X148423000Y-104132000D02*
X148423000Y-103132000D01*
X146770000Y-99738000D02*
X146770000Y-101638000D01*
X147870000Y-99738000D02*
X147870000Y-101638000D01*
X147320000Y-100638000D02*
X147320000Y-101088000D01*
X147570000Y-100588000D02*
X147070000Y-100588000D01*
X147320000Y-100588000D02*
X147570000Y-100838000D01*
X147570000Y-100838000D02*
X147070000Y-100838000D01*
X147070000Y-100838000D02*
X147320000Y-100588000D01*
X143214000Y-99750700D02*
X143214000Y-101650700D01*
X144314000Y-99750700D02*
X144314000Y-101650700D01*
X143764000Y-100650700D02*
X143764000Y-101100700D01*
X144014000Y-100600700D02*
X143514000Y-100600700D01*
X143764000Y-100600700D02*
X144014000Y-100850700D01*
X144014000Y-100850700D02*
X143514000Y-100850700D01*
X143514000Y-100850700D02*
X143764000Y-100600700D01*
X144992000Y-99738000D02*
X144992000Y-101638000D01*
X146092000Y-99738000D02*
X146092000Y-101638000D01*
X145542000Y-100638000D02*
X145542000Y-101088000D01*
X145792000Y-100588000D02*
X145292000Y-100588000D01*
X145542000Y-100588000D02*
X145792000Y-100838000D01*
X145792000Y-100838000D02*
X145292000Y-100838000D01*
X145292000Y-100838000D02*
X145542000Y-100588000D01*
X141436000Y-99738000D02*
X141436000Y-101638000D01*
X142536000Y-99738000D02*
X142536000Y-101638000D01*
X141986000Y-100638000D02*
X141986000Y-101088000D01*
X142236000Y-100588000D02*
X141736000Y-100588000D01*
X141986000Y-100588000D02*
X142236000Y-100838000D01*
X142236000Y-100838000D02*
X141736000Y-100838000D01*
X141736000Y-100838000D02*
X141986000Y-100588000D01*
X142661000Y-103132000D02*
X142661000Y-104132000D01*
X141311000Y-104132000D02*
X141311000Y-103132000D01*
X146217000Y-103132000D02*
X146217000Y-104132000D01*
X144867000Y-104132000D02*
X144867000Y-103132000D01*
X144439000Y-103132000D02*
X144439000Y-104132000D01*
X143089000Y-104132000D02*
X143089000Y-103132000D01*
X147995000Y-103120000D02*
X147995000Y-104120000D01*
X146645000Y-104120000D02*
X146645000Y-103120000D01*
X126405000Y-81542000D02*
X126405000Y-82542000D01*
X125055000Y-82542000D02*
X125055000Y-81542000D01*
X120264000Y-89959000D02*
X120289000Y-89959000D01*
X120264000Y-85809000D02*
X120379000Y-85809000D01*
X129164000Y-85809000D02*
X129049000Y-85809000D01*
X129164000Y-89959000D02*
X129049000Y-89959000D01*
X120264000Y-89959000D02*
X120264000Y-85809000D01*
X129164000Y-89959000D02*
X129164000Y-85809000D01*
X120289000Y-89959000D02*
X120289000Y-91334000D01*
X144439000Y-81542000D02*
X144439000Y-82542000D01*
X143089000Y-82542000D02*
X143089000Y-81542000D01*
X149773000Y-81542000D02*
X149773000Y-82542000D01*
X148423000Y-82542000D02*
X148423000Y-81542000D01*
X136306000Y-86202000D02*
X136306000Y-85502000D01*
X137506000Y-85502000D02*
X137506000Y-86202000D01*
X138298000Y-89959000D02*
X138323000Y-89959000D01*
X138298000Y-85809000D02*
X138413000Y-85809000D01*
X147198000Y-85809000D02*
X147083000Y-85809000D01*
X147198000Y-89959000D02*
X147083000Y-89959000D01*
X138298000Y-89959000D02*
X138298000Y-85809000D01*
X147198000Y-89959000D02*
X147198000Y-85809000D01*
X138323000Y-89959000D02*
X138323000Y-91334000D01*
X124627000Y-81542000D02*
X124627000Y-82542000D01*
X123277000Y-82542000D02*
X123277000Y-81542000D01*
X118272000Y-86202000D02*
X118272000Y-85502000D01*
X119472000Y-85502000D02*
X119472000Y-86202000D01*
X119293000Y-81542000D02*
X119293000Y-82542000D01*
X117943000Y-82542000D02*
X117943000Y-81542000D01*
X121071000Y-81542000D02*
X121071000Y-82542000D01*
X119721000Y-82542000D02*
X119721000Y-81542000D01*
X122849000Y-81542000D02*
X122849000Y-82542000D01*
X121499000Y-82542000D02*
X121499000Y-81542000D01*
X139105000Y-81542000D02*
X139105000Y-82542000D01*
X137755000Y-82542000D02*
X137755000Y-81542000D01*
X140883000Y-81542000D02*
X140883000Y-82542000D01*
X139533000Y-82542000D02*
X139533000Y-81542000D01*
X137327000Y-81542000D02*
X137327000Y-82542000D01*
X135977000Y-82542000D02*
X135977000Y-81542000D01*
X137880000Y-78160700D02*
X137880000Y-80060700D01*
X138980000Y-78160700D02*
X138980000Y-80060700D01*
X138430000Y-79060700D02*
X138430000Y-79510700D01*
X138680000Y-79010700D02*
X138180000Y-79010700D01*
X138430000Y-79010700D02*
X138680000Y-79260700D01*
X138680000Y-79260700D02*
X138180000Y-79260700D01*
X138180000Y-79260700D02*
X138430000Y-79010700D01*
X136102000Y-78160700D02*
X136102000Y-80060700D01*
X137202000Y-78160700D02*
X137202000Y-80060700D01*
X136652000Y-79060700D02*
X136652000Y-79510700D01*
X136902000Y-79010700D02*
X136402000Y-79010700D01*
X136652000Y-79010700D02*
X136902000Y-79260700D01*
X136902000Y-79260700D02*
X136402000Y-79260700D01*
X136402000Y-79260700D02*
X136652000Y-79010700D01*
X139658000Y-78148000D02*
X139658000Y-80048000D01*
X140758000Y-78148000D02*
X140758000Y-80048000D01*
X140208000Y-79048000D02*
X140208000Y-79498000D01*
X140458000Y-78998000D02*
X139958000Y-78998000D01*
X140208000Y-78998000D02*
X140458000Y-79248000D01*
X140458000Y-79248000D02*
X139958000Y-79248000D01*
X139958000Y-79248000D02*
X140208000Y-78998000D01*
X141436000Y-78148000D02*
X141436000Y-80048000D01*
X142536000Y-78148000D02*
X142536000Y-80048000D01*
X141986000Y-79048000D02*
X141986000Y-79498000D01*
X142236000Y-78998000D02*
X141736000Y-78998000D01*
X141986000Y-78998000D02*
X142236000Y-79248000D01*
X142236000Y-79248000D02*
X141736000Y-79248000D01*
X141736000Y-79248000D02*
X141986000Y-78998000D01*
X142661000Y-81542000D02*
X142661000Y-82542000D01*
X141311000Y-82542000D02*
X141311000Y-81542000D01*
X130514000Y-78160700D02*
X130514000Y-80060700D01*
X131614000Y-78160700D02*
X131614000Y-80060700D01*
X131064000Y-79060700D02*
X131064000Y-79510700D01*
X131314000Y-79010700D02*
X130814000Y-79010700D01*
X131064000Y-79010700D02*
X131314000Y-79260700D01*
X131314000Y-79260700D02*
X130814000Y-79260700D01*
X130814000Y-79260700D02*
X131064000Y-79010700D01*
X128183000Y-81542000D02*
X128183000Y-82542000D01*
X126833000Y-82542000D02*
X126833000Y-81542000D01*
X128736000Y-78148000D02*
X128736000Y-80048000D01*
X129836000Y-78148000D02*
X129836000Y-80048000D01*
X129286000Y-79048000D02*
X129286000Y-79498000D01*
X129536000Y-78998000D02*
X129036000Y-78998000D01*
X129286000Y-78998000D02*
X129536000Y-79248000D01*
X129536000Y-79248000D02*
X129036000Y-79248000D01*
X129036000Y-79248000D02*
X129286000Y-78998000D01*
X129961000Y-81530000D02*
X129961000Y-82530000D01*
X128611000Y-82530000D02*
X128611000Y-81530000D01*
X125180000Y-78160700D02*
X125180000Y-80060700D01*
X126280000Y-78160700D02*
X126280000Y-80060700D01*
X125730000Y-79060700D02*
X125730000Y-79510700D01*
X125980000Y-79010700D02*
X125480000Y-79010700D01*
X125730000Y-79010700D02*
X125980000Y-79260700D01*
X125980000Y-79260700D02*
X125480000Y-79260700D01*
X125480000Y-79260700D02*
X125730000Y-79010700D01*
X131739000Y-81542000D02*
X131739000Y-82542000D01*
X130389000Y-82542000D02*
X130389000Y-81542000D01*
X126958000Y-78148000D02*
X126958000Y-80048000D01*
X128058000Y-78148000D02*
X128058000Y-80048000D01*
X127508000Y-79048000D02*
X127508000Y-79498000D01*
X127758000Y-78998000D02*
X127258000Y-78998000D01*
X127508000Y-78998000D02*
X127758000Y-79248000D01*
X127758000Y-79248000D02*
X127258000Y-79248000D01*
X127258000Y-79248000D02*
X127508000Y-78998000D01*
X118068000Y-78160700D02*
X118068000Y-80060700D01*
X119168000Y-78160700D02*
X119168000Y-80060700D01*
X118618000Y-79060700D02*
X118618000Y-79510700D01*
X118868000Y-79010700D02*
X118368000Y-79010700D01*
X118618000Y-79010700D02*
X118868000Y-79260700D01*
X118868000Y-79260700D02*
X118368000Y-79260700D01*
X118368000Y-79260700D02*
X118618000Y-79010700D01*
X121624000Y-78148000D02*
X121624000Y-80048000D01*
X122724000Y-78148000D02*
X122724000Y-80048000D01*
X122174000Y-79048000D02*
X122174000Y-79498000D01*
X122424000Y-78998000D02*
X121924000Y-78998000D01*
X122174000Y-78998000D02*
X122424000Y-79248000D01*
X122424000Y-79248000D02*
X121924000Y-79248000D01*
X121924000Y-79248000D02*
X122174000Y-78998000D01*
X119846000Y-78160700D02*
X119846000Y-80060700D01*
X120946000Y-78160700D02*
X120946000Y-80060700D01*
X120396000Y-79060700D02*
X120396000Y-79510700D01*
X120646000Y-79010700D02*
X120146000Y-79010700D01*
X120396000Y-79010700D02*
X120646000Y-79260700D01*
X120646000Y-79260700D02*
X120146000Y-79260700D01*
X120146000Y-79260700D02*
X120396000Y-79010700D01*
X123402000Y-78148000D02*
X123402000Y-80048000D01*
X124502000Y-78148000D02*
X124502000Y-80048000D01*
X123952000Y-79048000D02*
X123952000Y-79498000D01*
X124202000Y-78998000D02*
X123702000Y-78998000D01*
X123952000Y-78998000D02*
X124202000Y-79248000D01*
X124202000Y-79248000D02*
X123702000Y-79248000D01*
X123702000Y-79248000D02*
X123952000Y-78998000D01*
X148548000Y-78160700D02*
X148548000Y-80060700D01*
X149648000Y-78160700D02*
X149648000Y-80060700D01*
X149098000Y-79060700D02*
X149098000Y-79510700D01*
X149348000Y-79010700D02*
X148848000Y-79010700D01*
X149098000Y-79010700D02*
X149348000Y-79260700D01*
X149348000Y-79260700D02*
X148848000Y-79260700D01*
X148848000Y-79260700D02*
X149098000Y-79010700D01*
X143214000Y-78160700D02*
X143214000Y-80060700D01*
X144314000Y-78160700D02*
X144314000Y-80060700D01*
X143764000Y-79060700D02*
X143764000Y-79510700D01*
X144014000Y-79010700D02*
X143514000Y-79010700D01*
X143764000Y-79010700D02*
X144014000Y-79260700D01*
X144014000Y-79260700D02*
X143514000Y-79260700D01*
X143514000Y-79260700D02*
X143764000Y-79010700D01*
X146217000Y-81542000D02*
X146217000Y-82542000D01*
X144867000Y-82542000D02*
X144867000Y-81542000D01*
X146770000Y-78148000D02*
X146770000Y-80048000D01*
X147870000Y-78148000D02*
X147870000Y-80048000D01*
X147320000Y-79048000D02*
X147320000Y-79498000D01*
X147570000Y-78998000D02*
X147070000Y-78998000D01*
X147320000Y-78998000D02*
X147570000Y-79248000D01*
X147570000Y-79248000D02*
X147070000Y-79248000D01*
X147070000Y-79248000D02*
X147320000Y-78998000D01*
X147995000Y-81530000D02*
X147995000Y-82530000D01*
X146645000Y-82530000D02*
X146645000Y-81530000D01*
X144992000Y-78148000D02*
X144992000Y-80048000D01*
X146092000Y-78148000D02*
X146092000Y-80048000D01*
X145542000Y-79048000D02*
X145542000Y-79498000D01*
X145792000Y-78998000D02*
X145292000Y-78998000D01*
X145542000Y-78998000D02*
X145792000Y-79248000D01*
X145792000Y-79248000D02*
X145292000Y-79248000D01*
X145292000Y-79248000D02*
X145542000Y-78998000D01*
X137880000Y-99750700D02*
X137880000Y-101650700D01*
X138980000Y-99750700D02*
X138980000Y-101650700D01*
X138430000Y-100650700D02*
X138430000Y-101100700D01*
X138680000Y-100600700D02*
X138180000Y-100600700D01*
X138430000Y-100600700D02*
X138680000Y-100850700D01*
X138680000Y-100850700D02*
X138180000Y-100850700D01*
X138180000Y-100850700D02*
X138430000Y-100600700D01*
X136102000Y-99750700D02*
X136102000Y-101650700D01*
X137202000Y-99750700D02*
X137202000Y-101650700D01*
X136652000Y-100650700D02*
X136652000Y-101100700D01*
X136902000Y-100600700D02*
X136402000Y-100600700D01*
X136652000Y-100600700D02*
X136902000Y-100850700D01*
X136902000Y-100850700D02*
X136402000Y-100850700D01*
X136402000Y-100850700D02*
X136652000Y-100600700D01*
X137327000Y-103132000D02*
X137327000Y-104132000D01*
X135977000Y-104132000D02*
X135977000Y-103132000D01*
X139105000Y-103132000D02*
X139105000Y-104132000D01*
X137755000Y-104132000D02*
X137755000Y-103132000D01*
X139658000Y-99738000D02*
X139658000Y-101638000D01*
X140758000Y-99738000D02*
X140758000Y-101638000D01*
X140208000Y-100638000D02*
X140208000Y-101088000D01*
X140458000Y-100588000D02*
X139958000Y-100588000D01*
X140208000Y-100588000D02*
X140458000Y-100838000D01*
X140458000Y-100838000D02*
X139958000Y-100838000D01*
X139958000Y-100838000D02*
X140208000Y-100588000D01*
X118272000Y-107792000D02*
X118272000Y-107092000D01*
X119472000Y-107092000D02*
X119472000Y-107792000D01*
X120264000Y-111549000D02*
X120289000Y-111549000D01*
X120264000Y-107399000D02*
X120379000Y-107399000D01*
X129164000Y-107399000D02*
X129049000Y-107399000D01*
X129164000Y-111549000D02*
X129049000Y-111549000D01*
X120264000Y-111549000D02*
X120264000Y-107399000D01*
X129164000Y-111549000D02*
X129164000Y-107399000D01*
X120289000Y-111549000D02*
X120289000Y-112924000D01*
X130514000Y-99750700D02*
X130514000Y-101650700D01*
X131614000Y-99750700D02*
X131614000Y-101650700D01*
X131064000Y-100650700D02*
X131064000Y-101100700D01*
X131314000Y-100600700D02*
X130814000Y-100600700D01*
X131064000Y-100600700D02*
X131314000Y-100850700D01*
X131314000Y-100850700D02*
X130814000Y-100850700D01*
X130814000Y-100850700D02*
X131064000Y-100600700D01*
X129961000Y-103120000D02*
X129961000Y-104120000D01*
X128611000Y-104120000D02*
X128611000Y-103120000D01*
X128736000Y-99738000D02*
X128736000Y-101638000D01*
X129836000Y-99738000D02*
X129836000Y-101638000D01*
X129286000Y-100638000D02*
X129286000Y-101088000D01*
X129536000Y-100588000D02*
X129036000Y-100588000D01*
X129286000Y-100588000D02*
X129536000Y-100838000D01*
X129536000Y-100838000D02*
X129036000Y-100838000D01*
X129036000Y-100838000D02*
X129286000Y-100588000D01*
X126958000Y-99738000D02*
X126958000Y-101638000D01*
X128058000Y-99738000D02*
X128058000Y-101638000D01*
X127508000Y-100638000D02*
X127508000Y-101088000D01*
X127758000Y-100588000D02*
X127258000Y-100588000D01*
X127508000Y-100588000D02*
X127758000Y-100838000D01*
X127758000Y-100838000D02*
X127258000Y-100838000D01*
X127258000Y-100838000D02*
X127508000Y-100588000D01*
X125180000Y-99750700D02*
X125180000Y-101650700D01*
X126280000Y-99750700D02*
X126280000Y-101650700D01*
X125730000Y-100650700D02*
X125730000Y-101100700D01*
X125980000Y-100600700D02*
X125480000Y-100600700D01*
X125730000Y-100600700D02*
X125980000Y-100850700D01*
X125980000Y-100850700D02*
X125480000Y-100850700D01*
X125480000Y-100850700D02*
X125730000Y-100600700D01*
X124627000Y-103132000D02*
X124627000Y-104132000D01*
X123277000Y-104132000D02*
X123277000Y-103132000D01*
X131739000Y-103132000D02*
X131739000Y-104132000D01*
X130389000Y-104132000D02*
X130389000Y-103132000D01*
X126405000Y-103132000D02*
X126405000Y-104132000D01*
X125055000Y-104132000D02*
X125055000Y-103132000D01*
X128183000Y-103132000D02*
X128183000Y-104132000D01*
X126833000Y-104132000D02*
X126833000Y-103132000D01*
X123402000Y-99738000D02*
X123402000Y-101638000D01*
X124502000Y-99738000D02*
X124502000Y-101638000D01*
X123952000Y-100638000D02*
X123952000Y-101088000D01*
X124202000Y-100588000D02*
X123702000Y-100588000D01*
X123952000Y-100588000D02*
X124202000Y-100838000D01*
X124202000Y-100838000D02*
X123702000Y-100838000D01*
X123702000Y-100838000D02*
X123952000Y-100588000D01*
X118068000Y-99750700D02*
X118068000Y-101650700D01*
X119168000Y-99750700D02*
X119168000Y-101650700D01*
X118618000Y-100650700D02*
X118618000Y-101100700D01*
X118868000Y-100600700D02*
X118368000Y-100600700D01*
X118618000Y-100600700D02*
X118868000Y-100850700D01*
X118868000Y-100850700D02*
X118368000Y-100850700D01*
X118368000Y-100850700D02*
X118618000Y-100600700D01*
X119293000Y-103132000D02*
X119293000Y-104132000D01*
X117943000Y-104132000D02*
X117943000Y-103132000D01*
X121624000Y-99738000D02*
X121624000Y-101638000D01*
X122724000Y-99738000D02*
X122724000Y-101638000D01*
X122174000Y-100638000D02*
X122174000Y-101088000D01*
X122424000Y-100588000D02*
X121924000Y-100588000D01*
X122174000Y-100588000D02*
X122424000Y-100838000D01*
X122424000Y-100838000D02*
X121924000Y-100838000D01*
X121924000Y-100838000D02*
X122174000Y-100588000D01*
X119846000Y-99750700D02*
X119846000Y-101650700D01*
X120946000Y-99750700D02*
X120946000Y-101650700D01*
X120396000Y-100650700D02*
X120396000Y-101100700D01*
X120646000Y-100600700D02*
X120146000Y-100600700D01*
X120396000Y-100600700D02*
X120646000Y-100850700D01*
X120646000Y-100850700D02*
X120146000Y-100850700D01*
X120146000Y-100850700D02*
X120396000Y-100600700D01*
X122849000Y-103132000D02*
X122849000Y-104132000D01*
X121499000Y-104132000D02*
X121499000Y-103132000D01*
X121071000Y-103132000D02*
X121071000Y-104132000D01*
X119721000Y-104132000D02*
X119721000Y-103132000D01*
X174366000Y-89959000D02*
X174391000Y-89959000D01*
X174366000Y-85809000D02*
X174481000Y-85809000D01*
X183266000Y-85809000D02*
X183151000Y-85809000D01*
X183266000Y-89959000D02*
X183151000Y-89959000D01*
X174366000Y-89959000D02*
X174366000Y-85809000D01*
X183266000Y-89959000D02*
X183266000Y-85809000D01*
X174391000Y-89959000D02*
X174391000Y-91334000D01*
X172374000Y-86202000D02*
X172374000Y-85502000D01*
X173574000Y-85502000D02*
X173574000Y-86202000D01*
X178729000Y-81542000D02*
X178729000Y-82542000D01*
X177379000Y-82542000D02*
X177379000Y-81542000D01*
X184616000Y-78160700D02*
X184616000Y-80060700D01*
X185716000Y-78160700D02*
X185716000Y-80060700D01*
X185166000Y-79060700D02*
X185166000Y-79510700D01*
X185416000Y-79010700D02*
X184916000Y-79010700D01*
X185166000Y-79010700D02*
X185416000Y-79260700D01*
X185416000Y-79260700D02*
X184916000Y-79260700D01*
X184916000Y-79260700D02*
X185166000Y-79010700D01*
X179282000Y-78160700D02*
X179282000Y-80060700D01*
X180382000Y-78160700D02*
X180382000Y-80060700D01*
X179832000Y-79060700D02*
X179832000Y-79510700D01*
X180082000Y-79010700D02*
X179582000Y-79010700D01*
X179832000Y-79010700D02*
X180082000Y-79260700D01*
X180082000Y-79260700D02*
X179582000Y-79260700D01*
X179582000Y-79260700D02*
X179832000Y-79010700D01*
X182838000Y-78148000D02*
X182838000Y-80048000D01*
X183938000Y-78148000D02*
X183938000Y-80048000D01*
X183388000Y-79048000D02*
X183388000Y-79498000D01*
X183638000Y-78998000D02*
X183138000Y-78998000D01*
X183388000Y-78998000D02*
X183638000Y-79248000D01*
X183638000Y-79248000D02*
X183138000Y-79248000D01*
X183138000Y-79248000D02*
X183388000Y-78998000D01*
X181060000Y-78148000D02*
X181060000Y-80048000D01*
X182160000Y-78148000D02*
X182160000Y-80048000D01*
X181610000Y-79048000D02*
X181610000Y-79498000D01*
X181860000Y-78998000D02*
X181360000Y-78998000D01*
X181610000Y-78998000D02*
X181860000Y-79248000D01*
X181860000Y-79248000D02*
X181360000Y-79248000D01*
X181360000Y-79248000D02*
X181610000Y-78998000D01*
X177504000Y-78148000D02*
X177504000Y-80048000D01*
X178604000Y-78148000D02*
X178604000Y-80048000D01*
X178054000Y-79048000D02*
X178054000Y-79498000D01*
X178304000Y-78998000D02*
X177804000Y-78998000D01*
X178054000Y-78998000D02*
X178304000Y-79248000D01*
X178304000Y-79248000D02*
X177804000Y-79248000D01*
X177804000Y-79248000D02*
X178054000Y-78998000D01*
X172170000Y-78160700D02*
X172170000Y-80060700D01*
X173270000Y-78160700D02*
X173270000Y-80060700D01*
X172720000Y-79060700D02*
X172720000Y-79510700D01*
X172970000Y-79010700D02*
X172470000Y-79010700D01*
X172720000Y-79010700D02*
X172970000Y-79260700D01*
X172970000Y-79260700D02*
X172470000Y-79260700D01*
X172470000Y-79260700D02*
X172720000Y-79010700D01*
X175173000Y-81542000D02*
X175173000Y-82542000D01*
X173823000Y-82542000D02*
X173823000Y-81542000D01*
X173948000Y-78160700D02*
X173948000Y-80060700D01*
X175048000Y-78160700D02*
X175048000Y-80060700D01*
X174498000Y-79060700D02*
X174498000Y-79510700D01*
X174748000Y-79010700D02*
X174248000Y-79010700D01*
X174498000Y-79010700D02*
X174748000Y-79260700D01*
X174748000Y-79260700D02*
X174248000Y-79260700D01*
X174248000Y-79260700D02*
X174498000Y-79010700D01*
X173395000Y-81542000D02*
X173395000Y-82542000D01*
X172045000Y-82542000D02*
X172045000Y-81542000D01*
X176951000Y-81542000D02*
X176951000Y-82542000D01*
X175601000Y-82542000D02*
X175601000Y-81542000D01*
X175726000Y-78148000D02*
X175726000Y-80048000D01*
X176826000Y-78148000D02*
X176826000Y-80048000D01*
X176276000Y-79048000D02*
X176276000Y-79498000D01*
X176526000Y-78998000D02*
X176026000Y-78998000D01*
X176276000Y-78998000D02*
X176526000Y-79248000D01*
X176526000Y-79248000D02*
X176026000Y-79248000D01*
X176026000Y-79248000D02*
X176276000Y-78998000D01*
X157139000Y-81542000D02*
X157139000Y-82542000D01*
X155789000Y-82542000D02*
X155789000Y-81542000D01*
X159470000Y-78148000D02*
X159470000Y-80048000D01*
X160570000Y-78148000D02*
X160570000Y-80048000D01*
X160020000Y-79048000D02*
X160020000Y-79498000D01*
X160270000Y-78998000D02*
X159770000Y-78998000D01*
X160020000Y-78998000D02*
X160270000Y-79248000D01*
X160270000Y-79248000D02*
X159770000Y-79248000D01*
X159770000Y-79248000D02*
X160020000Y-78998000D01*
X157692000Y-78148000D02*
X157692000Y-80048000D01*
X158792000Y-78148000D02*
X158792000Y-80048000D01*
X158242000Y-79048000D02*
X158242000Y-79498000D01*
X158492000Y-78998000D02*
X157992000Y-78998000D01*
X158242000Y-78998000D02*
X158492000Y-79248000D01*
X158492000Y-79248000D02*
X157992000Y-79248000D01*
X157992000Y-79248000D02*
X158242000Y-78998000D01*
X155914000Y-78160700D02*
X155914000Y-80060700D01*
X157014000Y-78160700D02*
X157014000Y-80060700D01*
X156464000Y-79060700D02*
X156464000Y-79510700D01*
X156714000Y-79010700D02*
X156214000Y-79010700D01*
X156464000Y-79010700D02*
X156714000Y-79260700D01*
X156714000Y-79260700D02*
X156214000Y-79260700D01*
X156214000Y-79260700D02*
X156464000Y-79010700D01*
X154136000Y-78160700D02*
X154136000Y-80060700D01*
X155236000Y-78160700D02*
X155236000Y-80060700D01*
X154686000Y-79060700D02*
X154686000Y-79510700D01*
X154936000Y-79010700D02*
X154436000Y-79010700D01*
X154686000Y-79010700D02*
X154936000Y-79260700D01*
X154936000Y-79260700D02*
X154436000Y-79260700D01*
X154436000Y-79260700D02*
X154686000Y-79010700D01*
X158917000Y-81542000D02*
X158917000Y-82542000D01*
X157567000Y-82542000D02*
X157567000Y-81542000D01*
X155361000Y-81542000D02*
X155361000Y-82542000D01*
X154011000Y-82542000D02*
X154011000Y-81542000D01*
X156332000Y-89959000D02*
X156357000Y-89959000D01*
X156332000Y-85809000D02*
X156447000Y-85809000D01*
X165232000Y-85809000D02*
X165117000Y-85809000D01*
X165232000Y-89959000D02*
X165117000Y-89959000D01*
X156332000Y-89959000D02*
X156332000Y-85809000D01*
X165232000Y-89959000D02*
X165232000Y-85809000D01*
X156357000Y-89959000D02*
X156357000Y-91334000D01*
X164251000Y-81542000D02*
X164251000Y-82542000D01*
X162901000Y-82542000D02*
X162901000Y-81542000D01*
X160695000Y-81542000D02*
X160695000Y-82542000D01*
X159345000Y-82542000D02*
X159345000Y-81542000D01*
X167807000Y-81542000D02*
X167807000Y-82542000D01*
X166457000Y-82542000D02*
X166457000Y-81542000D01*
X154340000Y-86202000D02*
X154340000Y-85502000D01*
X155540000Y-85502000D02*
X155540000Y-86202000D01*
X162473000Y-81542000D02*
X162473000Y-82542000D01*
X161123000Y-82542000D02*
X161123000Y-81542000D01*
X166582000Y-78160700D02*
X166582000Y-80060700D01*
X167682000Y-78160700D02*
X167682000Y-80060700D01*
X167132000Y-79060700D02*
X167132000Y-79510700D01*
X167382000Y-79010700D02*
X166882000Y-79010700D01*
X167132000Y-79010700D02*
X167382000Y-79260700D01*
X167382000Y-79260700D02*
X166882000Y-79260700D01*
X166882000Y-79260700D02*
X167132000Y-79010700D01*
X166029000Y-81530000D02*
X166029000Y-82530000D01*
X164679000Y-82530000D02*
X164679000Y-81530000D01*
X164804000Y-78148000D02*
X164804000Y-80048000D01*
X165904000Y-78148000D02*
X165904000Y-80048000D01*
X165354000Y-79048000D02*
X165354000Y-79498000D01*
X165604000Y-78998000D02*
X165104000Y-78998000D01*
X165354000Y-78998000D02*
X165604000Y-79248000D01*
X165604000Y-79248000D02*
X165104000Y-79248000D01*
X165104000Y-79248000D02*
X165354000Y-78998000D01*
X163026000Y-78148000D02*
X163026000Y-80048000D01*
X164126000Y-78148000D02*
X164126000Y-80048000D01*
X163576000Y-79048000D02*
X163576000Y-79498000D01*
X163826000Y-78998000D02*
X163326000Y-78998000D01*
X163576000Y-78998000D02*
X163826000Y-79248000D01*
X163826000Y-79248000D02*
X163326000Y-79248000D01*
X163326000Y-79248000D02*
X163576000Y-78998000D01*
X161248000Y-78160700D02*
X161248000Y-80060700D01*
X162348000Y-78160700D02*
X162348000Y-80060700D01*
X161798000Y-79060700D02*
X161798000Y-79510700D01*
X162048000Y-79010700D02*
X161548000Y-79010700D01*
X161798000Y-79010700D02*
X162048000Y-79260700D01*
X162048000Y-79260700D02*
X161548000Y-79260700D01*
X161548000Y-79260700D02*
X161798000Y-79010700D01*
X185841000Y-81542000D02*
X185841000Y-82542000D01*
X184491000Y-82542000D02*
X184491000Y-81542000D01*
X182285000Y-81542000D02*
X182285000Y-82542000D01*
X180935000Y-82542000D02*
X180935000Y-81542000D01*
X184063000Y-81530000D02*
X184063000Y-82530000D01*
X182713000Y-82530000D02*
X182713000Y-81530000D01*
X180507000Y-81542000D02*
X180507000Y-82542000D01*
X179157000Y-82542000D02*
X179157000Y-81542000D01*
X161248000Y-99750700D02*
X161248000Y-101650700D01*
X162348000Y-99750700D02*
X162348000Y-101650700D01*
X161798000Y-100650700D02*
X161798000Y-101100700D01*
X162048000Y-100600700D02*
X161548000Y-100600700D01*
X161798000Y-100600700D02*
X162048000Y-100850700D01*
X162048000Y-100850700D02*
X161548000Y-100850700D01*
X161548000Y-100850700D02*
X161798000Y-100600700D01*
X166029000Y-103120000D02*
X166029000Y-104120000D01*
X164679000Y-104120000D02*
X164679000Y-103120000D01*
X164251000Y-103132000D02*
X164251000Y-104132000D01*
X162901000Y-104132000D02*
X162901000Y-103132000D01*
X166582000Y-99750700D02*
X166582000Y-101650700D01*
X167682000Y-99750700D02*
X167682000Y-101650700D01*
X167132000Y-100650700D02*
X167132000Y-101100700D01*
X167382000Y-100600700D02*
X166882000Y-100600700D01*
X167132000Y-100600700D02*
X167382000Y-100850700D01*
X167382000Y-100850700D02*
X166882000Y-100850700D01*
X166882000Y-100850700D02*
X167132000Y-100600700D01*
X164804000Y-99738000D02*
X164804000Y-101638000D01*
X165904000Y-99738000D02*
X165904000Y-101638000D01*
X165354000Y-100638000D02*
X165354000Y-101088000D01*
X165604000Y-100588000D02*
X165104000Y-100588000D01*
X165354000Y-100588000D02*
X165604000Y-100838000D01*
X165604000Y-100838000D02*
X165104000Y-100838000D01*
X165104000Y-100838000D02*
X165354000Y-100588000D01*
X163026000Y-99738000D02*
X163026000Y-101638000D01*
X164126000Y-99738000D02*
X164126000Y-101638000D01*
X163576000Y-100638000D02*
X163576000Y-101088000D01*
X163826000Y-100588000D02*
X163326000Y-100588000D01*
X163576000Y-100588000D02*
X163826000Y-100838000D01*
X163826000Y-100838000D02*
X163326000Y-100838000D01*
X163326000Y-100838000D02*
X163576000Y-100588000D01*
X162473000Y-103132000D02*
X162473000Y-104132000D01*
X161123000Y-104132000D02*
X161123000Y-103132000D01*
X156332000Y-111549000D02*
X156357000Y-111549000D01*
X156332000Y-107399000D02*
X156447000Y-107399000D01*
X165232000Y-107399000D02*
X165117000Y-107399000D01*
X165232000Y-111549000D02*
X165117000Y-111549000D01*
X156332000Y-111549000D02*
X156332000Y-107399000D01*
X165232000Y-111549000D02*
X165232000Y-107399000D01*
X156357000Y-111549000D02*
X156357000Y-112924000D01*
X167807000Y-103132000D02*
X167807000Y-104132000D01*
X166457000Y-104132000D02*
X166457000Y-103132000D01*
X154340000Y-107792000D02*
X154340000Y-107092000D01*
X155540000Y-107092000D02*
X155540000Y-107792000D01*
X160695000Y-103132000D02*
X160695000Y-104132000D01*
X159345000Y-104132000D02*
X159345000Y-103132000D01*
X158917000Y-103132000D02*
X158917000Y-104132000D01*
X157567000Y-104132000D02*
X157567000Y-103132000D01*
X157139000Y-103132000D02*
X157139000Y-104132000D01*
X155789000Y-104132000D02*
X155789000Y-103132000D01*
X157692000Y-99738000D02*
X157692000Y-101638000D01*
X158792000Y-99738000D02*
X158792000Y-101638000D01*
X158242000Y-100638000D02*
X158242000Y-101088000D01*
X158492000Y-100588000D02*
X157992000Y-100588000D01*
X158242000Y-100588000D02*
X158492000Y-100838000D01*
X158492000Y-100838000D02*
X157992000Y-100838000D01*
X157992000Y-100838000D02*
X158242000Y-100588000D01*
X159470000Y-99738000D02*
X159470000Y-101638000D01*
X160570000Y-99738000D02*
X160570000Y-101638000D01*
X160020000Y-100638000D02*
X160020000Y-101088000D01*
X160270000Y-100588000D02*
X159770000Y-100588000D01*
X160020000Y-100588000D02*
X160270000Y-100838000D01*
X160270000Y-100838000D02*
X159770000Y-100838000D01*
X159770000Y-100838000D02*
X160020000Y-100588000D01*
X155914000Y-99750700D02*
X155914000Y-101650700D01*
X157014000Y-99750700D02*
X157014000Y-101650700D01*
X156464000Y-100650700D02*
X156464000Y-101100700D01*
X156714000Y-100600700D02*
X156214000Y-100600700D01*
X156464000Y-100600700D02*
X156714000Y-100850700D01*
X156714000Y-100850700D02*
X156214000Y-100850700D01*
X156214000Y-100850700D02*
X156464000Y-100600700D01*
X154136000Y-99750700D02*
X154136000Y-101650700D01*
X155236000Y-99750700D02*
X155236000Y-101650700D01*
X154686000Y-100650700D02*
X154686000Y-101100700D01*
X154936000Y-100600700D02*
X154436000Y-100600700D01*
X154686000Y-100600700D02*
X154936000Y-100850700D01*
X154936000Y-100850700D02*
X154436000Y-100850700D01*
X154436000Y-100850700D02*
X154686000Y-100600700D01*
X155361000Y-103132000D02*
X155361000Y-104132000D01*
X154011000Y-104132000D02*
X154011000Y-103132000D01*
X172374000Y-107792000D02*
X172374000Y-107092000D01*
X173574000Y-107092000D02*
X173574000Y-107792000D01*
X172170000Y-99750700D02*
X172170000Y-101650700D01*
X173270000Y-99750700D02*
X173270000Y-101650700D01*
X172720000Y-100650700D02*
X172720000Y-101100700D01*
X172970000Y-100600700D02*
X172470000Y-100600700D01*
X172720000Y-100600700D02*
X172970000Y-100850700D01*
X172970000Y-100850700D02*
X172470000Y-100850700D01*
X172470000Y-100850700D02*
X172720000Y-100600700D01*
X173948000Y-99750700D02*
X173948000Y-101650700D01*
X175048000Y-99750700D02*
X175048000Y-101650700D01*
X174498000Y-100650700D02*
X174498000Y-101100700D01*
X174748000Y-100600700D02*
X174248000Y-100600700D01*
X174498000Y-100600700D02*
X174748000Y-100850700D01*
X174748000Y-100850700D02*
X174248000Y-100850700D01*
X174248000Y-100850700D02*
X174498000Y-100600700D01*
X175726000Y-99738000D02*
X175726000Y-101638000D01*
X176826000Y-99738000D02*
X176826000Y-101638000D01*
X176276000Y-100638000D02*
X176276000Y-101088000D01*
X176526000Y-100588000D02*
X176026000Y-100588000D01*
X176276000Y-100588000D02*
X176526000Y-100838000D01*
X176526000Y-100838000D02*
X176026000Y-100838000D01*
X176026000Y-100838000D02*
X176276000Y-100588000D01*
X177504000Y-99738000D02*
X177504000Y-101638000D01*
X178604000Y-99738000D02*
X178604000Y-101638000D01*
X178054000Y-100638000D02*
X178054000Y-101088000D01*
X178304000Y-100588000D02*
X177804000Y-100588000D01*
X178054000Y-100588000D02*
X178304000Y-100838000D01*
X178304000Y-100838000D02*
X177804000Y-100838000D01*
X177804000Y-100838000D02*
X178054000Y-100588000D01*
X179282000Y-99750700D02*
X179282000Y-101650700D01*
X180382000Y-99750700D02*
X180382000Y-101650700D01*
X179832000Y-100650700D02*
X179832000Y-101100700D01*
X180082000Y-100600700D02*
X179582000Y-100600700D01*
X179832000Y-100600700D02*
X180082000Y-100850700D01*
X180082000Y-100850700D02*
X179582000Y-100850700D01*
X179582000Y-100850700D02*
X179832000Y-100600700D01*
X181060000Y-99738000D02*
X181060000Y-101638000D01*
X182160000Y-99738000D02*
X182160000Y-101638000D01*
X181610000Y-100638000D02*
X181610000Y-101088000D01*
X181860000Y-100588000D02*
X181360000Y-100588000D01*
X181610000Y-100588000D02*
X181860000Y-100838000D01*
X181860000Y-100838000D02*
X181360000Y-100838000D01*
X181360000Y-100838000D02*
X181610000Y-100588000D01*
X182838000Y-99738000D02*
X182838000Y-101638000D01*
X183938000Y-99738000D02*
X183938000Y-101638000D01*
X183388000Y-100638000D02*
X183388000Y-101088000D01*
X183638000Y-100588000D02*
X183138000Y-100588000D01*
X183388000Y-100588000D02*
X183638000Y-100838000D01*
X183638000Y-100838000D02*
X183138000Y-100838000D01*
X183138000Y-100838000D02*
X183388000Y-100588000D01*
X184616000Y-99750700D02*
X184616000Y-101650700D01*
X185716000Y-99750700D02*
X185716000Y-101650700D01*
X185166000Y-100650700D02*
X185166000Y-101100700D01*
X185416000Y-100600700D02*
X184916000Y-100600700D01*
X185166000Y-100600700D02*
X185416000Y-100850700D01*
X185416000Y-100850700D02*
X184916000Y-100850700D01*
X184916000Y-100850700D02*
X185166000Y-100600700D01*
X173395000Y-103132000D02*
X173395000Y-104132000D01*
X172045000Y-104132000D02*
X172045000Y-103132000D01*
X175173000Y-103132000D02*
X175173000Y-104132000D01*
X173823000Y-104132000D02*
X173823000Y-103132000D01*
X176951000Y-103132000D02*
X176951000Y-104132000D01*
X175601000Y-104132000D02*
X175601000Y-103132000D01*
X178729000Y-103132000D02*
X178729000Y-104132000D01*
X177379000Y-104132000D02*
X177379000Y-103132000D01*
X180507000Y-103132000D02*
X180507000Y-104132000D01*
X179157000Y-104132000D02*
X179157000Y-103132000D01*
X182285000Y-103132000D02*
X182285000Y-104132000D01*
X180935000Y-104132000D02*
X180935000Y-103132000D01*
X184063000Y-103120000D02*
X184063000Y-104120000D01*
X182713000Y-104120000D02*
X182713000Y-103120000D01*
X185841000Y-103132000D02*
X185841000Y-104132000D01*
X184491000Y-104132000D02*
X184491000Y-103132000D01*
X174366000Y-111549000D02*
X174391000Y-111549000D01*
X174366000Y-107399000D02*
X174481000Y-107399000D01*
X183266000Y-107399000D02*
X183151000Y-107399000D01*
X183266000Y-111549000D02*
X183151000Y-111549000D01*
X174366000Y-111549000D02*
X174366000Y-107399000D01*
X183266000Y-111549000D02*
X183266000Y-107399000D01*
X174391000Y-111549000D02*
X174391000Y-112924000D01*
M02*
