M48
;DRILL file {KiCad 4.0.5+dfsg1-4} date Mon Jun 15 22:33:47 2020
;FORMAT={-:-/ absolute / inch / decimal}
FMAT,2
INCH,TZ
T1C0.016
T2C0.040
%
G90
G05
M72
T1
X4.86Y-3.51
X4.86Y-4.36
X4.97Y-3.29
X4.97Y-4.14
X5.01Y-3.415
X5.01Y-3.51
X5.01Y-4.265
X5.01Y-4.36
X5.16Y-3.29
X5.16Y-4.14
X5.57Y-3.51
X5.57Y-4.36
X5.68Y-3.29
X5.68Y-4.14
X5.72Y-3.415
X5.72Y-3.51
X5.72Y-4.265
X5.72Y-4.36
X5.87Y-3.29
X5.87Y-4.14
X6.28Y-3.51
X6.28Y-4.36
X6.39Y-3.29
X6.39Y-4.14
X6.43Y-3.415
X6.43Y-3.51
X6.43Y-4.265
X6.43Y-4.36
X6.58Y-3.29
X6.58Y-4.14
X6.99Y-3.51
X6.99Y-4.36
X7.1Y-3.29
X7.1Y-4.14
X7.14Y-3.415
X7.14Y-3.51
X7.14Y-4.265
X7.14Y-4.36
X7.29Y-3.29
X7.29Y-4.14
T2
X4.76Y-3.68
X4.76Y-4.53
X4.86Y-3.68
X4.86Y-4.53
X4.96Y-3.68
X4.96Y-4.53
X5.06Y-3.68
X5.06Y-4.53
X5.47Y-3.68
X5.47Y-4.53
X5.57Y-3.68
X5.57Y-4.53
X5.67Y-3.68
X5.67Y-4.53
X5.77Y-3.68
X5.77Y-4.53
X6.18Y-3.68
X6.18Y-4.53
X6.28Y-3.68
X6.28Y-4.53
X6.38Y-3.68
X6.38Y-4.53
X6.48Y-3.68
X6.48Y-4.53
X6.89Y-3.68
X6.89Y-4.53
X6.99Y-3.68
X6.99Y-4.53
X7.09Y-3.68
X7.09Y-4.53
X7.19Y-3.68
X7.19Y-4.53
T0
M30
