G04 #@! TF.FileFunction,Profile,NP*
%FSLAX46Y46*%
G04 Gerber Fmt 4.6, Leading zero omitted, Abs format (unit mm)*
G04 Created by KiCad (PCBNEW 4.0.5+dfsg1-4) date Fri May 29 23:18:49 2020*
%MOMM*%
%LPD*%
G01*
G04 APERTURE LIST*
%ADD10C,0.100000*%
%ADD11C,0.150000*%
G04 APERTURE END LIST*
D10*
D11*
X101600000Y-146304000D02*
X101600000Y-60198000D01*
X212090000Y-146304000D02*
X101600000Y-146304000D01*
X212090000Y-60198000D02*
X212090000Y-146304000D01*
X101600000Y-60198000D02*
X212090000Y-60198000D01*
X175260000Y-88900000D02*
X138430000Y-88900000D01*
X138430000Y-88900000D02*
X175260000Y-88900000D01*
X138430000Y-88900000D02*
X138430000Y-60198000D01*
X138430000Y-60198000D02*
X138430000Y-88900000D01*
X175260000Y-88900000D02*
X212090000Y-88900000D01*
X175260000Y-60198000D02*
X175260000Y-88900000D01*
X212090000Y-88900000D02*
X175260000Y-88900000D01*
X175260000Y-88900000D02*
X175260000Y-60198000D01*
X101600000Y-88900000D02*
X138430000Y-88900000D01*
X138430000Y-88900000D02*
X101600000Y-88900000D01*
X138430000Y-88900000D02*
X138430000Y-60198000D01*
X101600000Y-88900000D02*
X138430000Y-88900000D01*
X101600000Y-117602000D02*
X138430000Y-117602000D01*
X138430000Y-117602000D02*
X101600000Y-117602000D01*
X138430000Y-117602000D02*
X138430000Y-88900000D01*
X138430000Y-88900000D02*
X138430000Y-117602000D01*
X138430000Y-117602000D02*
X138430000Y-146304000D01*
X138430000Y-146304000D02*
X138430000Y-117602000D01*
X175260000Y-117602000D02*
X212090000Y-117602000D01*
X138430000Y-117602000D02*
X175260000Y-117602000D01*
X175260000Y-117602000D02*
X175260000Y-146304000D01*
X138430000Y-146304000D02*
X138430000Y-117602000D01*
X175260000Y-146304000D02*
X175260000Y-117602000D01*
X212090000Y-117602000D02*
X175260000Y-117602000D01*
X175260000Y-88900000D02*
X212090000Y-88900000D01*
X175260000Y-117602000D02*
X175260000Y-88900000D01*
X175260000Y-88900000D02*
X175260000Y-117602000D01*
X138430000Y-88900000D02*
X175260000Y-88900000D01*
X138430000Y-117602000D02*
X138430000Y-88900000D01*
X175260000Y-117602000D02*
X138430000Y-117602000D01*
M02*
