G04 #@! TF.FileFunction,Legend,Bot*
%FSLAX46Y46*%
G04 Gerber Fmt 4.6, Leading zero omitted, Abs format (unit mm)*
G04 Created by KiCad (PCBNEW 4.0.5+dfsg1-4) date Fri May 29 23:18:48 2020*
%MOMM*%
%LPD*%
G01*
G04 APERTURE LIST*
%ADD10C,0.100000*%
%ADD11C,0.150000*%
G04 APERTURE END LIST*
D10*
D11*
X148387381Y-86383905D02*
X147387381Y-86383905D01*
X147387381Y-86764858D01*
X147435000Y-86860096D01*
X147482619Y-86907715D01*
X147577857Y-86955334D01*
X147720714Y-86955334D01*
X147815952Y-86907715D01*
X147863571Y-86860096D01*
X147911190Y-86764858D01*
X147911190Y-86383905D01*
X148387381Y-87907715D02*
X148387381Y-87336286D01*
X148387381Y-87622000D02*
X147387381Y-87622000D01*
X147530238Y-87526762D01*
X147625476Y-87431524D01*
X147673095Y-87336286D01*
X111557381Y-86383905D02*
X110557381Y-86383905D01*
X110557381Y-86764858D01*
X110605000Y-86860096D01*
X110652619Y-86907715D01*
X110747857Y-86955334D01*
X110890714Y-86955334D01*
X110985952Y-86907715D01*
X111033571Y-86860096D01*
X111081190Y-86764858D01*
X111081190Y-86383905D01*
X111557381Y-87907715D02*
X111557381Y-87336286D01*
X111557381Y-87622000D02*
X110557381Y-87622000D01*
X110700238Y-87526762D01*
X110795476Y-87431524D01*
X110843095Y-87336286D01*
X185217381Y-86383905D02*
X184217381Y-86383905D01*
X184217381Y-86764858D01*
X184265000Y-86860096D01*
X184312619Y-86907715D01*
X184407857Y-86955334D01*
X184550714Y-86955334D01*
X184645952Y-86907715D01*
X184693571Y-86860096D01*
X184741190Y-86764858D01*
X184741190Y-86383905D01*
X185217381Y-87907715D02*
X185217381Y-87336286D01*
X185217381Y-87622000D02*
X184217381Y-87622000D01*
X184360238Y-87526762D01*
X184455476Y-87431524D01*
X184503095Y-87336286D01*
X111557381Y-115085905D02*
X110557381Y-115085905D01*
X110557381Y-115466858D01*
X110605000Y-115562096D01*
X110652619Y-115609715D01*
X110747857Y-115657334D01*
X110890714Y-115657334D01*
X110985952Y-115609715D01*
X111033571Y-115562096D01*
X111081190Y-115466858D01*
X111081190Y-115085905D01*
X111557381Y-116609715D02*
X111557381Y-116038286D01*
X111557381Y-116324000D02*
X110557381Y-116324000D01*
X110700238Y-116228762D01*
X110795476Y-116133524D01*
X110843095Y-116038286D01*
X111557381Y-143787905D02*
X110557381Y-143787905D01*
X110557381Y-144168858D01*
X110605000Y-144264096D01*
X110652619Y-144311715D01*
X110747857Y-144359334D01*
X110890714Y-144359334D01*
X110985952Y-144311715D01*
X111033571Y-144264096D01*
X111081190Y-144168858D01*
X111081190Y-143787905D01*
X111557381Y-145311715D02*
X111557381Y-144740286D01*
X111557381Y-145026000D02*
X110557381Y-145026000D01*
X110700238Y-144930762D01*
X110795476Y-144835524D01*
X110843095Y-144740286D01*
X185217381Y-143787905D02*
X184217381Y-143787905D01*
X184217381Y-144168858D01*
X184265000Y-144264096D01*
X184312619Y-144311715D01*
X184407857Y-144359334D01*
X184550714Y-144359334D01*
X184645952Y-144311715D01*
X184693571Y-144264096D01*
X184741190Y-144168858D01*
X184741190Y-143787905D01*
X185217381Y-145311715D02*
X185217381Y-144740286D01*
X185217381Y-145026000D02*
X184217381Y-145026000D01*
X184360238Y-144930762D01*
X184455476Y-144835524D01*
X184503095Y-144740286D01*
X148387381Y-143787905D02*
X147387381Y-143787905D01*
X147387381Y-144168858D01*
X147435000Y-144264096D01*
X147482619Y-144311715D01*
X147577857Y-144359334D01*
X147720714Y-144359334D01*
X147815952Y-144311715D01*
X147863571Y-144264096D01*
X147911190Y-144168858D01*
X147911190Y-143787905D01*
X148387381Y-145311715D02*
X148387381Y-144740286D01*
X148387381Y-145026000D02*
X147387381Y-145026000D01*
X147530238Y-144930762D01*
X147625476Y-144835524D01*
X147673095Y-144740286D01*
X185217381Y-115085905D02*
X184217381Y-115085905D01*
X184217381Y-115466858D01*
X184265000Y-115562096D01*
X184312619Y-115609715D01*
X184407857Y-115657334D01*
X184550714Y-115657334D01*
X184645952Y-115609715D01*
X184693571Y-115562096D01*
X184741190Y-115466858D01*
X184741190Y-115085905D01*
X185217381Y-116609715D02*
X185217381Y-116038286D01*
X185217381Y-116324000D02*
X184217381Y-116324000D01*
X184360238Y-116228762D01*
X184455476Y-116133524D01*
X184503095Y-116038286D01*
X148387381Y-115085905D02*
X147387381Y-115085905D01*
X147387381Y-115466858D01*
X147435000Y-115562096D01*
X147482619Y-115609715D01*
X147577857Y-115657334D01*
X147720714Y-115657334D01*
X147815952Y-115609715D01*
X147863571Y-115562096D01*
X147911190Y-115466858D01*
X147911190Y-115085905D01*
X148387381Y-116609715D02*
X148387381Y-116038286D01*
X148387381Y-116324000D02*
X147387381Y-116324000D01*
X147530238Y-116228762D01*
X147625476Y-116133524D01*
X147673095Y-116038286D01*
M02*
