G04 #@! TF.FileFunction,Soldermask,Top*
%FSLAX46Y46*%
G04 Gerber Fmt 4.6, Leading zero omitted, Abs format (unit mm)*
G04 Created by KiCad (PCBNEW 4.0.5+dfsg1-4) date Fri May 29 23:18:49 2020*
%MOMM*%
%LPD*%
G01*
G04 APERTURE LIST*
%ADD10C,0.100000*%
%ADD11O,1.927200X2.500000*%
%ADD12R,1.800000X1.800000*%
%ADD13O,1.800000X1.800000*%
%ADD14R,2.200000X2.200000*%
%ADD15C,2.200000*%
%ADD16O,1.800000X2.500000*%
%ADD17C,2.700000*%
%ADD18R,1.500000X1.500000*%
%ADD19C,1.500000*%
G04 APERTURE END LIST*
D10*
D11*
X153035000Y-87122000D03*
X155575000Y-87122000D03*
X158115000Y-87122000D03*
X160655000Y-87122000D03*
X116205000Y-87122000D03*
X118745000Y-87122000D03*
X121285000Y-87122000D03*
X123825000Y-87122000D03*
X189865000Y-87122000D03*
X192405000Y-87122000D03*
X194945000Y-87122000D03*
X197485000Y-87122000D03*
D12*
X167005000Y-62865000D03*
D13*
X164465000Y-62865000D03*
X161925000Y-62865000D03*
X159385000Y-62865000D03*
X156845000Y-62865000D03*
X154305000Y-62865000D03*
X151765000Y-62865000D03*
X149225000Y-62865000D03*
X146685000Y-62865000D03*
D14*
X154686000Y-66294000D03*
D15*
X154686000Y-68834000D03*
D14*
X163576000Y-66294000D03*
D15*
X163576000Y-68834000D03*
D14*
X150241000Y-66294000D03*
D15*
X150241000Y-68834000D03*
D14*
X145796000Y-66294000D03*
D15*
X145796000Y-68834000D03*
D14*
X159131000Y-66294000D03*
D15*
X159131000Y-68834000D03*
D16*
X149225000Y-81534000D03*
X151765000Y-81534000D03*
X154305000Y-81534000D03*
X156845000Y-81534000D03*
X159385000Y-81534000D03*
X161925000Y-81534000D03*
X164465000Y-81534000D03*
X164465000Y-73914000D03*
X161925000Y-73914000D03*
X159385000Y-73914000D03*
X156845000Y-73914000D03*
X154305000Y-73914000D03*
X151765000Y-73914000D03*
X149225000Y-73914000D03*
D17*
X166370000Y-86868000D03*
X147320000Y-86868000D03*
D18*
X144653000Y-79034000D03*
D19*
X144653000Y-81534000D03*
D17*
X173228000Y-62230000D03*
D14*
X168021000Y-66294000D03*
D15*
X168021000Y-68834000D03*
D14*
X172466000Y-66294000D03*
D15*
X172466000Y-68834000D03*
D14*
X113411000Y-66294000D03*
D15*
X113411000Y-68834000D03*
D14*
X104521000Y-66294000D03*
D15*
X104521000Y-68834000D03*
D14*
X108966000Y-66294000D03*
D15*
X108966000Y-68834000D03*
D17*
X103632000Y-62230000D03*
D14*
X141351000Y-66294000D03*
D15*
X141351000Y-68834000D03*
D17*
X136398000Y-62230000D03*
D14*
X135636000Y-66294000D03*
D15*
X135636000Y-68834000D03*
D17*
X140462000Y-62230000D03*
D12*
X130175000Y-62865000D03*
D13*
X127635000Y-62865000D03*
X125095000Y-62865000D03*
X122555000Y-62865000D03*
X120015000Y-62865000D03*
X117475000Y-62865000D03*
X114935000Y-62865000D03*
X112395000Y-62865000D03*
X109855000Y-62865000D03*
D14*
X126746000Y-66294000D03*
D15*
X126746000Y-68834000D03*
D14*
X122301000Y-66294000D03*
D15*
X122301000Y-68834000D03*
D14*
X131191000Y-66294000D03*
D15*
X131191000Y-68834000D03*
D14*
X117856000Y-66294000D03*
D15*
X117856000Y-68834000D03*
D17*
X110490000Y-86868000D03*
X129540000Y-86868000D03*
D16*
X112395000Y-81534000D03*
X114935000Y-81534000D03*
X117475000Y-81534000D03*
X120015000Y-81534000D03*
X122555000Y-81534000D03*
X125095000Y-81534000D03*
X127635000Y-81534000D03*
X127635000Y-73914000D03*
X125095000Y-73914000D03*
X122555000Y-73914000D03*
X120015000Y-73914000D03*
X117475000Y-73914000D03*
X114935000Y-73914000D03*
X112395000Y-73914000D03*
D18*
X107823000Y-79034000D03*
D19*
X107823000Y-81534000D03*
D14*
X182626000Y-66294000D03*
D15*
X182626000Y-68834000D03*
D14*
X178181000Y-66294000D03*
D15*
X178181000Y-68834000D03*
D17*
X177292000Y-62230000D03*
D14*
X187071000Y-66294000D03*
D15*
X187071000Y-68834000D03*
D14*
X191516000Y-66294000D03*
D15*
X191516000Y-68834000D03*
D12*
X203835000Y-62865000D03*
D13*
X201295000Y-62865000D03*
X198755000Y-62865000D03*
X196215000Y-62865000D03*
X193675000Y-62865000D03*
X191135000Y-62865000D03*
X188595000Y-62865000D03*
X186055000Y-62865000D03*
X183515000Y-62865000D03*
D17*
X203200000Y-86868000D03*
D18*
X181483000Y-79034000D03*
D19*
X181483000Y-81534000D03*
D16*
X186055000Y-81534000D03*
X188595000Y-81534000D03*
X191135000Y-81534000D03*
X193675000Y-81534000D03*
X196215000Y-81534000D03*
X198755000Y-81534000D03*
X201295000Y-81534000D03*
X201295000Y-73914000D03*
X198755000Y-73914000D03*
X196215000Y-73914000D03*
X193675000Y-73914000D03*
X191135000Y-73914000D03*
X188595000Y-73914000D03*
X186055000Y-73914000D03*
D17*
X184150000Y-86868000D03*
D14*
X204851000Y-66294000D03*
D15*
X204851000Y-68834000D03*
D14*
X200406000Y-66294000D03*
D15*
X200406000Y-68834000D03*
D14*
X209296000Y-66294000D03*
D15*
X209296000Y-68834000D03*
D17*
X210058000Y-62230000D03*
D14*
X195961000Y-66294000D03*
D15*
X195961000Y-68834000D03*
D11*
X116205000Y-115824000D03*
X118745000Y-115824000D03*
X121285000Y-115824000D03*
X123825000Y-115824000D03*
X116205000Y-144526000D03*
X118745000Y-144526000D03*
X121285000Y-144526000D03*
X123825000Y-144526000D03*
D14*
X135636000Y-94996000D03*
D15*
X135636000Y-97536000D03*
D14*
X131191000Y-94996000D03*
D15*
X131191000Y-97536000D03*
D17*
X136398000Y-90932000D03*
D14*
X126746000Y-94996000D03*
D15*
X126746000Y-97536000D03*
D12*
X130175000Y-91567000D03*
D13*
X127635000Y-91567000D03*
X125095000Y-91567000D03*
X122555000Y-91567000D03*
X120015000Y-91567000D03*
X117475000Y-91567000D03*
X114935000Y-91567000D03*
X112395000Y-91567000D03*
X109855000Y-91567000D03*
D14*
X122301000Y-94996000D03*
D15*
X122301000Y-97536000D03*
D17*
X103632000Y-119634000D03*
D14*
X104521000Y-123698000D03*
D15*
X104521000Y-126238000D03*
D18*
X107823000Y-136438000D03*
D19*
X107823000Y-138938000D03*
D17*
X110490000Y-144272000D03*
D14*
X113411000Y-123698000D03*
D15*
X113411000Y-126238000D03*
D14*
X108966000Y-123698000D03*
D15*
X108966000Y-126238000D03*
D14*
X135636000Y-123698000D03*
D15*
X135636000Y-126238000D03*
D14*
X126746000Y-123698000D03*
D15*
X126746000Y-126238000D03*
D16*
X112395000Y-138938000D03*
X114935000Y-138938000D03*
X117475000Y-138938000D03*
X120015000Y-138938000D03*
X122555000Y-138938000D03*
X125095000Y-138938000D03*
X127635000Y-138938000D03*
X127635000Y-131318000D03*
X125095000Y-131318000D03*
X122555000Y-131318000D03*
X120015000Y-131318000D03*
X117475000Y-131318000D03*
X114935000Y-131318000D03*
X112395000Y-131318000D03*
D17*
X129540000Y-144272000D03*
D14*
X117856000Y-123698000D03*
D15*
X117856000Y-126238000D03*
D14*
X122301000Y-123698000D03*
D15*
X122301000Y-126238000D03*
D14*
X131191000Y-123698000D03*
D15*
X131191000Y-126238000D03*
D18*
X107823000Y-107736000D03*
D19*
X107823000Y-110236000D03*
D17*
X136398000Y-119634000D03*
D12*
X130175000Y-120269000D03*
D13*
X127635000Y-120269000D03*
X125095000Y-120269000D03*
X122555000Y-120269000D03*
X120015000Y-120269000D03*
X117475000Y-120269000D03*
X114935000Y-120269000D03*
X112395000Y-120269000D03*
X109855000Y-120269000D03*
D16*
X112395000Y-110236000D03*
X114935000Y-110236000D03*
X117475000Y-110236000D03*
X120015000Y-110236000D03*
X122555000Y-110236000D03*
X125095000Y-110236000D03*
X127635000Y-110236000D03*
X127635000Y-102616000D03*
X125095000Y-102616000D03*
X122555000Y-102616000D03*
X120015000Y-102616000D03*
X117475000Y-102616000D03*
X114935000Y-102616000D03*
X112395000Y-102616000D03*
D17*
X110490000Y-115570000D03*
X129540000Y-115570000D03*
D14*
X108966000Y-94996000D03*
D15*
X108966000Y-97536000D03*
D14*
X117856000Y-94996000D03*
D15*
X117856000Y-97536000D03*
D17*
X103632000Y-90932000D03*
D14*
X104521000Y-94996000D03*
D15*
X104521000Y-97536000D03*
D14*
X113411000Y-94996000D03*
D15*
X113411000Y-97536000D03*
D11*
X189865000Y-144526000D03*
X192405000Y-144526000D03*
X194945000Y-144526000D03*
X197485000Y-144526000D03*
X153035000Y-144526000D03*
X155575000Y-144526000D03*
X158115000Y-144526000D03*
X160655000Y-144526000D03*
D18*
X181483000Y-136438000D03*
D19*
X181483000Y-138938000D03*
D17*
X184150000Y-144272000D03*
D16*
X186055000Y-138938000D03*
X188595000Y-138938000D03*
X191135000Y-138938000D03*
X193675000Y-138938000D03*
X196215000Y-138938000D03*
X198755000Y-138938000D03*
X201295000Y-138938000D03*
X201295000Y-131318000D03*
X198755000Y-131318000D03*
X196215000Y-131318000D03*
X193675000Y-131318000D03*
X191135000Y-131318000D03*
X188595000Y-131318000D03*
X186055000Y-131318000D03*
D17*
X203200000Y-144272000D03*
D16*
X149225000Y-138938000D03*
X151765000Y-138938000D03*
X154305000Y-138938000D03*
X156845000Y-138938000D03*
X159385000Y-138938000D03*
X161925000Y-138938000D03*
X164465000Y-138938000D03*
X164465000Y-131318000D03*
X161925000Y-131318000D03*
X159385000Y-131318000D03*
X156845000Y-131318000D03*
X154305000Y-131318000D03*
X151765000Y-131318000D03*
X149225000Y-131318000D03*
D14*
X163576000Y-123698000D03*
D15*
X163576000Y-126238000D03*
D14*
X159131000Y-123698000D03*
D15*
X159131000Y-126238000D03*
D17*
X166370000Y-144272000D03*
D18*
X144653000Y-136438000D03*
D19*
X144653000Y-138938000D03*
D17*
X147320000Y-144272000D03*
D12*
X167005000Y-120269000D03*
D13*
X164465000Y-120269000D03*
X161925000Y-120269000D03*
X159385000Y-120269000D03*
X156845000Y-120269000D03*
X154305000Y-120269000D03*
X151765000Y-120269000D03*
X149225000Y-120269000D03*
X146685000Y-120269000D03*
D14*
X182626000Y-123698000D03*
D15*
X182626000Y-126238000D03*
D14*
X191516000Y-123698000D03*
D15*
X191516000Y-126238000D03*
D12*
X203835000Y-120269000D03*
D13*
X201295000Y-120269000D03*
X198755000Y-120269000D03*
X196215000Y-120269000D03*
X193675000Y-120269000D03*
X191135000Y-120269000D03*
X188595000Y-120269000D03*
X186055000Y-120269000D03*
X183515000Y-120269000D03*
D14*
X187071000Y-123698000D03*
D15*
X187071000Y-126238000D03*
D14*
X195961000Y-123698000D03*
D15*
X195961000Y-126238000D03*
D14*
X200406000Y-123698000D03*
D15*
X200406000Y-126238000D03*
D14*
X204851000Y-123698000D03*
D15*
X204851000Y-126238000D03*
D17*
X210058000Y-119634000D03*
D14*
X209296000Y-123698000D03*
D15*
X209296000Y-126238000D03*
D14*
X141351000Y-123698000D03*
D15*
X141351000Y-126238000D03*
D14*
X145796000Y-123698000D03*
D15*
X145796000Y-126238000D03*
D17*
X140462000Y-119634000D03*
D14*
X150241000Y-123698000D03*
D15*
X150241000Y-126238000D03*
D14*
X154686000Y-123698000D03*
D15*
X154686000Y-126238000D03*
D14*
X178181000Y-123698000D03*
D15*
X178181000Y-126238000D03*
D14*
X168021000Y-123698000D03*
D15*
X168021000Y-126238000D03*
D17*
X173228000Y-119634000D03*
X177292000Y-119634000D03*
D14*
X172466000Y-123698000D03*
D15*
X172466000Y-126238000D03*
D11*
X189865000Y-115824000D03*
X192405000Y-115824000D03*
X194945000Y-115824000D03*
X197485000Y-115824000D03*
D17*
X177292000Y-90932000D03*
X184150000Y-115570000D03*
D14*
X182626000Y-94996000D03*
D15*
X182626000Y-97536000D03*
D14*
X178181000Y-94996000D03*
D15*
X178181000Y-97536000D03*
D18*
X181483000Y-107736000D03*
D19*
X181483000Y-110236000D03*
D16*
X186055000Y-110236000D03*
X188595000Y-110236000D03*
X191135000Y-110236000D03*
X193675000Y-110236000D03*
X196215000Y-110236000D03*
X198755000Y-110236000D03*
X201295000Y-110236000D03*
X201295000Y-102616000D03*
X198755000Y-102616000D03*
X196215000Y-102616000D03*
X193675000Y-102616000D03*
X191135000Y-102616000D03*
X188595000Y-102616000D03*
X186055000Y-102616000D03*
D12*
X203835000Y-91567000D03*
D13*
X201295000Y-91567000D03*
X198755000Y-91567000D03*
X196215000Y-91567000D03*
X193675000Y-91567000D03*
X191135000Y-91567000D03*
X188595000Y-91567000D03*
X186055000Y-91567000D03*
X183515000Y-91567000D03*
D14*
X195961000Y-94996000D03*
D15*
X195961000Y-97536000D03*
D14*
X187071000Y-94996000D03*
D15*
X187071000Y-97536000D03*
D14*
X200406000Y-94996000D03*
D15*
X200406000Y-97536000D03*
D14*
X191516000Y-94996000D03*
D15*
X191516000Y-97536000D03*
D14*
X209296000Y-94996000D03*
D15*
X209296000Y-97536000D03*
D17*
X210058000Y-90932000D03*
D14*
X204851000Y-94996000D03*
D15*
X204851000Y-97536000D03*
D17*
X203200000Y-115570000D03*
X147320000Y-115570000D03*
X166370000Y-115570000D03*
X173228000Y-90932000D03*
D18*
X144653000Y-107736000D03*
D19*
X144653000Y-110236000D03*
D14*
X141351000Y-94996000D03*
D15*
X141351000Y-97536000D03*
D14*
X145796000Y-94996000D03*
D15*
X145796000Y-97536000D03*
D14*
X150241000Y-94996000D03*
D15*
X150241000Y-97536000D03*
D14*
X154686000Y-94996000D03*
D15*
X154686000Y-97536000D03*
D14*
X159131000Y-94996000D03*
D15*
X159131000Y-97536000D03*
D14*
X163576000Y-94996000D03*
D15*
X163576000Y-97536000D03*
D14*
X168021000Y-94996000D03*
D15*
X168021000Y-97536000D03*
D14*
X172466000Y-94996000D03*
D15*
X172466000Y-97536000D03*
D12*
X167005000Y-91567000D03*
D13*
X164465000Y-91567000D03*
X161925000Y-91567000D03*
X159385000Y-91567000D03*
X156845000Y-91567000D03*
X154305000Y-91567000D03*
X151765000Y-91567000D03*
X149225000Y-91567000D03*
X146685000Y-91567000D03*
D16*
X149225000Y-110236000D03*
X151765000Y-110236000D03*
X154305000Y-110236000D03*
X156845000Y-110236000D03*
X159385000Y-110236000D03*
X161925000Y-110236000D03*
X164465000Y-110236000D03*
X164465000Y-102616000D03*
X161925000Y-102616000D03*
X159385000Y-102616000D03*
X156845000Y-102616000D03*
X154305000Y-102616000D03*
X151765000Y-102616000D03*
X149225000Y-102616000D03*
D17*
X140462000Y-90932000D03*
D11*
X153035000Y-115824000D03*
X155575000Y-115824000D03*
X158115000Y-115824000D03*
X160655000Y-115824000D03*
M02*
