M48
;DRILL file {KiCad 4.0.5+dfsg1-4} date Fri May 29 23:18:51 2020
;FORMAT={-:-/ absolute / inch / decimal}
FMAT,2
INCH,TZ
T1C0.031
T2C0.032
T3C0.039
T4C0.040
%
G90
G05
M72
T1
X4.245Y-3.1116
X4.245Y-4.2416
X4.245Y-5.3716
X4.325Y-2.475
X4.325Y-3.605
X4.325Y-4.735
X4.425Y-2.475
X4.425Y-2.91
X4.425Y-3.21
X4.425Y-3.605
X4.425Y-4.04
X4.425Y-4.34
X4.425Y-4.735
X4.425Y-5.17
X4.425Y-5.47
X4.525Y-2.475
X4.525Y-2.91
X4.525Y-3.21
X4.525Y-3.605
X4.525Y-4.04
X4.525Y-4.34
X4.525Y-4.735
X4.525Y-5.17
X4.525Y-5.47
X4.625Y-2.475
X4.625Y-2.91
X4.625Y-3.21
X4.625Y-3.605
X4.625Y-4.04
X4.625Y-4.34
X4.625Y-4.735
X4.625Y-5.17
X4.625Y-5.47
X4.725Y-2.475
X4.725Y-2.91
X4.725Y-3.21
X4.725Y-3.605
X4.725Y-4.04
X4.725Y-4.34
X4.725Y-4.735
X4.725Y-5.17
X4.725Y-5.47
X4.825Y-2.475
X4.825Y-2.91
X4.825Y-3.21
X4.825Y-3.605
X4.825Y-4.04
X4.825Y-4.34
X4.825Y-4.735
X4.825Y-5.17
X4.825Y-5.47
X4.925Y-2.475
X4.925Y-2.91
X4.925Y-3.21
X4.925Y-3.605
X4.925Y-4.04
X4.925Y-4.34
X4.925Y-4.735
X4.925Y-5.17
X4.925Y-5.47
X5.025Y-2.475
X5.025Y-2.91
X5.025Y-3.21
X5.025Y-3.605
X5.025Y-4.04
X5.025Y-4.34
X5.025Y-4.735
X5.025Y-5.17
X5.025Y-5.47
X5.125Y-2.475
X5.125Y-3.605
X5.125Y-4.735
X5.695Y-3.1116
X5.695Y-4.2416
X5.695Y-5.3716
X5.775Y-2.475
X5.775Y-3.605
X5.775Y-4.735
X5.875Y-2.475
X5.875Y-2.91
X5.875Y-3.21
X5.875Y-3.605
X5.875Y-4.04
X5.875Y-4.34
X5.875Y-4.735
X5.875Y-5.17
X5.875Y-5.47
X5.975Y-2.475
X5.975Y-2.91
X5.975Y-3.21
X5.975Y-3.605
X5.975Y-4.04
X5.975Y-4.34
X5.975Y-4.735
X5.975Y-5.17
X5.975Y-5.47
X6.075Y-2.475
X6.075Y-2.91
X6.075Y-3.21
X6.075Y-3.605
X6.075Y-4.04
X6.075Y-4.34
X6.075Y-4.735
X6.075Y-5.17
X6.075Y-5.47
X6.175Y-2.475
X6.175Y-2.91
X6.175Y-3.21
X6.175Y-3.605
X6.175Y-4.04
X6.175Y-4.34
X6.175Y-4.735
X6.175Y-5.17
X6.175Y-5.47
X6.275Y-2.475
X6.275Y-2.91
X6.275Y-3.21
X6.275Y-3.605
X6.275Y-4.04
X6.275Y-4.34
X6.275Y-4.735
X6.275Y-5.17
X6.275Y-5.47
X6.375Y-2.475
X6.375Y-2.91
X6.375Y-3.21
X6.375Y-3.605
X6.375Y-4.04
X6.375Y-4.34
X6.375Y-4.735
X6.375Y-5.17
X6.375Y-5.47
X6.475Y-2.475
X6.475Y-2.91
X6.475Y-3.21
X6.475Y-3.605
X6.475Y-4.04
X6.475Y-4.34
X6.475Y-4.735
X6.475Y-5.17
X6.475Y-5.47
X6.575Y-2.475
X6.575Y-3.605
X6.575Y-4.735
X7.145Y-3.1116
X7.145Y-4.2416
X7.145Y-5.3716
X7.225Y-2.475
X7.225Y-3.605
X7.225Y-4.735
X7.325Y-2.475
X7.325Y-2.91
X7.325Y-3.21
X7.325Y-3.605
X7.325Y-4.04
X7.325Y-4.34
X7.325Y-4.735
X7.325Y-5.17
X7.325Y-5.47
X7.425Y-2.475
X7.425Y-2.91
X7.425Y-3.21
X7.425Y-3.605
X7.425Y-4.04
X7.425Y-4.34
X7.425Y-4.735
X7.425Y-5.17
X7.425Y-5.47
X7.525Y-2.475
X7.525Y-2.91
X7.525Y-3.21
X7.525Y-3.605
X7.525Y-4.04
X7.525Y-4.34
X7.525Y-4.735
X7.525Y-5.17
X7.525Y-5.47
X7.625Y-2.475
X7.625Y-2.91
X7.625Y-3.21
X7.625Y-3.605
X7.625Y-4.04
X7.625Y-4.34
X7.625Y-4.735
X7.625Y-5.17
X7.625Y-5.47
X7.725Y-2.475
X7.725Y-2.91
X7.725Y-3.21
X7.725Y-3.605
X7.725Y-4.04
X7.725Y-4.34
X7.725Y-4.735
X7.725Y-5.17
X7.725Y-5.47
X7.825Y-2.475
X7.825Y-2.91
X7.825Y-3.21
X7.825Y-3.605
X7.825Y-4.04
X7.825Y-4.34
X7.825Y-4.735
X7.825Y-5.17
X7.825Y-5.47
X7.925Y-2.475
X7.925Y-2.91
X7.925Y-3.21
X7.925Y-3.605
X7.925Y-4.04
X7.925Y-4.34
X7.925Y-4.735
X7.925Y-5.17
X7.925Y-5.47
X8.025Y-2.475
X8.025Y-3.605
X8.025Y-4.735
T2
X4.245Y-3.21
X4.245Y-4.34
X4.245Y-5.47
X5.695Y-3.21
X5.695Y-4.34
X5.695Y-5.47
X7.145Y-3.21
X7.145Y-4.34
X7.145Y-5.47
T3
X4.115Y-2.61
X4.115Y-2.71
X4.115Y-3.74
X4.115Y-3.84
X4.115Y-4.87
X4.115Y-4.97
X4.29Y-2.61
X4.29Y-2.71
X4.29Y-3.74
X4.29Y-3.84
X4.29Y-4.87
X4.29Y-4.97
X4.465Y-2.61
X4.465Y-2.71
X4.465Y-3.74
X4.465Y-3.84
X4.465Y-4.87
X4.465Y-4.97
X4.64Y-2.61
X4.64Y-2.71
X4.64Y-3.74
X4.64Y-3.84
X4.64Y-4.87
X4.64Y-4.97
X4.815Y-2.61
X4.815Y-2.71
X4.815Y-3.74
X4.815Y-3.84
X4.815Y-4.87
X4.815Y-4.97
X4.99Y-2.61
X4.99Y-2.71
X4.99Y-3.74
X4.99Y-3.84
X4.99Y-4.87
X4.99Y-4.97
X5.165Y-2.61
X5.165Y-2.71
X5.165Y-3.74
X5.165Y-3.84
X5.165Y-4.87
X5.165Y-4.97
X5.34Y-2.61
X5.34Y-2.71
X5.34Y-3.74
X5.34Y-3.84
X5.34Y-4.87
X5.34Y-4.97
X5.565Y-2.61
X5.565Y-2.71
X5.565Y-3.74
X5.565Y-3.84
X5.565Y-4.87
X5.565Y-4.97
X5.74Y-2.61
X5.74Y-2.71
X5.74Y-3.74
X5.74Y-3.84
X5.74Y-4.87
X5.74Y-4.97
X5.915Y-2.61
X5.915Y-2.71
X5.915Y-3.74
X5.915Y-3.84
X5.915Y-4.87
X5.915Y-4.97
X6.09Y-2.61
X6.09Y-2.71
X6.09Y-3.74
X6.09Y-3.84
X6.09Y-4.87
X6.09Y-4.97
X6.265Y-2.61
X6.265Y-2.71
X6.265Y-3.74
X6.265Y-3.84
X6.265Y-4.87
X6.265Y-4.97
X6.44Y-2.61
X6.44Y-2.71
X6.44Y-3.74
X6.44Y-3.84
X6.44Y-4.87
X6.44Y-4.97
X6.615Y-2.61
X6.615Y-2.71
X6.615Y-3.74
X6.615Y-3.84
X6.615Y-4.87
X6.615Y-4.97
X6.79Y-2.61
X6.79Y-2.71
X6.79Y-3.74
X6.79Y-3.84
X6.79Y-4.87
X6.79Y-4.97
X7.015Y-2.61
X7.015Y-2.71
X7.015Y-3.74
X7.015Y-3.84
X7.015Y-4.87
X7.015Y-4.97
X7.19Y-2.61
X7.19Y-2.71
X7.19Y-3.74
X7.19Y-3.84
X7.19Y-4.87
X7.19Y-4.97
X7.365Y-2.61
X7.365Y-2.71
X7.365Y-3.74
X7.365Y-3.84
X7.365Y-4.87
X7.365Y-4.97
X7.54Y-2.61
X7.54Y-2.71
X7.54Y-3.74
X7.54Y-3.84
X7.54Y-4.87
X7.54Y-4.97
X7.715Y-2.61
X7.715Y-2.71
X7.715Y-3.74
X7.715Y-3.84
X7.715Y-4.87
X7.715Y-4.97
X7.89Y-2.61
X7.89Y-2.71
X7.89Y-3.74
X7.89Y-3.84
X7.89Y-4.87
X7.89Y-4.97
X8.065Y-2.61
X8.065Y-2.71
X8.065Y-3.74
X8.065Y-3.84
X8.065Y-4.87
X8.065Y-4.97
X8.24Y-2.61
X8.24Y-2.71
X8.24Y-3.74
X8.24Y-3.84
X8.24Y-4.87
X8.24Y-4.97
T4
X4.575Y-3.43
X4.575Y-4.56
X4.575Y-5.69
X4.675Y-3.43
X4.675Y-4.56
X4.675Y-5.69
X4.775Y-3.43
X4.775Y-4.56
X4.775Y-5.69
X4.875Y-3.43
X4.875Y-4.56
X4.875Y-5.69
X6.025Y-3.43
X6.025Y-4.56
X6.025Y-5.69
X6.125Y-3.43
X6.125Y-4.56
X6.125Y-5.69
X6.225Y-3.43
X6.225Y-4.56
X6.225Y-5.69
X6.325Y-3.43
X6.325Y-4.56
X6.325Y-5.69
X7.475Y-3.43
X7.475Y-4.56
X7.475Y-5.69
X7.575Y-3.43
X7.575Y-4.56
X7.575Y-5.69
X7.675Y-3.43
X7.675Y-4.56
X7.675Y-5.69
X7.775Y-3.43
X7.775Y-4.56
X7.775Y-5.69
T0
M30
