M48
;DRILL file {KiCad 4.0.5+dfsg1-4} date Fri May 29 23:18:51 2020
;FORMAT={-:-/ absolute / inch / decimal}
FMAT,2
INCH,TZ
T1C0.098
%
G90
G05
M72
T1
X4.08Y-2.45
X4.08Y-3.58
X4.08Y-4.71
X4.35Y-3.42
X4.35Y-4.55
X4.35Y-5.68
X5.1Y-3.42
X5.1Y-4.55
X5.1Y-5.68
X5.37Y-2.45
X5.37Y-3.58
X5.37Y-4.71
X5.53Y-2.45
X5.53Y-3.58
X5.53Y-4.71
X5.8Y-3.42
X5.8Y-4.55
X5.8Y-5.68
X6.55Y-3.42
X6.55Y-4.55
X6.55Y-5.68
X6.82Y-2.45
X6.82Y-3.58
X6.82Y-4.71
X6.98Y-2.45
X6.98Y-3.58
X6.98Y-4.71
X7.25Y-3.42
X7.25Y-4.55
X7.25Y-5.68
X8.Y-3.42
X8.Y-4.55
X8.Y-5.68
X8.27Y-2.45
X8.27Y-3.58
X8.27Y-4.71
T0
M30
