G04 #@! TF.FileFunction,Drawing*
%FSLAX46Y46*%
G04 Gerber Fmt 4.6, Leading zero omitted, Abs format (unit mm)*
G04 Created by KiCad (PCBNEW 4.0.5+dfsg1-4) date Fri May 29 23:18:49 2020*
%MOMM*%
%LPD*%
G01*
G04 APERTURE LIST*
%ADD10C,0.100000*%
%ADD11C,0.300000*%
%ADD12C,0.200000*%
G04 APERTURE END LIST*
D10*
D11*
X214142571Y-62297571D02*
X214642571Y-63797571D01*
X215142571Y-62297571D01*
X215642571Y-63226143D02*
X216785428Y-63226143D01*
X218285428Y-62369000D02*
X218142571Y-62297571D01*
X217928285Y-62297571D01*
X217714000Y-62369000D01*
X217571142Y-62511857D01*
X217499714Y-62654714D01*
X217428285Y-62940429D01*
X217428285Y-63154714D01*
X217499714Y-63440429D01*
X217571142Y-63583286D01*
X217714000Y-63726143D01*
X217928285Y-63797571D01*
X218071142Y-63797571D01*
X218285428Y-63726143D01*
X218356857Y-63654714D01*
X218356857Y-63154714D01*
X218071142Y-63154714D01*
X219856857Y-63797571D02*
X219356857Y-63083286D01*
X218999714Y-63797571D02*
X218999714Y-62297571D01*
X219571142Y-62297571D01*
X219714000Y-62369000D01*
X219785428Y-62440429D01*
X219856857Y-62583286D01*
X219856857Y-62797571D01*
X219785428Y-62940429D01*
X219714000Y-63011857D01*
X219571142Y-63083286D01*
X218999714Y-63083286D01*
X220785428Y-62297571D02*
X221071142Y-62297571D01*
X221214000Y-62369000D01*
X221356857Y-62511857D01*
X221428285Y-62797571D01*
X221428285Y-63297571D01*
X221356857Y-63583286D01*
X221214000Y-63726143D01*
X221071142Y-63797571D01*
X220785428Y-63797571D01*
X220642571Y-63726143D01*
X220499714Y-63583286D01*
X220428285Y-63297571D01*
X220428285Y-62797571D01*
X220499714Y-62511857D01*
X220642571Y-62369000D01*
X220785428Y-62297571D01*
X222356857Y-62297571D02*
X222642571Y-62297571D01*
X222785429Y-62369000D01*
X222928286Y-62511857D01*
X222999714Y-62797571D01*
X222999714Y-63297571D01*
X222928286Y-63583286D01*
X222785429Y-63726143D01*
X222642571Y-63797571D01*
X222356857Y-63797571D01*
X222214000Y-63726143D01*
X222071143Y-63583286D01*
X221999714Y-63297571D01*
X221999714Y-62797571D01*
X222071143Y-62511857D01*
X222214000Y-62369000D01*
X222356857Y-62297571D01*
X223428286Y-62297571D02*
X223928286Y-63797571D01*
X224428286Y-62297571D01*
X224928286Y-63011857D02*
X225428286Y-63011857D01*
X225642572Y-63797571D02*
X224928286Y-63797571D01*
X224928286Y-62297571D01*
X225642572Y-62297571D01*
D12*
X212090000Y-117602000D02*
X101600000Y-117602000D01*
X101600000Y-88900000D02*
X212090000Y-88900000D01*
X138430000Y-146304000D02*
X138430000Y-60198000D01*
X175260000Y-60198000D02*
X175260000Y-146304000D01*
M02*
